<svg height="512pt" viewBox="0 0 512 512" width="512pt" xmlns="http://www.w3.org/2000/svg">
    <path d="M361.379 366.441l-29.203-29.254H159.199l-35.988 22.508H80.199V464.25h43.012l145.2 34.727 232.585-99.7-13.23-26.828-32.711-12.105-93.676 40.133zm0 0" fill="#ffdaaa"/>
    <path d="M454.543 360.598l-8.285-16.797-32.711-12.106-60.84 26.063 8.672 8.683v34.036zm0 0" fill="#ffc477"/>
    <path d="M7.5 359.695h72.7V504.5H7.5zm0 0" fill="#b3d8f4"/>
    <path d="M410.223 265.684c0 38.117-30.899 69.015-69.016 69.015-38.117 0-69.016-30.898-69.016-69.015 0-38.118 30.899-69.016 69.016-69.016 38.117 0 69.016 30.898 69.016 69.016zm0 0M267.246 180.074c0 38.117-30.902 69.016-69.016 69.016-38.117 0-69.015-30.899-69.015-69.016 0-38.117 30.898-69.015 69.015-69.015 38.114 0 69.016 30.898 69.016 69.015zm0 0M400.46 76.516c0 38.117-30.897 69.015-69.015 69.015-38.117 0-69.015-30.898-69.015-69.015S293.328 7.5 331.445 7.5c38.118 0 69.016 30.898 69.016 69.016zm0 0" fill="#ffe477"/>
    <g fill="#ff9478">
        <path d="M391.379 400.48l79.773-34.18-16.097-5.956-63.676 27.281zm0 0M189.2 337.188h-30l-35.99 22.507h30zm0 0M80.2 359.695h30V464.25h-30zm0 0M153.21 464.25h-30l145.2 34.727 10.746-4.606zm0 0"/>
        <path d="M391.379 387.637V366.44l-8.672-8.683 46.938-20.106-16.098-5.957-60.84 26.063 8.672 8.683v34.04zm0 0"/>
    </g>
    <path d="M7.5 359.695h30V504.5h-30zm0 0" fill="#57a4ff"/>
    <path d="M302.191 265.684c0-32.965 23.11-60.532 54.016-67.383a69.272 69.272 0 00-15-1.637c-38.117 0-69.016 30.902-69.016 69.02 0 38.113 30.899 69.015 69.016 69.015 5.148 0 10.172-.566 15-1.636-30.906-6.848-54.016-34.415-54.016-67.38zm0 0M159.21 180.074c0-32.965 23.114-60.531 54.017-67.379a69.245 69.245 0 00-15-1.636c-38.118 0-69.016 30.902-69.016 69.015 0 38.117 30.902 69.02 69.016 69.02 5.152 0 10.171-.567 15-1.637-30.903-6.848-54.016-34.418-54.016-67.383zm0 0M292.43 76.516c0-32.965 23.11-60.532 54.015-67.38a69.245 69.245 0 00-15-1.636c-38.117 0-69.015 30.898-69.015 69.016s30.898 69.015 69.015 69.015c5.153 0 10.172-.562 15-1.633-30.906-6.847-54.015-34.418-54.015-67.382zm0 0" fill="#ffb655"/>
    <path d="M0 512h87.7V352.195H0zm15-144.805h57.7V497H15zm0 0M493.168 366.453L459.68 354.06l-8.02-16.258-38.316-14.18-58.918 25.242-19.14-19.176h-178.24l-35.987 22.508h-20.86v15h15.516v37.309h15v-40.652l30.637-19.164h167.714l24.813 24.859v23.433h-55.23v-23.578h-15v23.578H228.28v15h134.637l92.344-39.562 27.097 10.027 8.414 17.055-57.351 24.586-9.219-18.695-13.453 6.636 8.867 17.977-151.875 65.101-143.644-34.355h-23.899v15h22.13l146.753 35.102 242.14-103.797zm-79.418-26.687l27.102 10.03 3.449 6.997-75.422 32.312V363.34l-3.043-3.047zm0 0M348.707 306.531v-9.367h11.988v-38.98h-23.98v-8.98h23.98v-15h-11.988v-9.368h-15v9.367h-11.992v38.98h23.98v8.981h-23.98v15h11.992v9.367zm0 0M198.23 256.594c42.192 0 76.516-34.328 76.516-76.52 0-42.191-34.324-76.515-76.516-76.515-42.195 0-76.52 34.324-76.52 76.515 0 42.192 34.325 76.52 76.52 76.52zm0-138.035c33.918 0 61.516 27.597 61.516 61.515 0 33.922-27.598 61.52-61.516 61.52-33.921 0-61.52-27.598-61.52-61.52 0-33.918 27.599-61.515 61.52-61.515zm0 0"/>
    <path d="M190.73 220.922h15v-9.367h11.989v-38.98h-23.98v-8.981h23.98v-15H205.73v-9.364h-15v9.364h-11.992v38.98h23.98v8.98h-23.98v15h11.992zm0 0M331.445 153.031c42.192 0 76.516-34.324 76.516-76.515S373.637 0 331.445 0c-42.191 0-76.515 34.324-76.515 76.516 0 42.195 34.324 76.515 76.515 76.515zm0-138.031c33.918 0 61.516 27.598 61.516 61.516 0 33.921-27.594 61.52-61.516 61.52s-61.515-27.599-61.515-61.52C269.93 42.598 297.527 15 331.445 15zm0 0"/>
    <path d="M323.945 117.363h15v-9.367h11.993v-38.98h-23.981v-8.98h23.98v-15h-11.992v-9.364h-15v9.363h-11.988v38.98h23.98v8.981h-23.98v15h11.988zm0 0M400.656 313.86c11.004-13.567 17.067-30.676 17.067-48.176 0-42.192-34.325-76.52-76.516-76.52s-76.52 34.328-76.52 76.52c0 21.777 9.325 42.59 25.583 57.097l9.988-11.187c-13.07-11.668-20.57-28.403-20.57-45.91 0-33.918 27.597-61.516 61.519-61.516s61.516 27.598 61.516 61.516c0 28.578-20.211 53.832-48.059 60.043l3.266 14.64c16.71-3.73 31.883-13.14 42.726-26.508zm0 0"/>
    <path d="M254.246 368.098H215.88v-15h38.367zm-48.367 0h-15v-15h15zm-25 0h-15v-15h15zm0 0M377.637 302.11l-10.61-10.606a36.078 36.078 0 008.47-13.266l14.093 5.13c-2.578 7.081-6.602 13.39-11.953 18.741zm14.676-30.09l-14.887-1.832a36.865 36.865 0 00-.578-12.39l14.652-3.212a51.887 51.887 0 01.813 17.434zm-18.141-22.051a36.308 36.308 0 00-7.145-10.106l10.606-10.605a51.294 51.294 0 0110.086 14.273zm0 0M234.656 216.504l-10.605-10.606c3.793-3.796 6.644-8.261 8.465-13.27l14.093 5.134c-2.574 7.078-6.597 13.383-11.953 18.742zm14.68-30.094l-14.887-1.832c.184-1.488.274-3.004.274-4.504 0-2.648-.286-5.304-.852-7.887l14.652-3.21a51.914 51.914 0 01.813 17.433zm-18.14-22.05a36.308 36.308 0 00-7.145-10.106l10.605-10.606a51.295 51.295 0 0110.086 14.274zm0 0M367.875 112.941l-10.61-10.601a36.125 36.125 0 008.47-13.27l14.093 5.133a50.97 50.97 0 01-11.953 18.738zm14.68-30.09l-14.89-1.831a36.856 36.856 0 00-.578-12.387l14.651-3.215a51.918 51.918 0 01.817 17.434zm-18.145-22.05a36.284 36.284 0 00-7.144-10.106L367.87 40.09a51.214 51.214 0 0110.086 14.273zm0 0" fill="#fff"/>
</svg>
