<svg version="1.1" id="Layer_1" xmlns="http://www.w3.org/2000/svg" x="0" y="0" viewBox="0 0 2000 2000" xml:space="preserve">
    <style>
        .st2{fill:#fff}.st3,.st4,.st5,.st6,.st7{fill:#70c6aa;enable-background:new}.st4,.st5,.st6,.st7{fill:#0e874d}.st5,.st6,.st7{fill:#add135}.st6,.st7{fill:#a9305e}.st7{fill:#e64957}
    </style>
    <path d="M1000 888.78l148-283.83 107.19-121.47s11.14-66.05-39.05-55.98c0 0-14.54 8.54-32.34 32.44-2.95 3.97-6.85 7.01-9.97 11.39 0 0-37.42 53.49-86.85 61.02 0 0-77.69 85.22-174.71 0 0 0-45.15-5.08-93.36-68.54 0 0-23.59-32.14-35.08-36.41s-39.76 2.85-39.76 32.14l.71 23.49S850.34 602.01 849.73 601.4 1000 888.78 1000 888.78z" fill="#f6921f"/>
    <circle cx="1000" cy="448.54" r="92.81" fill="#f6921f"/>
    <path class="st2" d="M881.52 662.43s114.6-46.65 236.51 0l-22.57 43.28s-93.26-36.94-191.31 0l-22.63-43.28z"/>
    <path class="st3" d="M912.02 939.58l-171.8-270.09-51.61-153.56s-51.63-42.67-68.01 5.83c0 0 .13 16.87 11.92 44.23 1.96 4.54 2.65 9.44 4.88 14.33 0 0 27.61 59.16 9.42 105.72 0 0 34.96 109.9-87.36 151.3 0 0-26.98 36.56-106.04 46.58 0 0-39.63 4.36-49.07 12.18-9.44 7.82-17.42 35.86 7.95 50.5l20.7 11.13s155.82-31.93 154.99-31.7c-.83.21 324.03 13.55 324.03 13.55z"/>
    <circle class="st3" cx="530.76" cy="719.46" r="92.81"/>
    <path class="st2" d="M656.76 929.01s16.9-122.57 118.25-204.82l26.19 41.18s-78.62 62.3-95.66 165.68l-48.78-2.04z"/>
    <g>
        <path class="st4" d="M912.02 1041.17l-319.8 13.74-158.79-32.09s-62.77 23.38-28.96 61.81c0 0 14.67 8.32 44.26 11.79 4.91.57 9.5 2.43 14.85 2.94 0 0 65.04 5.66 96.27 44.7 0 0 112.65 24.68 87.36 151.3 0 0 18.17 41.65-12.68 115.12 0 0-16.03 36.5-13.99 48.59s22.35 33.01 47.71 18.37l19.99-12.36s50.26-150.91 50.04-150.08 173.74-273.83 173.74-273.83z"/>
        <circle class="st4" cx="530.76" cy="1261.29" r="92.81"/>
        <path class="st2" d="M775.24 1256.95s-97.7-75.92-118.25-204.82l48.76-2.1s14.64 99.24 95.66 165.68l-26.17 41.24z"/>
    </g>
    <g>
        <path class="st5" d="M1000 1091.96l-148 283.83-107.19 121.47s-11.14 66.05 39.05 55.98c0 0 14.54-8.54 32.34-32.44 2.95-3.97 6.85-7.01 9.97-11.39 0 0 37.42-53.49 86.85-61.02 0 0 77.69-85.22 174.71 0 0 0 45.15 5.08 93.36 68.54 0 0 23.59 32.14 35.08 36.41 11.49 4.27 39.76-2.85 39.76-32.14l-.71-23.49s-105.56-118.98-104.95-118.37c.61.62-150.27-287.38-150.27-287.38z"/>
        <circle class="st5" cx="1000" cy="1532.2" r="92.81"/>
        <path class="st2" d="M1118.48 1318.31s-114.6 46.65-236.51 0l22.57-43.28s93.26 36.94 191.31 0l22.63 43.28z"/>
    </g>
    <g>
        <path class="st6" d="M1087.98 1041.17l171.8 270.09 51.61 153.56s51.63 42.67 68.01-5.83c0 0-.13-16.87-11.92-44.23-1.96-4.54-2.65-9.44-4.88-14.33 0 0-27.61-59.16-9.42-105.72 0 0-34.96-109.9 87.36-151.3 0 0 26.98-36.56 106.04-46.58 0 0 39.63-4.36 49.07-12.18 9.44-7.82 17.42-35.86-7.95-50.5l-20.7-11.13s-155.82 31.93-154.99 31.7c.83-.22-324.03-13.55-324.03-13.55z"/>
        <circle class="st6" cx="1469.24" cy="1261.29" r="92.81"/>
        <path class="st2" d="M1343.24 1051.73s-16.9 122.57-118.25 204.82l-26.19-41.18s78.62-62.3 95.66-165.68l48.78 2.04z"/>
    </g>
    <g>
        <path class="st7" d="M1087.98 939.58l319.8-13.74 158.79 32.09s62.77-23.38 28.96-61.81c0 0-14.67-8.32-44.26-11.79-4.91-.57-9.5-2.43-14.85-2.94 0 0-65.04-5.66-96.27-44.7 0 0-112.65-24.68-87.36-151.3 0 0-18.17-41.65 12.68-115.12 0 0 16.03-36.5 13.99-48.59-2.05-12.09-22.35-33.01-47.71-18.37l-19.99 12.36s-50.26 150.91-50.04 150.08c.24-.84-173.74 273.83-173.74 273.83z"/>
        <circle class="st7" cx="1469.24" cy="719.46" r="92.81"/>
        <path class="st2" d="M1224.76 723.79s97.7 75.92 118.25 204.82l-48.76 2.1s-14.64-99.24-95.66-165.68l26.17-41.24z"/>
    </g>
</svg>
