<svg xmlns="http://www.w3.org/2000/svg" width="265.38" height="86.81">
    <path fill="#FCD108" d="M264.079 34.387H1.303l27.566 23.577L1.303 81.541h262.776l-27.567-23.577z"/>
    <path fill="none" stroke="#272425" stroke-width=".96" stroke-miterlimit="10" d="M264.079 39.178H1.303l27.566 23.577L1.303 86.332h262.776l-27.567-23.577z"/>
    <path fill="#FFF" d="M156.806 43.813c1.072-2.005.025-4.535-.888-6.359-1.71-3.42-4.204-6.499-6.681-9.383a83.832 83.832 0 00-9.119-9.123c7.257.098 22.643-6.939 14.04-14.046-4.086-3.374-9.568 1.012-13.579 2-3.358.825-6.958.977-10.398.894-1.191-.027-2.526-.047-3.647-.478-1.371-.53-2.463-2.649-3.09-3.982 1.351-1.896-.61-3.558-2.724-3.312-3.447.401-6.625 2.517-9.427 4.43-2.735 1.872-5.628 4.241-7.327 7.143-1.077 1.838.616 4.42 2.806 3.76a5.39 5.39 0 001.335-.592c-.395.244 1.518 3.164 1.681 3.5.394.807.059 2.272.094 3.184.039 1.008.217 2.013.406 2.999.818 4.246 3.034 8.257 5.717 11.64.034.052.062.105.099.154.019.03.05.049.078.068.184.231.37.456.561.683 1.654 1.955 3.709 4.585 6.371 5.044 1.576.271 4.136-.618 4.303-2.268 2.42 1.037 5.472.552 6.617-1.964 1.629.85 4.069.688 5.288-.674.95-1.061 1.068-2.398.839-3.734 2.31 3.547 4.071 7.558 6.553 10.941 2.673 3.649 7.838 3.694 10.092-.525z"/>
    <g fill="#272425">
        <path d="M156.806 43.813c1.072-2.005.025-4.535-.888-6.359-1.71-3.42-4.204-6.499-6.681-9.383a83.832 83.832 0 00-9.119-9.123c7.257.098 22.643-6.939 14.04-14.046-4.086-3.374-9.568 1.012-13.579 2-3.358.825-6.958.977-10.398.894-1.191-.027-2.526-.047-3.647-.478-1.371-.53-2.463-2.649-3.09-3.982 1.351-1.896-.61-3.558-2.724-3.312-3.447.401-6.625 2.517-9.427 4.43-2.735 1.872-5.628 4.241-7.327 7.143-1.077 1.838.616 4.42 2.806 3.76a5.39 5.39 0 001.335-.592c-.395.244 1.518 3.164 1.681 3.5.394.807.059 2.272.094 3.184.039 1.008.217 2.013.406 2.999.818 4.246 3.034 8.257 5.717 11.64.034.052.062.105.099.154.019.03.05.049.078.068.184.231.37.456.561.683 1.654 1.955 3.709 4.585 6.371 5.044 1.576.271 4.136-.618 4.303-2.268 2.42 1.037 5.472.552 6.617-1.964 1.629.85 4.069.688 5.288-.674.95-1.061 1.068-2.398.839-3.734 2.31 3.547 4.071 7.558 6.553 10.941 2.673 3.649 7.838 3.694 10.092-.525zm-33.49-2.616c-1.15-.31-2.172-1.199-3.064-1.945-1.093-.913-2.076-1.955-2.974-3.068-.012-.03-.013-.06-.037-.094-1.031-1.452-.912-3.353.36-4.617 1.011-1.003 2.505.18 3.373 1.119 1.283 2.576 3.823 5.084 5.459 6.751.431 1.629-1.821 2.205-3.117 1.854zm3.88-2.222c-.013-.015-.012-.03-.028-.046-1.799-1.838-3.46-3.857-4.812-6.049-.91-1.479-1.597-2.583-.621-4.136 1.434-2.28 3.305-1.906 4.669-.263 1.277 3.395 4.746 6.952 6.688 8.963-.841 2.32-3.887 2.893-5.896 1.531zm7.236-1.827c0-.002-.001-.003-.003-.004-2.146-2.172-4.39-4.71-5.742-7.54a.329.329 0 00-.053-.183c-.032-.053-.069-.106-.104-.158a13.937 13.937 0 01-.584-1.517c-.335-1.065-.353-2.312.631-3.137 1.87-1.562 4.265-.226 5.711.935 1.794 1.436 3.099 3.453 4.268 5.396.366.89.662 1.781.85 2.733.533 2.695-2.516 5.618-4.974 3.475zm17.403 8.397c-3.155.802-5.545-3.675-6.764-5.765-1.815-3.114-3.616-6.786-5.956-9.56-.002-.004 0-.004-.002-.006-1.544-2.552-3.406-5.429-6.058-6.955-1.853-1.066-5.572-1.743-6.716.798-.319.704-.249 1.889-.18 2.671-.652-.459-1.538-.82-2.384-.866-1.886-.095-3.44 1.948-3.528 3.668-.02.418.04.979.131 1.407-.896-.503-2.103-1.033-3.041-.557-1.198.609-1.86 1.807-1.969 3.069a41.32 41.32 0 01-1.13-1.835c-1.91-3.291-3.098-7.023-3.244-10.83-.047-1.23.228-2.028-.307-3.124-.642-1.317-1.41-2.54-2.482-3.546-.204-.189-.584-.195-.809-.043-.789.537-2.513.6-2.47-.72.022-.712.62-1.458 1.01-1.994 1.308-1.803 3.115-3.269 4.857-4.624a36.798 36.798 0 016.388-3.998 19.008 19.008 0 012.535-1.004c1.04-.336 3.792-.222 2.655 1.269-.117.081-.181.203-.102.367.006.022.02.044.032.064 1.798 3.824 3.772 5.054 7.833 5.22 4.393.18 9.773.063 13.766-1.976 2.517-1.287 4.986-2.276 7.86-1.58 3.779.911 3.772 5.531 1.718 7.93-3.067 3.573-9.974 6.014-14.621 4.938-.387-.089-1.748.412-1.266.811 2.343 1.931 5.208 3.926 7.332 6.088 4.127 4.196 8.826 9.279 10.821 14.921 1.142 3.236-.776 4.965-3.909 5.762z"/>
        <path d="M120.258 10.974c-.452 8.025 8.179 9.198 8.179 9.198-7.376-2.522-8.179-9.198-8.179-9.198zM111.013 19.683s.303-2.591.97-3.483c.667-.894-1.522.599-1.859 1.331-.337.733.889 2.152.889 2.152zM122.371 3.002s-1.382.004-2.655.84c0 0 2.487-.361 3.146.685.659 1.046-.063-1.56-.491-1.525z"/>
    </g>
</svg>
