<svg xmlns="http://www.w3.org/2000/svg" width="1941.39" height="471.26">
    <path fill="#FFCE00" d="M1931.23 455.125l-491.373-47.677V94.591l485.052-48.873c8.233-.83 14.177 7.703 10.546 15.138l-96 196.58 100.782 184.037c3.57 6.517-1.612 14.37-9.007 13.652z"/>
    <path fill="#FFB624" d="M1839.456 257.436l90.669-185.664-349.349 349.349 350.454 34.004c7.396.717 12.576-7.135 9.008-13.652l-100.782-184.037z" opacity=".2"/>
    <path fill="#FFCE00" d="M10.162 455.125l491.372-47.677V94.591L16.483 45.718c-8.233-.83-14.177 7.703-10.546 15.138l96 196.58L1.155 441.473c-3.569 6.517 1.612 14.37 9.007 13.652z"/>
    <path fill="#FFB624" d="M92.687 274.327L1.155 441.473c-3.569 6.517 1.612 14.368 9.008 13.652l491.373-47.677V94.591l-208.14-20.972L92.687 274.327z" opacity=".2"/>
    <path fill="#FFCE00" d="M1685.368 467.191H308.011c-31.05 0-56.221-25.171-56.221-56.221V60.364c0-31.05 25.171-56.221 56.221-56.221h1377.357c31.05 0 56.221 25.171 56.221 56.221V410.97c0 31.05-25.171 56.221-56.221 56.221z"/>
    <path fill="#FFF" d="M1521.682 421.335c63.576-63.628 127.107-127.299 190.514-191.095 9.808-9.868 19.59-19.763 29.392-29.637V60.364a55.936 55.936 0 00-9.878-31.804 110564.634 110564.634 0 01-325.303 325.891c-37.714 37.621-75.497 75.174-113.266 112.74h182.698c15.281-15.286 30.566-30.567 45.843-45.856zM392.802 96.912L251.791 237.923v173.048c0 8.63 2.002 16.773 5.477 24.08 23.012-23.007 46.019-46.019 69.035-69.022 109.569-109.507 219.192-218.96 328.964-328.263 11.265-11.216 22.551-22.41 33.819-33.622H485.571c-30.923 30.921-61.845 61.845-92.769 92.768z" opacity=".2"/>
    <path fill="#FDE41B" d="M249.493 356.156c0 19.063-.717 38.28.046 57.334.477 11.932 4.359 22.492 10.528 31.256l6.904-6.904a50.08 50.08 0 01-6.929-16.414c-1.687-7.509-1.284-15.248-1.284-22.885V241.798c0-60.158-.905-120.392 0-180.544.426-28.336 22.288-51.069 50.854-51.587 1.472-.026 2.949 0 4.422 0h381.112l9.596-9.595H314.614c-31.508 0-59.878 19.95-64.539 52.532-.988 6.908-.582 14.12-.582 21.081v282.471zM1743.885 76.629c0-5.169.035-10.339 0-15.508-.196-28.853-20.16-54.434-48.866-59.932-8.403-1.61-17.217-1.118-25.744-1.118h-37.444l-9.568 9.569c20.066-.054 40.145-.268 60.205.026 25.067.368 47.31 17.999 51.417 43.174 1.117 6.85.734 13.928.734 20.843v319.681c0 5.569.083 11.145 0 16.713-.426 28.324-22.277 51.074-50.845 51.587h-513.537l-9.597 9.597h522.002c28.736-.518 53.89-20.211 59.951-48.611 1.669-7.823 1.292-15.866 1.292-23.816V76.629z"/>
</svg>
