<svg version="1.1" id="Layer_1" xmlns="http://www.w3.org/2000/svg" xmlns:xlink="http://www.w3.org/1999/xlink" x="0" y="0" width="1327" height="1327" xml:space="preserve">
    <style>
        .st1{fill:#fefefe}.st3{fill:#3cacce}.st20{fill:#2574bd}.st21{fill:#2777c3}.st25{fill:#297dca}.st26{fill:#287ac6}.st27{fill:#2471b8}.st29{fill:#aec8e1}.st30{fill:#29b8ac}.st31{fill:#2b9ec1}.st32{fill:#2b9ac3}.st34{fill:#2aa7b9}.st35{fill:#2c99c7}.st36{fill:#29b4ab}.st37{fill:#2ba2bf}.st39{fill:#a6e1db}.st40{fill:#3098dd}.st42{fill:#308be1}.st43{fill:#2f9ed4}.st46{fill:#2f89dd}.st47{fill:#2e86d9}.st48{fill:#2f9cd7}.st50{fill:#2f9ada}.st51{fill:#2ab5b3}.st52{fill:#2ab3b6}.st53{fill:#2ab6b1}.st54{fill:#2bb1b9}.st56{fill:#2cabc1}.st64{fill:#2c96c8}.st66{fill:#2ea1d0}.st68{fill:#2b80d0}.st72{fill:#2a7fcb}.st74{fill:#29b5ae}.st75{fill:#2b9fbd}.st76{fill:#2ca6be}.st79{fill:#2f9fd2}.st80{fill:#2c84d5}.st86{fill:#1eb5d0}.st88{fill:#2a83cb}.st90{fill:#24d6cf}.st94{fill:#78b2dc}.st97{fill:#0a819a}.st99{fill:#067e99}
    </style>
    <defs>
        <circle id="SVGID_1_" cx="663.5" cy="663.5" r="662.2"/>
    </defs>
    <clipPath id="SVGID_2_">
        <use xlink:href="#SVGID_1_" overflow="visible"/>
    </clipPath>
    <g clip-path="url(#SVGID_2_)">
        <path class="st1" d="M1327 615c-2.2-.1-2.2-1.8-2.3-3.2-.5-6-1.1-12-1.7-18v-.4c-.8-7.5-1.8-14.9-2.8-22.4-.3-2.5-.7-5-1-7.6-.1-1-.3-2-.4-2.9 0-.2-.1-.4-.1-.7-.2-1.2-.4-2.3-.7-3.4-.2-.8-.4-1.5-.6-2.3l-.2-.6c-3.6-13.8-5.7-27.9-9-41.7l-.6-2.7c-2.5-10.5-5.3-20.9-8.5-31.2-.2-.5-.3-1-.5-1.6-.1-.3-.2-.6-.3-1-3.3-12.5-7.5-24.7-12.1-36.8-.3-.8-.6-1.5-.9-2.3l-2.7-7.5c-5.6-15-12.1-29.6-18.4-44.3-.2-.8-.5-1.5-.7-2.2 0-.1-.1-.2-.1-.3-1.7-4.6-4-9-6.4-13.3-.9-1.6-1.8-3.3-2.7-4.9-6.8-11-12.3-22.8-19-33.8-10.2-16.9-20.7-33.5-32.2-49.5-1-1.5-2.1-2.9-3.2-4.3-1.1-1.5-2.3-3.1-3.4-4.6-3.1-4.1-5.8-8.4-9.2-12.2-.1-.2-.3-.3-.4-.5l-.1-.1c-.2-.3-.5-.7-.7-1-1.9-2.6-4-5.2-6.1-7.6-.3-.3-.5-.6-.8-.9-.3-.3-.6-.7-.8-1.1-.1-.2-.3-.4-.4-.5-7-9.1-14.6-17.6-22.3-26.1-.3-.3-.6-.7-.9-1-10.6-11.6-20.9-23.5-32.8-33.9-7.8-6.9-15-14.5-23.3-20.9-.5-.4-1-.9-1.4-1.3-.2-.1-.3-.3-.5-.4-.7-.6-1.3-1.2-2-1.8-16-14.4-33.3-27.3-50.9-39.7-31.6-22.3-65.2-41.2-100-58.1-.6-.5-1.2-1-1.9-1.4-.8-.5-1.7-.9-2.6-1.1-.7-.2-1.4-.4-2.2-.5-.9-.2-1.8-.6-2.5-1.2-.6-.5-1.2-.9-1.9-1.3s-1.4-.7-2.2-1c-.9-.3-1.9-.6-3-.7-18.7-7.4-37.2-15-56.3-21.2-10.1-3.3-20.2-6.4-30.4-9.1-2.3-.6-4.5-1.2-6.8-1.8-.2-.1-.4-.1-.6-.2-.4-.1-.7-.2-1.1-.3-1.2-.3-2.4-.7-3.6-1-9.4-2.5-18.9-4.4-28.4-6.6-2.1-.5-4.2-.9-6.1-2h-.1c-.8-.5-1.6-.9-2.5-1.2-3.2-1.1-6.7-1.2-9.9-1.7-1.7-.3-3.3-.5-5-.8-.1 0-.2 0-.4-.1-7.4-1.2-14.8-2.4-22.2-3.4-4.2-.6-8.4-1.1-12.6-1.5-2.1-.2-4.3-.4-6.4-.5-9.1-.6-18.3-1-27.3-2.7-.3 0-.6-.1-.9-.2-3.1-.6-6.3-.4-9.4-.3h-3.5c-1-.1-2.2.1-3.1-.2-.8-.3-1.4-.8-1.6-2.1.6.3 1.2.9 1.7.9 11.4-.9 22.5 1.5 33.7 2.2 12.9.8 25.7 2.1 38.5 4.3 9.2 1.6 18.5 3.1 27.8 4.5 1.7.3 3.3.6 4.3 2.1 11.2 2.6 22.4 5.3 33.6 7.9 1.9.4 3.9.7 5.5 1.9 11.9 2.1 23.3 6.1 34.8 9.8 20.1 6.4 39.7 14 59 22.3 2.7.1 5.1.9 6.9 3.2.5.8 1.2.9 2 .9 2.9-.3 5.1 1.1 7.1 2.9 29.7 14.3 58.4 30.1 85.9 48.4 23.4 15.5 45.8 32.5 67.1 50.9.9.7 1.5 1.7 2.3 2.6 8.8 6.3 16.2 14.1 24.1 21.5 11.2 10.6 22.2 21.3 31.8 33.4 8.8 8.7 16.8 18.1 24.1 28.2 3.2 2.8 5.7 6.2 7.9 9.9 10.9 12.5 20.1 26.4 29.4 40.1 14.1 20.9 26.6 42.9 38.4 65.2 4.2 6.6 8.1 13.3 10.1 20.9 7.7 17 15.5 33.9 21.1 51.7 5.4 12.7 9.8 25.7 13 39.1 4.9 12.6 7.7 25.7 10.8 38.8 3.1 13.1 5.4 26.3 8.1 39.5 3 6.6 3 13.8 4 20.8 1.9 13.3 3.7 26.6 4.3 40-.5 0 0 .4.3.8zM626.1.9c-.1.2-.2.4-.4.5-4.7.9-9.5 1.9-14.3 2.4-1.8.2-3.5.3-5.3.4-2.9.1-5.8.2-8.7.4h-.1c-7.6.5-15.1 1.5-22.6 2.5l-2.7.3-2.4.3h-.3c-1.3.2-2.6.3-3.9.5-10.3 1.3-20.5 3.2-30.6 5.3-6.4 1.3-12.9 2.7-19.3 4.1-14.8 3.1-29.3 7.2-43.8 11.5-3.7 1.1-7.4 2.3-11.1 3.5-.1 0-.1 0-.2.1-4.1 1.3-8.2 2.6-12.2 4h-.1c-7.3 2.5-14.5 5.1-21.7 7.8-.1 0-.1 0-.2.1-3 1.1-6 2.3-9 3.5-.1 0-.2.1-.2.1-8.4 3.3-16.8 6.9-25.1 10.5-.5.2-.9.4-1.4.6h-.1c-1.8.8-3.6 1.7-5.2 2.9 0 0-.1.1-.2.1-.5.4-1.1.7-1.6 1.1-7.3 4.8-15.5 7.7-23.2 11.9-5 2.7-10.2 5.3-15.1 8.1-.6.4-1.2.7-1.8 1.1-8.2 4.3-16.3 8.9-24.1 14-.1 0-.2.1-.2.1-.7.4-1.3.8-2 1.2-.3.2-.6.3-.8.5-19.5 11.6-37.9 24.6-55.8 38.4-1.6 1.2-3.2 2.4-4.8 3.7-.3.3-.7.5-1 .8 0 0-.1 0-.1.1-.1.1-.2.2-.3.2-.9.6-1.7 1.3-2.6 2-3.5 2.7-6.9 5.5-10.3 8.3-.9.8-1.8 1.6-2.8 2.4-.1.1-.2.1-.3.2l-.1.1c-.8.6-1.5 1.3-2.3 1.9-10.6 9-21.2 18-31.1 27.8-11.7 11.6-23.5 23.1-34.5 35.4-.4.5-.9 1-1.3 1.5-.3.4-.6.7-.9 1.1l-.6.9c-17.7 19.7-34 40.5-49 62.3l-.9 1.2c-2.8 3.9-5.5 7.9-8.1 11.9-11.1 16.9-21.4 34.4-31 52.3-11.8 21.8-21.9 44.4-31.2 67.3-.1.2-.2.5-.3.7-.1.2-.2.5-.3.7-1.3 3.2-2.5 6.3-4 9.4-.7 1.5-1.3 2.9-2 4.4-1.1 2.6-2.1 5.2-3 7.8-.6 1.7-1.1 3.4-1.6 5.1l-.3 1.2c-.1.4-.3.7-.4 1.1-.5 1.4-.9 2.9-1.2 4.4V456.1l-.2.6c-4.2 13.8-8.4 27.6-12.1 41.5-.7 2.6-1.3 5.2-2 7.7-1.6 6.7-3.2 13.5-4.5 20.2-1.1 5.5-2.4 11-3.6 16.5-.5 2.4-1 4.8-1.4 7.2-.6 3.3-1.2 6.6-1.7 9.9-.6 3.7-1.2 7.4-1.7 11.1-.6 4.2-1.2 8.3-1.7 12.5 0 .2 0 .4-.1.6-.5 4.4-.9 8.7-1.3 13.1v.1c-.1.3-.2.6-.2 1-.3 1.4-.5 2.8-.7 4.2v.1c-.4 3.8-.5 7.7-1.6 11.5-.2.2-.4.4-.6.4H.6c-.3.1-.5 0-.9-.1.3 0 .6 0 1-.1.2-5.8.1-11.5 1.9-17.1.6-14.1 2.8-28 5.4-41.9.8-4.3.1-9 2.7-13 2.5-15.1 6-30 9.8-44.8C24.4 484 28.6 470 33 456c-.3-2.3.8-4.2 1.7-6.2 1.7-6.5 3.6-13 7.2-18.8 1.5-3.6 3-7.3 4.5-10.9 7.7-21 17.2-41.1 27.5-60.8 12.3-23.8 26.1-46.7 41.2-68.9.8-1.2 1.4-2.7 2.9-3.4 8.6-14.2 19.1-27 29.5-39.9 6.1-7.6 12-15.4 19.1-22.2 12.1-14.8 25.8-28.1 39.5-41.3 10.1-9.8 20.4-19.4 31.7-27.8 4.8-5 10.2-9.2 16-13 7.8-7.3 16.6-13.3 25.3-19.4 12.9-9.1 25.7-18.4 39.8-25.7 7.5-5.4 15.5-9.9 23.8-13.8 11.7-7.7 24.5-13.1 36.9-19.4 1.5-.7 2.9-1.6 4.3-2.4 5.8-5.1 13.3-7.1 20.2-10 15.2-6.2 30.6-12.2 46.2-17.6 12.8-4.4 25.9-7.7 38.8-11.6 14.4-4.4 29.2-7.1 43.8-10.3 13.4-2.9 27-4.8 40.5-6.8 14.9-2.1 30-2 44.9-4.7 2.4-.4 5-.1 7.5-.2v-1c.4.4.4.8.3 1zM1325.2 733.5c-.5 1.2-.6 2.6-1.7 3.5-.8 5.7-1.6 11.3-2.4 17-.9 12.8-3.5 25.3-5.9 37.8-1.4 7.5-2.4 15.1-5.1 22.2-1.3 10.2-4.5 20.1-7.2 30-4.9 18.1-11 35.9-17.4 53.5-.3.9-.9 1.7-1.4 2.6-3.4 11.4-8.5 22.1-13.2 33.1-.4.9-.7 1.8-1.1 2.8-1.1 5.6-3.4 10.6-7 15.1-5.6 10.8-11.2 21.5-16.7 32.3-.5 1-.8 2.2-2 2.7-4.6 10.7-11.1 20.4-17.2 30.2-22 35.2-47.1 68.1-75.2 98.6-22.3 24.2-46.3 46.7-71.9 67.3-11.8 9.5-24.2 18.3-36.4 27.4-.8.6-1.8.9-2.7 1.3-9.2 7.6-19.6 13.7-29.7 20-36.7 22.7-75.3 41.6-115.7 56.5-1.1.4-2.2.5-3.4.8-1.4 1.4-3.1 2.1-5.1 1.8-4.3 2.7-9.2 3.7-14 5-14.9 5.9-30.6 9.5-46 13.9-3 3.1-7.4 2.9-11 3.7-14.9 3.4-30 6.8-45.1 9-11.9 1.7-23.8 4.1-35.8 4.3-.8.1-1.6.2-2 1-.1-.6.1-1 .3-1.3.2-.3.7-.5 1.1-.6.2-.1.5-.2.8-.2 8.3-.9 16.6-2 24.9-3.2.6-.1 1.3-.2 1.9-.3.4-.1.9-.1 1.3-.2 3.1-.5 6.2-1 9.2-1.5 1.2-.2 2.3-.4 3.5-.6.2 0 .4-.1.6-.1 4.3-.7 8.7-1.5 13-2.3 1.7-.3 3.4-.6 5.1-1 3.7-.7 7.3-1.5 10.9-2.2 2.1-.4 4.2-.9 6.3-1.3 1.5-.3 3-.7 4.5-1 1-.2 1.9-.4 2.9-.7.3-.1.7-.2 1.1-.2.5-.1 1.1-.2 1.6-.4.1 0 .2 0 .3-.1.6-.1 1.1-.3 1.6-.4.8-.3 1.6-.6 2.3-1 9.4-3.5 19.3-5.5 28.9-8.5 5.6-1.7 11.1-3.7 16.7-5.3.2-.1.5-.1.7-.2 4.7-1.6 9.4-2.9 13.9-4.7 0 0 .1 0 .1-.1h.1c.4-.1.7-.2 1.1-.4 1.3-.5 2.7-1 4-1.6.1 0 .2-.1.3-.1h.1c31.1-11 60.9-24.8 89.8-40.6 20.1-11 39.5-23.2 58.4-36.2.2-.1.4-.2.5-.4 18.4-12.8 36.1-26.5 53.2-41.1 13.3-11.3 26-23.1 38.3-35.4l4.1-4.1c25.6-25.8 48.6-53.9 69.6-83.5 12.6-17.8 24.1-36.3 35-55.3.6-1 1.1-1.9 1.6-2.9.3-.6.6-1.1.8-1.7.1-.1.1-.2.1-.3 3.4-5.8 6.6-11.7 9.7-17.7 2.2-4.2 4.3-8.5 6.4-12.8.8-1.6 1.6-3.3 2.7-4.8.5-.8 1.1-1.7 1.6-2.6.2-.4.5-.8.7-1.2 1.4-2.6 2.7-5.2 3.6-8 .3-1 .6-2.1.8-3.2 3.7-9.7 8.3-19.1 11.9-28.9.6-1.5 1.1-3 1.6-4.6.3-.8.5-1.5.8-2.2 0-.1.1-.2.1-.2.1-.1.1-.3.2-.4.3-.7.5-1.4.8-2.1 10.1-27.2 18.8-54.8 24.9-83.2v-.2-.1c3.2-13.6 6-27.2 8.2-40.9 0-.2.1-.3.1-.5 1-6.1 1.8-12.2 2.5-18.3v-.1c.1-.4.2-.7.2-1.1 1-5.2 1.2-10.5 2.1-15.7.2-.4.5-.9.7-1.4.5-1 .8-2.1 1.1-3.1.5-2.1.8-4.2.8-6.4 0-.5-.1-1.1-.1-1.6 0-.6 0-1.2.2-1.8.2-.8.8-1.5 2.2-1.8-2.4 3.9-.2 8.5-2 12.5zM595 1327c-1.3-1.7-3.8-.3-5.1-1.9-5.7-.1-11.3-1.1-17-2.2-12.5-.9-24.7-3.4-36.9-5.7-27.8-5.2-55.1-12.4-82-21.3-.5-.2-.9-.5-1.3-.7-1.7-1.4-4.2-.4-5.8-2.1-21-6.3-41.2-15.1-61.1-24.2-10.3-4.7-20.3-9.9-30.5-14.9-1.6-.8-3.4-1.4-4.5-3-3.8-1.7-7.7-3.3-11-6-16-7.9-30.8-17.7-45.6-27.5-15.2-10.1-30-20.9-44.3-32.3-1.2-.9-2.1-2.1-3.1-3.1-7.4-4.5-13.5-10.7-20-16.3-6.9-5.9-14.1-11.5-19.9-18.7-2.6-.9-4.2-3.1-5.8-5.2-1.4-.1-1.7-1.2-2.1-2.3-1.7-.8-3-2-3.8-3.8-7.1-4.8-12.1-11.7-17.8-17.8-13-14-25.5-28.4-37.1-43.6-.6-.8-1-1.7-1.5-2.5-8.4-9.3-15.2-19.7-22.3-30-17.5-25.2-33.2-51.4-46.6-79-1.5-.9-2.2-2.3-2-4.1-10.1-19.7-18.6-40-26.4-60.7-10-26.6-18.1-53.7-24.6-81.4-.1-.6-.1-1.3-.1-2-4.6-16.2-7-32.7-9.7-49.3-.8-4.6-1.4-9.2-2.1-13.8-3.6-5.6-.9-12.3-3-18.1-2.1-5.8.2-12.1-2-17.8 1.1.3 1.7.7 2 1.3.7 1.2.2 3 .3 4.3.1 1.5.2 3 .3 4.6.3 4.3.8 8.6 1.3 12.9.5 3.9 1.1 7.8 1.9 11.7 0 .2.1.5.1.8 2.9 11.9 3.8 24.2 6.3 36.2 1.8 8.9 3.5 17.9 5.6 26.7.1.7.3 1.4.5 2.1 3.4 15.6 7.6 30.9 12.4 46.1 3.5 11.1 7.3 22.1 11.3 33.1.6 1.6 1.2 3.3 1.8 4.9 5.9 15.8 12.6 31.2 19.7 46.5.6 1.2 1.2 2.5 1.8 3.8 1.1 2.4 2.3 4.9 3.5 7.3.5 1.6.9 3.3 2 4.6 13.1 25.2 27 50 43.2 73.4 8.2 11.9 16.4 23.9 25.5 35.1.1.1.2.2.2.3.5.6 1 1.3 1.4 1.9 8.7 11.6 18.2 22.6 27.9 33.4 8.5 9.5 17.1 19.1 26.1 28.1l1.2 1.2c.8.8 1.5 1.6 2.3 2.4l.6.6 2.3 2.3c.3.3.5.6.8.8 1.1 1.1 2.1 2.2 3.4 3.1.3.3.7.5 1.1.7.4.2.8.5 1.1.8.2.2.3.3.5.4l1 1c12 11.8 24.8 22.6 38 33.1.7.6 1.4 1.2 2.2 1.7 7.5 6.1 15.1 11.9 22.9 17.6 15.9 11.7 32.4 22.5 49.3 32.8 6 3.6 12 7.1 18.2 10.5l.9.6s.1.1.2.1c3.4 2.2 7.2 3.7 10.7 5.8 1.3.7 2.5 1.4 3.8 2 12.2 6.5 24.6 12.4 37.2 18.1 1.8.8 3.7 1.7 5.6 2.5 15.8 6.9 31.8 13.3 48.3 18.7.2.1.3.1.5.2h.1c2.2.8 4.6.9 6.7 2.1 2.1.8 4.2 1.5 6.3 2.2 14.1 4.8 28.4 8.7 42.8 12.2.4.1.9.2 1.3.3 21.2 5.2 42.7 8.9 64.2 12.4.4.1.7.1 1.1.1.7.1 1.4.1 2.1.1.4 0 .8 0 1.3.1 5.5.8 11 1.6 16.5 2.3.4.2.8.3 1.2.4 1 .2 2.1.2 2.9.6.7.8 1.1 1.4 1.3 2.4z"/>
        <path d="M795 14.1c-.3.3-.7.5-1 .7-1.8.9-3.8.3-5.7-.1-17.1-3.3-34.4-5.7-51.7-7.7-2.7-.4-5.5-.7-8.2-1h-.1c-6.1-.6-12.3-1.1-18.4-1.5-3.6-.2-7.1-.4-10.7-.5-10-.4-19.9-.6-29.9-.6h-8.5c-7.7 0-15.4.1-23.2.1h-5.3c-3.7 0-7.3.2-11 .6-.4 0-.8.1-1.2.1h-.1c-2.2.2-4.4.4-6.6.7-.3 0-.5.1-.8.1-2.2.1-4.4.2-6.5.4h-.1c-6.3.5-12.6 1.1-18.9 1.9-8 1-16.1 2.1-24.1 3.1-3.1.4-6.2 1.1-9.2 1.7-.2 0-.3 0-.5.1-10.7 1.4-21.2 3.5-31.7 5.9l-3 .6c-15.9 3.3-31.5 7.5-47 12.2-.1 0-.2.1-.3.1-2.1.6-4.2 1.2-6.3 1.9-.1 0-.2 0-.3.1-.1 0-.2.1-.4.1s-.3.1-.4.1c-2.3.7-4.6 1.5-6.9 2.2-2.4.8-4.8 1.7-7.3 2.5-1.9.7-3.9 1.4-5.8 2-1.6.5-3.1 1.1-4.7 1.6-.2.1-.4.1-.6.2h-.1l-.9.3c-1.4.5-2.8 1-4.3 1.5s-2.9 1.1-4.4 1.6h-.1c-5.8 2.2-11.6 4.6-17.4 7h-.1c-1.8.7-3.6 1.5-5.4 2.2-.2.1-.4.2-.6.2-.1 0-.2.1-.3.1-1 .4-1.9.8-2.9 1.2-3.7 1.5-7.3 3.1-10.9 4.7h-.1c-1.7.8-3.3 1.9-5.2 1.8-.2 0-.4 0-.6-.1-.4-.1-.8-.2-1.2-.4 5.8-5.1 13.3-7.1 20.2-10 15.2-6.2 30.6-12.2 46.2-17.6 12.8-4.4 25.9-7.7 38.8-11.6 14.4-4.4 29.2-7.1 43.8-10.3 13.4-2.9 27-4.8 40.5-6.8 14.9-2.1 30-2 44.9-4.7 2.4-.4 5-.1 7.5-.2h.2c9.3-1 18.7-.1 28-.5 2-.1 4 .5 5.8-.5h29c.6.3 1.2.9 1.7.9 11.4-.9 22.5 1.5 33.7 2.2 12.9.8 25.7 2.1 38.5 4.3 9.2 1.6 18.5 3.1 27.8 4.5 1.7.8 3.3 1.1 4.3 2.6z" fill="#e5f0f8"/>
        <path class="st3" d="M724 1327H606c-.1-.7.2-1.2.8-1.6 6.1-1.9 12.4-.5 18.6-.9 2-.1 3.9.2 5.9 0 16.5 0 33-.2 49.5.1 4.8-.2 9.7-.3 14.5 0 13.3.8 26.5-1.5 39.8-2 3.4-.2 6.8-.8 10.1-1.5 3.4-.5 6.8-.6 10.1-1.3 2.4-.1 4.8-.5 6.8 1.1.1 2.5-2.1 1.7-3.2 1.8-7.8.7-15.5 2.6-23.3 2.8-3.9.6-7.9.2-11.6 1.5z"/>
        <path d="M1327 615v7c-.3.2-.6.3-.9.3h-.1c-.2 0-.4-.1-.6-.2l-.3-.3c-.1-.1-.2-.2-.3-.4-.3-.4-.6-.9-.8-1.5-1.4-17.8-3.3-35.6-5.9-53.4-.1-.2-.1-.4-.1-.6 0-.2-.1-.4-.1-.7 0-.2 0-.3-.1-.5v-.2c0-.6 0-1.2-.1-1.8-.2-1.2-.5-2.3-.7-3.5-.3-1.5-.5-2.9 0-4.4.1-.3.2-.6.3-.8.2-.4.4-.8.7-1.1 3 6.6 3 13.8 4 20.8 1.9 13.3 3.7 26.6 4.3 40-.1.5.4.9.7 1.3z" fill="#bbd5ee"/>
        <path d="M5.8 750.8c-.2.4-.5.8-.8 1.1-3.6-5.6-.9-12.3-3-18.1-2.1-5.8.2-12.1-2-17.8v-9c1.7 0 2 1.2 2.2 2.3 0 .3 0 .5.1.8.1 1 .2 2 .4 3 .1.8.3 1.5.5 2.3.7 10.2 2.4 20.3 3.2 30.5 0 1.7.2 3.4-.6 4.9z" fill="#c1ebe6"/>
        <path d="M1327 640v51c-.7.3-1.2.1-1.6-.5-1.1-2-.9-4.2-.9-6.3 0-11.4-.1-22.9 0-34.3.3-2.3 0-4.7.2-7.1.1-.9.3-1.7.8-2.4.4-.6.9-.7 1.5-.4z" fill="#3888d2"/>
        <path d="M2.6 685.6c0 1.7-.1 3.3-.9 4.8-.2.3-.4.5-.6.6-.3.1-.6.1-1-.1v-51c.4-.2.7-.2 1-.1.2.1.5.3.6.6.9 1.5.9 3.2.9 4.8v40.4z" fill="#36beb0"/>
        <path d="M3.4 624.8c0 1.8-.2 3.7-1.7 5-.2.2-.4.2-.6.3H1c-.3.1-.7 0-1-.2v-8c1.3-2.2-.1-4.7.9-6.9 0-.1.1-.1.1-.2.2-5.8.1-11.5 1.9-17.1.2.1.3.3.4.4.2.2.3.4.5.7.1.1.1.2.2.4.5 1.2.3 2.5.5 3.7-.6 7.4-1.3 14.6-1.1 21.9z" fill="#90dad3"/>
        <path d="M1327 721c-2.2 3.9 0 8.5-1.8 12.5-.5 1.2-.6 2.6-1.7 3.5-.3-.4-.5-.9-.7-1.3-1.2-2.9 0-5.9.2-8.9.2-2.2.6-4.5.9-6.8.2-.5.3-.9.4-1.4.3-1.6.2-3.3.4-5 .1-.8 0-1.7.3-2.4s.8-1.2 2-1.3V721z" fill="#e7f0f9"/>
        <path d="M660 0c-1.3 1.5-3.1 1-4.7 1H626V0h34z" fill="#f1f7fb"/>
        <path d="M2.6 713.1c-.2.7-.4 1.3-.7 1.9-2-2.4.4-5.8-1.9-8.1v-16h1v.1c2.3 7.4 3.9 14.7 1.6 22.1z" fill="#66cdc2"/>
        <path d="M606 1327h-11c-1.3-1.7-3.8-.3-5.1-1.9.3-.2.6-.5 1-.7 2.8-1.6 6-.7 9-.6 1.5.5 3 .7 4.5 1.2.3.1.5.2.8.3.1 0 .1.1.2.1 0 .1.1.1.2.2s.2.2.3.4c0 0 0 .1.1.1V1327z" fill="#78c7da"/>
        <path d="M1326 691h1v10c-1.1 1.9-.2 4.1-.5 6.1-.1 1 .2 2.5-1.8 1.8-1.8-2.8-.9-5.8-.9-8.7 1-3 0-6.5 2.2-9.2z" fill="#68a5de"/>
        <path d="M1325 709c2.3-2.3-.4-5.8 2-8v9c-2.2 3 .2 7-2 10-2.1-3.6-2.1-7.3 0-11z" fill="#97c0e8"/>
        <path d="M1327 640h-1c-2.4-2.7-.7-6.4-2.1-9.3-.2-3.3-1.3-6.7 1.2-9.7.3.4.6.7.9 1.1 1.4 2.5-.4 5.4 1 8v9.9z" fill="#64a1db"/>
        <path d="M735.4 1325.5v.2c-.1.2-.2.3-.3.3-.8.1-1.6.2-2 1h-9c3.2-2.5 6.8-2 10.4-1.9h.6c.1.1.2.3.3.4z" fill="#a5d5ec"/>
        <path d="M1 639.9c-.3 0-.7 0-1 .1v-10h1s0 .1.1.1c2 3.3 2 6.6-.1 9.8z" fill="#64ccc2"/>
        <path d="M1327 630c-2-2.4-.6-5.3-1-8h1v8z" fill="#91bce5"/>
        <path d="M0 622v-7c.3 0 .6 0 1-.1v.2c-.3 2.3.8 4.8-1 6.9z" fill="#bae8e4"/>
        <path class="st20" d="M1281.9 425.6c-2.5-5.8-4.8-11.6-7.1-17.5-3.3-8.4-7.8-16.4-10.6-25-.1-.2-.2-.4-.2-.7-.1-.2-.1-.4-.2-.6-2.3-6.6-6.1-12.4-8.9-18.8-11.8-22.3-24.3-44.3-38.4-65.2-9.3-13.8-18.4-27.6-29.4-40.1l-.5.5s-.1.1-.1.2v.1c-.1.2-.1.3-.1.5 1.5 5.1 5.4 8.7 8.4 12.8.1.2.3.4.4.6l.6.9c16 21.6 30.3 44.2 43.5 67.6 1.4 2.5 1.2 4-2 3.4-3.9-.7-8-.6-11.9-1.2-23.5-3.9-46.8-9-70.4-11.9-25.4-3.2-50.6-8.5-75.9-12.2-31.6-4.7-63.1-9.9-94.7-15.2-2.6-.4-5.8-1.5-7.2 1.4-1.3 2.8 2 4.1 3.5 5.9 3.4 3.9 7.8 6.9 11.7 10.3-.7-.3-1.6-.5-2.6-.3V321.4c-.2 2.2 1.6 3.3 2.8 4.6 4.7 4.9 9.4 9.8 14.2 14.6 6 6 10.6 13.2 17.3 18.5 1.3 1.1 2.5 2.2 3.7 3.4 3.9 4 7.1 8.5 10.4 12.9.9 1.2 1.9 2.5 2.8 3.7l5.1 6.9c.1.1.2.3.3.4 5 6.9 9.8 14 14.6 21.1.9 1.3 1.5 3.3 3.2 3.7.2.1.4.1.7.1h.1c.3 0 .7-.1 1.1-.2 1.5-2.7-.4-4.7-1.5-6.9-1.2-2.2-3.2-4-3.9-7 12 .6 23.1 3.5 34.3 5.4 9.2 1.5 18.2 3.9 27.5 4.8 13.2 1.3 26.4 3.4 39.4 6 16.6 3.3 33.4 5.4 50.2 8 9.8 1.5 19.7 3.1 29.4 5.2 11.9 2.5 24 3.1 36 5.4 3 .6 4.9-.7 5.1-3 0-1.2-.2-2.2-.7-3.4zM998 326.9c-.1 0-.1-.1-.1-.1-.1 0-.1-.1-.2-.2-.7-.7-1.3-1.5-2-2.4.6.6 1.1 1.2 1.7 1.8.1.2.3.5.5.7 0 .1 0 .1.1.2.7.7 1.6 1.1 2.3 1.8-.8-.5-1.5-1.1-2.3-1.8z"/>
        <path class="st21" d="M1307.5 509.5c-.1.1-.2.1-.3.2-.1.1-.2.1-.3.2-4.3 2.8-9 .6-13.3 0-14.8-2.2-29.4-5-44.2-7.6-21.1-3.6-42.4-6.1-63.4-10.3-12.8-2.6-25.8-4.9-38.9-5.8-8.6-.6-17-2.8-25.5-4.5-4.4-.9-8.9-1-13.2-2.4-2.1-.7-3.5.4-4.5 2.2l-.9.6h-.1c-.6.3-1.1.3-1.5.2-1.1-.4-1.5-2.1-1.9-3.2-4.5-10.9-9.9-21.3-15.3-31.8-2.8-5.6-5.9-11-8.9-16.5l-.3-.6c-.8-1.5-1.8-3-2.6-4.5 0 0 0-.1-.1-.1-.8-1.4-1.5-2.9-1.9-4.5 0-.2-.1-.3-.1-.5-.1-.5-.2-1.1-.3-1.6-.6-2.2-1.8-4-3.6-5.5l-.9-.6-.1-.1c-.3-.2-.5-.5-.6-.8-.1-.2-.1-.5 0-.8v-.1c2.1-1.8.3-3.4-.6-4.8-2.2-3.5-4.6-6.8-7.2-10.6 4.4-1.1 8.4.2 12.3.7 9 1.1 17.8 3.5 26.7 4.9 9.9 1.5 19.7 4 29.7 5 9.3.9 18.6 2.8 27.8 4.3 9.1 1.5 18.3 2.5 27.2 4.8 9.3 2.4 19 2.4 28.4 4.1 9.5 1.8 19.1 3.7 28.8 4.8 4.2.5 8.6 1.2 12.6 2.4 8.8 2.5 18.3.8 26.8 4.3 1.4.6 2.7-.1 3.6-1.1 1.3-1.3.5-2.6-.1-4.1-5.6-14.1-11.5-28-17.9-41.7-.3-.5-.1-1.3-.1-2h.7c.8.2.6 1.3 1 1.9.1.1.1.2.3.3 7.7 17 15.5 33.9 21.1 51.7 3.1 10.8 7.2 21.2 10.5 31.9.8 2.6 1.2 5.4 2 8 .1.4.3.8.4 1.1.2.4.4.8.6 1.3 2.9 10.3 6.6 20.5 7.9 31.2.2-.2.2-.1.2 0z"/>
        <path d="M834.1 23.9c-.2.3-.4.5-.7.6-.1.1-.2.1-.3.2l-.9.3h-.1c-3.1-.6-4.8.7-5.9 3.7-11.1 28.8-25.3 56-42.4 81.7-.2.2-.3.5-.5.7-.5.8-1.1 1.5-1.6 2.2-10.6 15-21 30.1-32.7 44.3-3.6 4.3-7.1 8.7-11 12.8-1.5 1.5-2.9 3.1-4.9 4-.2.1-.3.1-.5.2s-.4.1-.6.1c-2.5-.2-4.9-1-7.1-2.2-.9-.5-1.5-1.4-1.4-2.5.1-1.2 1.1-1.6 2.2-1.5 3.4.4 3.8-1.8 3.8-4.4 0-3.3.6-6.2 3.3-8.5 2.8-2.5 1.6-5.5.8-8.4-3-10.9-6.3-21.8-8.5-32.8-2.6-12.7-6.2-25.1-8.2-38-1.2-7.9-3.1-15.6-6.5-23-3-6.4-2.7-13.7-4.6-20.4-.6-2.2 1-3.6 2.9-4.7 5.4-2.9 3.8-8.1 3.6-12.5-.1-3.7-3.8-4.6-7-5.3-2.2-.5-4.7-.5-6.3-2.5-.8-1-1.2-2.1-.7-3.3.2-.4.4-.6.6-.8.5-.3 1.1-.3 1.8-.2 12.1.5 24.1 1.5 36.2 2.2 5.6.4 11.2 1 16.7 1.7 7.4 1 14.8 2.2 22.2 3.4.1 0 .2 0 .4.1 2.4.4 4.8.8 7.2 1.3 2.6.5 5.1.8 7.7 1.2 1.2.2 2.3.3 3.5.5 11.2 2.6 22.4 5.3 33.6 7.9 2.3.4 4.3.7 5.9 1.9z" fill="#2d89d5"/>
        <path d="M1196 272c-.3.2-.5.3-.8.4-3.1 1.4-6.4.3-9.4-.2-9-1.7-18-3.2-26.9-4.9-8.1-1.6-16.3-3.3-24.6-3.7-10.4-.4-20.3-3.3-30.4-4.9-12.4-2-24.8-4.7-37.3-6.2-11-1.3-21.9-3.4-32.9-5.2-9.3-1.5-18.4-4.5-28-4.1-1.5.1-3.5.2-3.7-2.3.1-.2.3-.5.4-.7.1-.1.2-.3.3-.4 2.4-3.4 6.2-5.2 9.6-7.4.7-.3 1.4-.6 2.1-1 1.3-.7 2.5-1.5 3.6-2.5.4-.4.9-.9 1.3-1.4.4-.5 1-.9 1.6-1.2.5-.2 1-.4 1.5-.7 1.1-.5 2.2-1.2 3.1-2 .3-.2.5-.4.8-.7.3-.3.7-.5 1.1-.8.3-.2.6-.3.8-.5.8-.6 1.6-1.3 2.2-2 .4-.5.8-1 1.1-1.5 8.8-7.8 18.3-14.8 27.2-22.5 11.3-9.8 22.4-19.8 32.1-31.1.4-.5.9-.9 1.4-1.2 0 0 .1 0 .1-.1.2-.2.4-.4.6-.5.6-.5 1.2-.7 1.7-.7 1.9 0 3 2.7 4.8 3 8.8 6.3 16.2 14.1 24.1 21.5 11.2 10.6 22.2 21.3 31.8 33.4 4.9 6.4 10.4 12.3 15.7 18.4 2.8 3.2 4.9 7 8.3 9.7 1.8 3.9 5.6 6.5 7.5 10.4.1.2.2.5.3.7l.1.1c2.8 4.2 5.8 8.5 8.8 12.8z" fill="#226eb4"/>
        <path d="M1099.2 164.9c-.9.5-1.6-.1-2.4-.7-.2-.1-.3-.3-.5-.4-1-.9-2-1.6-3.4.2-.3-.3-.6-.6-.9-.8-24.6-21.6-51.1-40.6-78.7-58.1-8.4-5.3-17.4-9.7-25.7-15.2-.1-.1-.3-.2-.4-.3-1.9-1.6-4.2-2.4-6.4-3.6-.1 0-.2-.1-.2-.1-.6-.3-1.2-.7-1.8-1.1 0 0-.1 0-.1-.1-24.1-13-48.6-24.9-74.1-34.8-.1 0-.1 0-.2-.1-.5-.2-.9-.4-1.4-.6-21.7-8.8-43.9-16-66.5-22.3-1.5-.4-3.5-.3-4.3-2-.1-.2-.2-.4-.2-.6 0-.1-.1-.2-.1-.3.7-.1 1.4-.1 2.1-.2 11.9 2.1 23.3 6.1 34.8 9.8 20.1 6.4 39.7 14 59 22.3 2.3 1.1 4.7 1.9 6.9 3.2.5.8 1.2.9 2 .9 2.5.7 4.7 2 7.1 2.9 29.7 14.3 58.4 30.1 85.9 48.4 23.4 15.5 45.8 32.5 67.1 50.9 1 .9 1.7 1.8 2.4 2.7z" fill="#307abf"/>
        <path class="st25" d="M1319 565c-.5-.1-.9-.2-1.3-.4-1.7-.8-1.7-2.8-1.9-4.4-1.4-13.2-5.1-26-7.5-38.9-.7-3.8-1.6-7.5-1.4-11.4 0-.3 0-.6.1-.8-2-10.5-5-20.8-8-31-.2-.5-.4-1-.5-1.4v-.2c0-.3.1-.5.1-.8.1-.3.3-.5.5-.8 4.9 12.6 7.7 25.7 10.8 38.8 3.1 13.1 5.4 26.3 8.1 39.5-.2 1.2-.2 2.3-.1 3.4.2 1.4.5 2.7.8 4.1v.1c.2 1 .4 1.9.4 2.9 0 .3 0 .8-.1 1.3z"/>
        <path class="st26" d="M1299.1 474.8c0 .7-.1 1.3-.1 1.9 0 .4 0 .8-.1 1.2v.1c-.2-.5-.3-.9-.5-1.4-4.1-12.5-8.2-25-12.3-37.4-.1-.2-.1-.4-.1-.5-.1-.9 0-1.9 0-2.9 5.5 12.6 9.9 25.6 13.1 39z"/>
        <path class="st27" d="M1179.2 247.9c-.6-.2-1.1-.3-1.6-.6-3.5-1.8-4.6-5.8-7.1-8.5-5.1-5.2-9.7-10.9-14.5-16.4-.3-.4-.6-.8-.7-1.2-.2-.5-.2-1-.2-1.5 8.8 8.7 16.8 18.1 24.1 28.2z"/>
        <path d="M1265 384l-.3-.3c-.2-.2-.4-.4-.5-.6-.3-.3-.6-.6-.8-.9l-.3-.3c-2.1-4.5-4.2-8.9-6.2-13.3-.1-.2-.1-.3-.2-.5-.7-1.6-2-3-1.7-5 4.1 6.6 8 13.3 10 20.9z" fill="#a1c3e2"/>
        <path class="st27" d="M1187.1 257.7c-.1.4-.1.8-.2 1.3-.1-.2-.3-.4-.4-.6-.2-.3-.5-.6-.7-.9-2.1-2.5-4.9-4.5-6.1-7.6-.3-.6-.4-1.3-.6-2 3.3 2.8 5.8 6.2 8 9.8z"/>
        <path class="st29" d="M944 63.1c-.8 0-1.6-.2-2.3-.4-.9-.3-1.8-.7-2.6-1.1-.7-.4-1.4-.9-2.1-1.4 2.8-.4 5 1.1 7 2.9zM934.9 59.2c-.8-.1-1.7-.3-2.4-.6-.8-.2-1.5-.6-2.2-1-.8-.4-1.5-1-2.2-1.6 2.6.1 5 .9 6.8 3.2z"/>
        <path class="st30" d="M63.5 947.1c-2-.8-2.5-3.8-3.3-5.7-9.1-20.8-17.8-41.8-25-63.3-5.3-15.7-9.7-31.6-14.4-47.4-1.5-5.2-2.1-10.6-4-15.7-4.6-16.2-7-32.7-9.7-49.3-.8-4.6-1.4-9.2-2.1-13.8-.4-4.3-.7-8.6-1.1-12.8-.4-4.1-.7-8.2-1.2-12.2 0-.2-.1-.4-.1-.7-.3-3-.5-5.9-.6-8.9 0-.8-.1-1.5-.1-2.3.2-1.9.3-3.8.2-5.8-.1-6-1.2-12-1.1-18.1v-.1-51c0-3.2 0-6.5.1-9.8v-.2c1.4-2.8.9-5.8.9-8.8 0-6.1.6-12.1 1.2-18.1v-.1c0-1.6.1-3.3.2-4.9.5-7.1 1.5-14.1 2.2-21.2.5-5.3 1.5-10.5 2.4-15.6 1-6.2 1.8-12.3 3.1-18.5 2.5-15.1 6-30 9.8-44.8 3.5-14 7.7-28 12.1-42h.5c.2 0 .3 0 .5.1.1 0 .2.1.2.2v.4l-.2.6c-.2 4.9-3.1 9-4.1 13.7-1.6 7.5-3.9 14.9-6.3 22.2-.6 1.9-1.2 3.8-1.7 5.7-.7 2.6-1.3 5.2-2 7.7-1.6 6.7-3.2 13.5-4.5 20.2-1.1 5.5-2.4 11-3.6 16.5-.5 2.4-1 4.8-1.4 7.2-.4 3.3-1.1 6.6-1.7 9.9-.6 3.7-1.2 7.4-1.7 11.1-.5 4.2-1.1 8.4-1.7 12.5 0 .2 0 .4-.1.6-.5 4.4-.9 8.7-1.3 13.1v1.4c.5 1.2.3 2.5.5 3.7-.5 7.3-1.2 14.5-1 21.8 0 1.8-.2 3.7-1.7 5-.2.2-.4.2-.6.3 2 3.3 2 6.5-.1 9.8.2.1.5.3.6.6.9 1.5.9 3.2.9 4.8.1 13.4.1 26.8 0 40.3 0 1.7-.1 3.3-.9 4.8-.2.3-.4.5-.6.6 2.3 7.3 3.9 14.6 1.6 22.1.1.8.3 1.5.5 2.3.7 10.2 2.4 20.3 3.2 30.5.1 1.7.3 3.4-.4 4.9 0 .2.1.5.1.8 2.9 11.9 3.8 24.2 6.3 36.2 1.8 8.9 3.5 17.9 5.6 26.7.1.7.3 1.4.5 2.1 1.9 2.8 1.5 6.5 2.2 9.4 3 12.3 6.5 24.5 10.2 36.7 3.5 11.1 7.3 22.1 11.3 33.1.6 1.6 1.2 3.3 1.8 4.9 5.8 15.9 12.5 31.4 19.6 46.6z"/>
        <path class="st31" d="M359 298.7c-13.9 11.9-27.9 23.7-40.4 37-13.8 14.8-27.3 30-39.2 46.4-1.5 2-3.1 3.9-5.2 5.3-1.1 1-2.1 2-3 3.1-2.8 3.5-4.8 7.7-7.8 11.2-.6.7-1 1.7-1.8 2.4-.3.3-.7.6-1 .8-.4.2-.8.3-1.2.2-.1 0-.2-.1-.3-.2-1-.6-1.2-2-.6-2.7 3.9-4.2 1.8-8.4.1-12.6-.3-.8-.2-1.7-.5-2.4-4.3-9.7-4.2-20-4.4-30.3 0-1.7-.1-3.3-.8-4.9-4.5-11.3-6.6-23.3-10.8-34.7-2.2-6.1-.2-8.3 6.4-7.3.3 0 .7.1 1 .2 1.7.3 3.6 1.8 5.1.1 1.8-2 .5-4.1-.4-6 0-.1-.1-.2-.1-.3-.2-.4-.4-.9-.5-1.3-1-2.8-1.6-5.7-2.2-8.5-.2-.9-.4-1.8-.6-2.8-.2-.8-.4-1.5-.6-2.3-.4-2.9-.9-5.8-.8-8.8 0-.2.1-.4.1-.6.5-2.1 1.7-3.9 4-4.5 2.6-.7 3.2-2.4 3.3-4.8.2-4.5-.8-8.7-2.8-12.5-1.8-3.5-2.3-6.8-1.5-10.6.4-1.8.3-3.7.2-5.5-.1-6.2-1.1-7.3-7.4-8.3-4.4-.7-5.9-2.5-5.1-6.8.8-4.1.8-8.7 4.7-11.7 1.7-1.3 1.3-3.3.9-5.1-.8-3.9-2.1-7.7-3.1-11.6-.7-2.4-.9-4.9-1-7.4-.1-3.8 1.3-6.2 5.5-6 3.6.2 4.2-1.6 3.5-4.7-1.2-5.9-3.3-11.5-4.8-17.3-1.8-7.2.5-9.8 7.7-8.8 5.1.7 5.1.7 5.2-4.6 0-1-.1-2 .1-3 .7-3.3-.9-3.7-3.5-2.8-.2 0-.5-.1-.7-.2-.2-.1-.3-.2-.5-.3-.1-.1-.2-.1-.2-.2 7.8-7.3 16.6-13.3 25.3-19.4 12.9-9.1 25.7-18.4 39.8-25.7.1.4.1.7.1 1 0 1.8-1.8 2.6-3.2 3.5-5.2 3.6-10.4 7.2-15.9 10.4-2.4 1.4-3 2.7-1.5 5.5 3.4 6.3 5.8 13.1 5.7 20.4-.1 6-1.7 7.3-7.7 6.4-1.4-.2-2.8-.9-5-.1 10.7 1.7 9.9 9.4 9.7 16.9-.3 8.9-.2 8.9 8.2 10 3 .4 5.5 1.6 7.1 4.1 3.7 5.7 4.2 12.2 4.2 18.7 0 2.8-2.1 4.6-5 4.5-4.9-.2-5.8 2.5-5.6 6.7.2 4.6 1.9 8.8 3.1 13 1 3.4 1.2 6.6-1.5 9.3-1.5 1.5-1.6 3.2-1 5.1 2.1 6.5 3.2 13.2 4.2 20 .8 4.8 2.7 8.9 6.7 11.8 2.5 1.8 3.5 4.3 3.4 7.4 0 2.7.1 5.3 0 8-.1 4.5-.6 9.1 5.2 10.9 1.2.4 2.2 1.9 2.2 3.2.2 6.6 3 12.9 3 19.4 6.3-6.2 13.6-12 20.7-18 1.3-1.2 2.8-2.5 4.8-2.3.2.3.4.5.5.8 0 .1.1.2.1.2 1.1 2-1.3 2.9-2.6 4z"/>
        <path class="st32" d="M396.3 77.8c-.2 3.6-1.4 6.6-5.4 7.4-3.1.6-3.5 2.6-2.9 5.2.6 2.4 1.2 4.8 1.8 7.3.7 3.2.3 5.8-1.7 8.9-1 1.6-1.8 3.2-2.8 4.7 0 .1-.1.1-.1.2-.9 1.4-2 2.6-3.7 3.6-2.3 1.5-1.2 5-.2 7.5 1.8 4.5 3.2 9.1 4.4 13.8 1.3 5.1.3 6.7-5 7.6-4.2.8-3.2 4-3.3 6.6-.5 10 .1 20 .9 30 .4 5.1.5 10.1-6 12.2-2.1.6-1.5 2.8-1 4.4 2.6 7.4 3.4 15.3 5.8 22.7 1.1 3.2 1.2 6.5 1 9.9-.2 4-1.4 7.2-5.8 8.2-2.7.6-3.2 2.5-3 4.9.3 3.2 1.2 6.2 2.7 9 2 3.7 3.3 7.7 3.8 11.8.5 4.5-1.2 6.6-5.5 5.9-3.5-.5-4.1.9-4.1 3.7 0 2.3 0 4.7-.3 7-.1.9-.7 2.1.5 2.7 1 .5 1.9-.4 2.7-1 4-3 8.1-5.9 12.4-8.4 1.2-.7 2.3-1.4 3.5-1.9 1.2-.5 2.8-1.1 3.6.3.8 1.4-.4 2.6-1.4 3.3-4 3-8.2 5.7-12 8.9-2.8 2.3-6.1 4.1-8.8 6.5-.8.7-1.5 1.4-2.1 2.2l-.4.4c-.5.4-1 .6-1.7.6-.2.1-.3.1-.5.2-6.3 2.3-10.1 7.8-15.1 11.7-4.7 3.7-9 7.9-14 11.6 2.8-2.9 2.1-6.3 1.3-9.3-1.2-4.2-2.1-8.3-2-12.7 0-2.6-1.9-4.3-4.5-4.5-2.9-.3-3.4-2.1-3.4-4.5.1-2.8-.1-5.7 0-8.5.3-5.8.3-10.9-5.7-14.6-4-2.4-4.4-7.7-4.9-12.1-.8-6.8-2.5-13.3-4.4-19.8-.5-1.6-.6-2.8 1.2-3.7 3.5-1.9 3.2-4.9 2.1-8.2-1.7-5.3-3.6-10.5-3.4-16.4.1-3.8 1.1-5.4 5.2-5.3 5.6.1 6.5-1.4 5.4-7-.7-3.2-.8-6.6-1.7-9.8-1.6-6.1-4.4-8.1-10.8-8.2-7.9 0-7.8-.1-7.2-8.1.3-4 .2-8 0-12-.1-4.8-4.2-4.8-7.4-5.9-1.5-.5-3.8-.6-3.2-2.9.5-1.8 2.3-2 4.2-1.4 2.9.9 6.9 3.1 8.8.3 1.9-3 1.5-7.5 0-11.1-2.2-5.3-1.9-11.7-7.2-15.8-1.6-1.2.9-2.4 2-3.1 6.4-4.2 12.8-8.4 19.2-12.5.3-.2.6-.3.8-.5.8-.5 1.7-1.1 1.9-2.2 7.5-5.4 15.5-9.9 23.8-13.8 9.8-4.8 19.5-9.9 29.3-14.7 3.8-1.9 7.6-3.8 11.5-5.5.7-.3 1.5-.7 2.2-1 1-.5 2-.9 3-1.3.9-.4 1.7-.6 2.3-.6.9.1 1.5.6 2 1.9 1.8 5 3.6 9.9 3.3 15.2z"/>
        <path d="M192.7 414.9c.4 4.8-.8 6.2-5.5 5.8-3.7-.4-6.6-.1-7.4 4.4-.3 1.9-2 2.5-3.9 2-3.4-.9-7-1.4-7.9-5.7-.5-2.3-.3-4.6-.3-7 0-2.3.1-4.7-.1-7-.2-2-1-3.6-3.3-3.6-2.2 0-3.5 1.3-3.6 3.4-.3 5.1-.7 10.3.7 15.4 2.9 10.6 6.1 21.1 8 31.9.2 1 .5 1.9.6 2.9.1 1.5.3 3.2-1.4 3.9-1.9.7-3.1-.8-4-2.2-.9-1.4-1.3-3.1-1.8-4.6-2.5-7.5-7.1-10.2-15.1-8.8-.4.1-.8.2-1.1.3-.1 0-.2 0-.3.1h-.1c-4.4 0-5.9-2.9-6.2-6.8-.3-3.7-.1-7.3-.1-11 0-3.3-1.3-5.6-4.6-6.1-9.1-1.5-12-8.4-13-16.1-.7-5-1.9-9.7-3.1-14.6-3.5-13.5-6-27.3-9.2-40.8-1-4.1-3.2-7.7-3.7-11.9-.4-3.9.3-6.6 4.8-7 3.8-.4 5-2.9 4.5-6.4-.5-3.1-.4-5.5 2.8-7.7 4-2.9 1.6-11.3-3.2-12.8-4.1-1.2-5.6-2-5.2-3.8.2-1 1-2.3 2.2-4.3 2-3.2 4.5-6.2 6.2-9.6 8.6-14.2 19.1-27 29.5-39.9 6.1-7.6 12-15.4 19.1-22.2.9-.5 1.5-1.3 2.5-1.5.4-.1.8-.1 1.3.1.1 0 .2.1.4.2 1.5.7 2.2 2.1 2.6 3.6 3.6 14.6 10.2 28.3 10.4 43.8.1 6.2 2.9 12.2 4.6 18.2.6 2.2 1.2 4.5 1 6.8 0 .2-.1.5-.1.7-.2 1.3-.7 2.5-2 2.9-3.8 1.1-3.8 4-3.8 7.1.1 5.1-.3 10.3 1 15.4.4 1.6.5 3.3 0 4.9-1.2 4.1-.5 7.4 2.9 10.2 1.8 1.4 2.3 3.7 2.1 5.9-1 9.3 3.1 17.9 3.9 26.8.7 7 .8 14.5-3.8 20.7-1.2 1.7-1.2 3.3-.9 5.2.7 3.6 1.4 7.2 2.6 10.6l.6 2.1c.1.5.2 1.1.3 1.7-.2 1.3-.1 2.9.1 4.4z" fill="#2ba3bb"/>
        <path class="st34" d="M147 457.1c-.2 1.9-1.6 2.9-3.4 3.1-3.4.3-3.9 2.5-3.7 5.2-.2.5-.4 1-.6 1.3-.1.2-.2.3-.3.4-1.3 1.5-3.4.7-5.2.2-2.6-.8-4.1-.4-4.8 2.5-.8 3.5-3.8 4.3-6.7 5.2-3.4 1-5.9 2.3-6.3 6.5-.4 3.5-3.3 5.3-6.9 5.3-3.7 0-7.4-3.3-8.2-6.9-.4-1.9.3-4.1-1.9-5.7-1.3 1.8-.6 3.5-.1 5.1 1.7 5.1 2.2 10.4 2.9 15.7.6 4.5-.7 5.9-5.1 5.6-3-.2-5.4.2-7.9 2.2-3.7 3.1-6.9 2.2-9.3-2.2-2.2-4-2.6-8.6-4-12.8-.5-1.5-.5-3.3-2.2-4.6-2.6 1.6-2.2 5.1-4.2 7H69c-3.4-1.1-3.5-4.5-4.4-7-6.6-18.6-12.2-37.5-17.3-56.6-.4-1.5-.4-3-.5-4.5 0-.6-.1-1.2-.3-1.9 7.7-21 17.2-41.1 27.5-60.8 12.3-23.8 26.1-46.7 41.2-68.9.8-1.2 1.4-2.7 2.9-3.4 0 .7-.1 1.3-.3 2-.9 3-3.7 5.1-5.2 7.8-3 5.3-3.3 5.2 2.5 6.4 5.2 1.1 8.8 11.4 5.4 15.6-.4.5-1.1 1-1.6.9-4.3-.8-2.7 2.2-2.4 4 1.3 7.1.6 8.4-6.7 9.3-2.2.3-2.9 1.3-2.7 3.2.2 2.1.4 4.4 1.1 6.3 5 13.5 6.7 27.8 10.2 41.6 2.4 9.7 4.3 19.4 6.9 29 1.3 4.9 5.5 6.5 9.8 7.2 4.8.8 6.4 3.3 6 7.9-.3 3.5 0 7-.1 10.5 0 3.5 1.3 5.8 5 6.2.2.2.3.5.4.8 1.9 3.6 1 7.5.6 11.3z"/>
        <path class="st35" d="M499.9 217.1c0-.1 0-.3-.1-.4-.7-.4-1.4-.6-2.1-.6-1.7-.1-3.4.8-5 1.4-11 4.1-22 8.5-32.6 13.5-10.5 5-21.6 9.2-31.1 16.3-.2.1-.3.3-.5.4-.1 0-.2.1-.2.1-.4.2-.8.5-1.2.7.4-.2.8-.5 1.2-.8.1 0 .2-.1.3-.2.1-.1.3-.2.4-.3 2.3-1.6 2.5-4.2 2.3-6.7-.3-3.6.5-5.9 4.7-6.6 3.9-.6 5.3-3.6 4.8-7.5-.3-2-1.2-3.8-1.5-5.8-1.1-7-6-13.7-1.8-21.2.5-.9-.1-2-.3-2.9-1.9-8.5-5.1-16.5-7.2-24.9-.4-1.8-1.5-3.2-3.2-3.5-6.2-1.1-7.5-5.9-8.6-10.9-1.2-5.1-.7-5.8 4.8-5.5 4.7.2 5.9-.9 6.3-5.5.2-2.3-.1-4.6.8-6.9 3.7-9.2.7-14.4-9-15.6-2.2-.3-4.8-.4-5.5-2.8-1.5-5.6-4.7-10.9-4.9-16.6-.5-11.8-4.2-22.8-6.5-34.1-1.1-5.1-4.3-10.5.7-15.2l.3-.3c-.1-.1-.2-.3-.2-.5 0-.1-.1-.2-.1-.3-4.8 1.9-9.5 3.8-14.3 5.7h-.1c-2.2.9-4.3 1.7-6.5 2.6-1.5.8-2.9 1.6-4.3 2.4-12.4 6.3-25.2 11.7-36.9 19.4.9.1 1.7 0 2.5-.3 2-.6 3.7-2 5.6-2.9 12.7-6.2 25.3-12.4 38-18.6 1.1-.5 2.5-1.7 3.1.6 1.2 5.1 3.6 10 3.1 15.5-.2 2.4-.7 5.5-3.3 5.5-7.6 0-5.7 4.4-4.7 8.7.5 1.9 1.1 3.8 1.5 5.8.5 2.8 1.8 5.9-2.4 7.5-1.2.4-1.4 1.9-1 3.1.4 1.1.5 2 .2 2.5 0 .1-.1.1-.1.2-.4.4-1.2.6-2.3.6-1.9 0-3.3 1.2-3.6 2.9-.5 2.6-.7 5.3.7 7.8 2.5 4.7 3.5 10 4.9 15 .7 2.5 1.1 6.2-4 4.6-3.6-1.1-4.7 1.5-4.8 4.5-.2 5.3 1.8 10.7-.9 15.9-.5 1-.4 2.8.1 3.9 3.1 6 1.3 12.5 1.8 18.7.2 2.8-.7 5.2-3.9 5.4-4.7.3-4.3 2.7-3.3 6.1 2.5 8.6 4.9 17.2 6.9 25.9.8 3.7 1 7.7-.7 11.3-1.2 2.7-4 2.5-6.4 2.9-1.5.3-1.7 1.5-1.7 2.7.1 2.2 0 4.3.5 6.4 1.2 5.9 5.7 10.5 6 16.7.1 1.8 1 3.7-.4 5.2-1.6 1.6-3.4.8-5-.1-3-1.5-4-.2-4 2.7-.1 3 0 6-.2 9-.1 2-2.2 4.5.2 5.8 2.1 1.1 3.7-1.7 5.5-2.6.4-.2.7-.7 1.1-1 5.2-3.8 10.5-7.2 16.5-9.6-.2.9-.5 1.6-1.1 2-6.2 4.5-12.3 9-18.5 13.4-2.2 1.5-4.4 3-5.4 5.6.3.1.6.1.8.2 2.5.2 4-1.7 5.7-3 9.1-7.3 18.6-14 28.4-20.4 31-20.4 63.8-37.3 98.7-50 1.4-.5 3.4-.7 3.2-2.9-.2 0-.2-.1-.2-.1zM427 248.4c-.1 0-.2.1-.2.1s.1 0 .2-.1zm-4.8 2.2c1-.5 2-.9 3-1.3-.9.5-1.9.9-3 1.3z"/>
        <path class="st36" d="M210.3 1143.8c-1.9-8.5-5.9-16.5-6.9-25.2-.9-7.9-3.7-15.3-6-22.9-.4-1.2-.5-2.6-.4-3.9.3-8.2 1.9-16.3 3.6-24.3 1.2-5.4 1.4-11.1 2-16.6 1.3-12 3.5-24.3.4-36.4-1.7-6.5-2.9-13.2-5.2-19.5-2.6-7.2-4.5-14.5-5.6-22-.5-3.8-1.2-7.9-2.7-10.9-4.4-9.1-3.3-18.5-3.5-27.9-.1-6.3-1.3-13 .3-18.9 2.6-9.6 1-19.2 1.6-28.7.2-3.8-.2-7.4-1.6-11.2-2.9-7.6-.5-15.4.9-23 1-5.5 1.4-11.1 2.5-16.6.8-4 .4-8.2 1.8-12.2 1.4-4.3-1-7.9-5.2-8.4-2.6-.3-3.4-1.6-3.4-4 0-4.2-.1-8.3 0-12.5.1-2.9-.7-5.4-1.7-8.2-2.1-5.9.2-12 .1-18.1 0-1.3.6-2.6.5-3.9-.6-8.9 2.2-17.2 4.6-25.6.5-1.6 0-2.9-.2-4.4-1.2-7.8-2.3-15.7-3.4-23.5-1.6-3-1.6-6 0-9-.7-3-1.3-6-2-9-2-2.7-.8-5.8-.9-8.6-.2-6.5-.1-12.9-.1-19.4h-1c-3.7-3.4-8-6.1-10-11-1.7-2-3.3-4-5-6-6.1-6.2-11.5-13-16.9-19.8-1.2-1.5-2.3-3.1-4-4.1l-.1.1c-.3.2-.6.5-1 1l-.6 2.7c.2-1.6.4-3.3.6-4.9-13.9-18.1-25.8-37.6-36.9-57.6-7.7-13.9-14.4-28.2-21.6-42.3-1.2-2.3-1.2-5.1-2.6-7.3-.4-.7-1-1.3-1.8-1.8-.1-3.3-2.1-6-3-9-1.9-3.1-3.2-6.5-4-10-1.4-2.8-2.9-5.7-3-8.9-3.4-1.1-3.5-4.5-4.4-7-6.6-18.6-12.2-37.5-17.3-56.6-.4-1.5-.4-3-.5-4.5-1.3 3.2-2.5 6.3-4 9.4-.7 1.5-1.3 2.9-2 4.4-.9 2.7-2 5.2-3 7.8-.6 1.7-1.1 3.4-1.6 5.1-.1.4-.2.8-.2 1.2-.2 2.1.8 4.6-1.7 5.9v.9l-.2.6c-.2 4.9-3.1 9-4.1 13.7-1.6 7.5-3.9 14.9-6.3 22.2-.6 1.9-1.2 3.8-1.7 5.7-.7 2.6-1.3 5.2-2 7.7-1.6 6.7-3.2 13.5-4.5 20.2-1.1 5.5-2.4 11-3.6 16.5-.5 2.4-1 4.8-1.4 7.2-.4 3.3-1.1 6.6-1.7 9.9-.6 3.7-1.2 7.4-1.7 11.1-.5 4.2-1.1 8.4-1.7 12.5 0 .2 0 .4-.1.6-.5 4.4-.9 8.7-1.3 13.1v1.4c.5 1.2.3 2.5.5 3.7-.5 7.3-1.2 14.5-1 21.8 0 1.8-.2 3.7-1.7 5-.2.2-.4.2-.6.3 2 3.3 2 6.5-.1 9.8.2.1.5.3.6.6.9 1.5.9 3.2.9 4.8.1 13.4.1 26.8 0 40.3 0 1.7-.1 3.3-.9 4.8-.2.3-.4.5-.6.6 2.3 7.3 3.9 14.6 1.6 22.1.1.8.3 1.5.5 2.3.7 10.2 2.4 20.3 3.2 30.5.1 1.7.3 3.4-.4 4.9 0 .2.1.5.1.8 2.9 11.9 3.8 24.2 6.3 36.2 1.8 8.9 3.5 17.9 5.6 26.7.1.7.3 1.4.5 2.1 1.9 2.8 1.5 6.5 2.2 9.4 3 12.3 6.5 24.5 10.2 36.7 3.5 11.1 7.3 22.1 11.3 33.1.6 1.6 1.2 3.3 1.8 4.9 5.9 15.8 12.6 31.2 19.7 46.5.6 1.2 1.2 2.5 1.8 3.8v-.1c-.2-.7 0-1.3.9-1.4.8.1 1.4.5 1.3 1.2-.1.4-.8.9-1.3 1.1-.1.1-.6-.4-.8-.8 1.1 2.4 2.3 4.9 3.5 7.3.5 1.6.9 3.3 2 4.6 13.1 25.2 27 50 43.2 73.4 8.2 11.9 16.4 23.9 25.5 35.1.1.1.2.2.2.3.5.6 1 1.3 1.4 1.9 8.7 11.6 18.2 22.6 27.9 33.4 8.6 9.5 17.1 19.1 26.1 28.1l1.2 1.2c1.1.5 1.9 1.3 2.3 2.4l.6.6 2.3 2.3c.3.3.5.6.8.8 1.4.7 2.5 1.8 3.4 3.1.3.3.7.5 1.1.7.4.2.8.5 1.1.8.2.2.3.3.5.4 1.7.6 2.5 0 1.7-3.4zm-70.8-499.4c.4-4.2 1-8.3 1.9-12.4-.5 4.1-.9 8.3-1.9 12.4z"/>
        <path class="st36" d="M21.9 498.8c-.7 2.6-1.3 5.2-2 7.7.6-2.5 1.3-5.1 2-7.7zM80.8 519.9c-.4-.7-1-1.3-1.8-1.8-.1-3.3-2.1-6-3-9-1.9-3.1-3.2-6.5-4-10-1.4-2.8-2.9-5.7-3-8.9-3.4-1.1-3.5-4.5-4.4-7-6.6-18.6-12.2-37.5-17.3-56.6-.4-1.5-.4-3-.5-4.5-1.3 3.2-2.5 6.3-4 9.4-.7 1.5-1.3 2.9-2 4.4-.9 2.7-2 5.2-3 7.8-.6 1.7-1.1 3.4-1.6 5.1-.1.4-.2.8-.2 1.2-.2 2.1.8 4.6-1.7 5.9v.9l-.2.6v-1.1-.2c0-.2.1-.4.1-.6v-.1c.7-1.5.8-3.2 1.1-4.8v-.1-.1c.1-.3.1-.6.2-.9 1.4-6.4 4.4-12.1 6.5-18.2 1.5-3.6 3-7.3 4.5-10.9.2.4.4.8.6 1.1 2.6 5.2 3.2 11.1 4.8 16.7 3.8 12.8 7.4 25.7 11.9 38.3 1.6 4.6 2.8 9.4 5.3 13.7l.1.1c2.2 2.4 2.5 5.8 3.9 8.5.3 1 .6 1.9.9 2.8.5 1.5 1.1 3 1.8 4.5.4 1 .9 1.9 1.4 2.9 1.4 3 2.9 6 3.3 9.3 0 .1 0 .3.1.4 0 .3.1.7.2 1.2z"/>
        <path class="st37" d="M238.3 156.4c0 .1-.1.2-.1.3-2.1 5.6-7.5 8-11.5 11.6-18.4 16.5-36.2 33.6-52.6 52.1-1 1.2-2 2.3-3.3 3.2-.2.2-.4.3-.7.4-.6.2-1.2.3-1.8.5-.5.1-1.1.3-1.6.4 12.1-14.8 25.8-28.1 39.5-41.3 10.1-9.8 20.4-19.4 31.7-27.8.1.1.1.2.2.3 0 .1.1.2.2.3z"/>
        <path d="M11 543c0 2.5-.1 5-.5 7.5-.4 3.3-1.1 6.6-1.7 9.9-.6 3-1.1 6-1.4 9-.1.7-.2 1.4-.2 2.2-.5 4.2-1.1 8.4-1.7 12.5 0 .2 0 .4-.1.6-.6 4.4-1.1 8.8-1.3 13.2v1.3c0 1.3.2 2.7-.9 3.8-.1-1.8-.1-3.5-.2-5.3.6-14.1 2.8-28 5.4-41.9.6-4.2 0-8.9 2.6-12.8z" fill="#75d1c8"/>
        <path class="st31" d="M254.1 143.7c.1 1.6-1.2 2.5-2.2 3.5-3.3 2.9-6.9 5.5-10.3 8.3-.9.7-1.9 1.5-3 .9-.2-.1-.3-.2-.5-.3l-.2-.2c4.8-5 10.2-9.2 16-13l.2.2v.6z"/>
        <path class="st39" d="M42 431c-.2 1.6-.6 3.2-1.1 4.8-.9 2.7-2 5.2-3 7.8-.6 1.7-1.2 3.4-1.6 5.1-.1.4-.2.8-.2 1.2 0 0-.1 0-.1.1-.2.1-.4.2-.5.3l-.1-.1c-.1-.1-.3-.3-.5-.4 1.6-6.5 3.5-13 7.1-18.8zM34.3 455.6c-.1.2-.2.3-.3.4-.1 0-.3 0-.4.1h-.5c-.3-2.3.8-4.2 1.7-6.2.1.1.3.3.5.4v.1c.1.3.1.5.2.8.2 1.6-.2 3-1.2 4.4z"/>
        <path class="st40" d="M1134.3 1131.1c-.7.8-1.3 1.6-2 2.3-7.5 8.5-16.2 15.7-24.4 23.4-15.3 14.3-31.7 27.3-48.3 40.1-6.2 4.7-12.8 8.9-18.7 13.9-9.2 7.6-19.6 13.7-29.7 20-36.7 22.7-75.3 41.6-115.7 56.5-1.1.4-2.2.5-3.4.8-.2-.3-.3-.6-.3-.8v-.2-.2c0-.1 0-.1.1-.2 3.3-3.4 7.9-4.1 12-5.7 15.3-5.9 30.2-12.9 45.1-19.9.1 0 .2-.1.2-.1.2-.1.5-.2.7-.3 15.3-6.9 29.8-15.3 44.2-23.9 4.4-2.6 8.3-6 13.1-8.1 3.2-1.4 4-4.1 4.7-7.5 2.3-11.1-2-20.9-4.9-31.1-5.5-19.8-10.5-39.9-15.7-59.8-3.2-12.4-6.7-24.7-9.7-37.1-.6-2.6-2.2-4.1-4.4-5-11.9-5-21.6-13.8-33-19.6-3.9-2-3.7-5.7-3.9-9.3 0-.1-.1-.2-.1-.2 0-.1-.1-.2-.1-.3-.5-2 1.3-2.8 2.5-3.8 10-7.7 20-15.5 29.6-23.7 3.9-3.3 7.2-7.4 11.5-10.3 1.3-.9 2.4-2.3 4.2-2.2h.1s.1 0 .1.1c16.7 9.6 33.3 19.4 49.4 30 20.4 13.4 40.5 27.4 59.5 43 12.5 10.2 25.1 20.3 36.8 31.5 2.9 2.7 3.1 4.6.5 7.7z"/>
        <path d="M1244.3 986c-4.6 10.7-11.1 20.4-17.2 30.2-22 35.2-47.1 68.1-75.2 98.6-22.3 24.2-46.3 46.7-71.9 67.3-11.8 9.5-24.2 18.3-36.4 27.4-.8.6-1.8.9-2.7 1.3-.1-.4-.1-.7 0-1 .2-1.4 1.9-1.6 2.9-2.3 16.9-12.2 33.3-25.1 49-38.8 11.8-10.4 23.6-20.9 34.8-31.9 9.3-9.1 9.4-9.4-.2-17.9-21.3-18.7-43.2-36.6-66.5-52.8-15.1-10.5-30.5-20.5-46.1-30.3-7.7-4.8-15.7-9.2-23.5-13.8-1.4-.8-3.3-1.1-3.3-3.2v-.2c-.3-2.3 1.6-3.4 2.9-4.7 14.1-13.8 27.6-28.1 39.9-43.5.9-1.2 1.9-3.4 3.8-2.4.1.1.2.1.3.2.2.1.5.3.7.6-2.2 7.1-7.9 11.7-12.6 17-.6.7-1.3 1.4-2 2.1 3.8-2.2 8.4-2.1 13.4-.9 10.5 2.5 21.2 3.6 32 4.8 8.9.9 17.6 3.2 26.5 4.6 13.6 2.2 26.9 5.9 40.8 6.2 5 .1 9.8 1.7 14.7 2.5 18.3 3 36.3 7.8 55 8.7 4.7.2 9.6 1.2 14.2 2.6 4.4 1.3 6.4-.2 8.4-3.7 4.3-7.5 8.7-15 13.4-22.4.1-.2.3-.4.4-.7l.1-.1c1.2-1.3 1.7-3.4 3.6-3.6.1.1.4.1.8.1z" fill="#3290e8"/>
        <path class="st42" d="M1284.2 900.1c-3.4 11.4-8.5 22.1-13.2 33.1-.4.9-.7 1.8-1.1 2.8-1.9 3.6-2.7 7.8-5.5 11-.1.1-.1.2-.2.3-.2.3-.4.7-.6 1.1-3.2 5.8-6.2 11.6-8.9 17.6-.5 1-1 1.7-1.7 2.2-1.2.9-2.6 1-4.4.8-10.7-1.3-21.2-3.7-31.9-5.3-10.6-1.6-21.2-3.8-31.8-5.4-13.1-2-26.3-3.5-39.3-6.1-15.9-3.2-32-5.8-48.2-7.6-9.7-1.1-19.2-3.5-28.9-5-3.1-.5-5.8-1.3-8.5 1-.9.8-2 1.5-3.1.4-1-1-.4-2.2.1-3.2.5-1.2 1.1-2.3 1.8-3.4.8-1.3 1.7-2.6 2.6-3.9v-.1c.6-.9 1.3-1.8 1.9-2.7 7.3-10.7 13-22.4 19.6-33.6.9-1.6 1.5-3.4 3.3-4.2.3-.2.6-.5.8-.7.4-.3.7-.5 1.1-.7 4-2.2 8.3-1.1 12.9-.5 17.2 2.4 34.1 6.9 51.7 8 8.8.6 17.6 3.1 26.4 4.7 13.1 2.3 26 5.2 39.3 6.1 9.4.6 18.7 3.1 28 4.8 8.2 1.5 16.4 2.7 24.5 4.6 2.6.6 4.2-.7 5-3 1.1-3.1 2.6-6.2 3.9-9.2.7-1.6 1.3-3.3 3.2-3.9.1 0 .1-.1.2-.1.2.1.3.1.5.2.3-.1.4-.1.5-.1z"/>
        <path class="st43" d="M899.5 1208c-.2 5.2-1.6 10.2-2.4 15.2-2 11.4-3.1 23-5.1 34.4-1.5 8.7-3.9 17.6-2.3 26.7.2 1 .1 2-.3 2.9-.1.2-.1.3-.2.4-.1.1-.2.3-.3.4-.3.4-.7.7-1.2.9-.3.2-.7.4-1.1.5 0 0-.1 0-.1.1-4.5 1.9-9.5 2.6-13.6 5.4-14.9 5.9-30.6 9.5-46 13.9-2.5.9-5 2.1-7.7 1.4-.2-.1-.4-.1-.6-.2-.2 0-.3-.1-.5-.2h-.1c.3-2.9 2.9-2.9 4.8-3.4 7.7-2 15.2-4.7 23.1-6.4 3.5-.7 4.7-2.4 4.8-6.2.4-19.3-5.1-37.4-10.6-55.5-2.4-7.8-3.3-15.7-2.1-24.1 1-6.5 2.3-13.1 1-19.8-.9-4.6 1.3-8.8 1.8-13.2.6-6.4 1.7-12.8 2.9-19.1 2.5-13.6 4.1-27.2-1.2-40.7-.9-2.4-2.4-5-1.2-7.7.1-.2.2-.4.4-.7.1-.1.1-.1.1-.2 3.2-4.3 8.4-5.1 12.9-7.1 12.4-5.7 24.6-11.6 36.4-18.3 3.6-2.1 4.4-2.3 6.2-1.4.1.1.2.1.3.2.2.1.4.3.7.4-2.2 4.3-6.8 5.1-10.4 7.3-1.9 1.2-2.8 1.7-1.6 4.4 2.1 4.7 3.3 9.7 3.2 15-.1 13.5.4 27-.2 40.4-.4 8.7 3.5 16.2 5.4 24.2 2.3 10.1 5.2 19.8 4.8 30.1z"/>
        <path d="M1263 951c-5.6 10.8-11.2 21.5-16.7 32.3-.5 1-.8 2.2-2 2.7-.8.4-1.3 1-1.8 1.7s-1 1.6-1.5 2.3c-.6.2-1.2.3-1.8.4-4.1.6-8-.8-11.9-1.4-14.3-2.2-28.5-4.9-42.8-7-20.2-2.9-40.3-6.6-60.4-9.9-22.5-3.6-44.9-7.1-67.4-11-2-.3-4.2-.4-5.8-1.5-4.2-2.8-6.4-.7-8.6 2.8-1.3 2.1-2.9 4.1-5.4 4.9-.4-.2-.7-.4-.9-.6l-.2-.2c-1.5-1.4.5-2.8 1.2-3.9 2.9-4.1 6-8 8.9-12 14.1-19.2 26.4-39.6 37.7-60.6 1.1-2 1.4-4.6 4.1-5.3 0 0 .1 0 .1.1.2.1.3.3.5.4l.1.1c.1.2.2.3.3.6.2.9 0 1.7-.4 2.4-.3.6-.8 1.1-1.3 1.6-4.8 8.3-9.8 16.5-14.3 25-4.4 8.2-10.1 15.6-14.8 23.6-.3.6-.8 1.1 0 2.2 3.3-5.5 7.7-2.9 12.5-2.3 12.2 1.5 24.2 4.6 36.5 5.8 10.3 1.1 20.6 2.6 30.8 5 5.4 1.3 11.1 1.4 16.5 2.8 9 2.4 18.3 2.1 27.3 4.2 5.4 1.3 11.1 1.3 16.6 2.6 9.9 2.3 20.1 3.6 30.1 5.3 7.5 1.3 14.9 2.5 22.4 3.7 2 .3 2.7-1.1 3.6-2.7 3.5-6.3 5.8-13.2 10.1-19.1.1.2.2.4.2.7v.2c.2 1.6-.7 2.8-1.5 4.1z" fill="#328ee4"/>
        <path class="st42" d="M1310.1 814c-1.3 10.2-4.5 20.1-7.2 30-4.9 18.1-11 35.9-17.4 53.5-.3.9-.9 1.7-1.4 2.6l-.2-.2c-.2-.2-.4-.5-.5-.7-1.1-1.9-.1-3.8.6-5.8 3.7-11.6 8.5-22.8 11.7-34.5v-.1c.1-.2.1-.4.2-.6 3.3-13.8 8.1-27.3 11.1-41.2.3-1.2.7-2.2 1.6-3 .1-.1.2-.1.3-.1 0 0 .1 0 .1-.1h.1c.4-.1.7 0 1 .2z"/>
        <path d="M827 1308.9c-3 3.1-7.4 2.9-11 3.7-14.9 3.4-30 6.8-45.1 9-11.9 1.7-23.8 4.1-35.8 4.3v-.4-.5c8.3-1.2 16.8-1.6 25.1-3.5.6-.1 1.3-.3 1.9-.5h.2c3.6-2.5 8-1.7 11.8-3.1 1.7-.2 3.4-.4 5.1-.7l7.2-1.2c1.7-.3 3.4-.7 5.1-1.1l2.1-.3h.2c1.8-.3 3.7-.6 5.5-1 1.3-.3 2.5-.6 3.8-.9.2 0 .3-.1.5-.1.1 0 .2 0 .2-.1.8-.2 1.5-.4 2.3-.6.6-.2 1.2-.3 1.8-.5.4-.2.8-.3 1.3-.4h.5c.4 0 .8-.1 1.1-.1H811.1c.2 0 .3 0 .5-.1 1.9-.3 3.9-.7 5.9-.9.2 0 .4.1.6.1h.1c.2.1.4.1.7.1.6.1 1.1 0 1.6-.1.6-.1 1.2-.3 1.9-.4.5-.2 1.1-.3 1.6-.4.9-.2 1.9-.4 3-.3z" fill="#c7e4f3"/>
        <path class="st46" d="M1321.1 754c-.9 12.8-3.5 25.3-5.9 37.8-1.4 7.5-2.4 15.1-5.1 22.2H1308.9l-.1-.1c-1.4-1.8-.5-3.7-.2-5.5.9-4.9 2.4-9.6 2.9-14.6 0-.1 0-.2.1-.3.1-.2.1-.5.1-.7 2.2-11.7 4.9-23.3 6-35.1.1-1.3.7-2.6 1.7-3.5.1-.1.2-.2.3-.2 0 0 .1 0 .1-.1.6-.2.9-.1 1.3.1z"/>
        <path class="st47" d="M1325 720c-.1.9-.2 1.8-.2 2.7-.1.6-.1 1.2-.2 1.8-.2 2.7-.5 5.4-.7 8.1-.1 1.5-.3 2.9-.4 4.4-.8 5.7-1.6 11.3-2.4 17h-1.1l-.1-.1c-1.4-1.4-1.3-3.2-1-5 1.3-7 1.6-14.2 1.9-21.3v-.6-.2c1.5-6.9 1.8-14 1.8-21.1 0-1.7-.6-4 1.2-5.2.3-.2.7-.4 1.2-.5v20z"/>
        <path class="st48" d="M887 1290c-4.3 2.7-9.2 3.7-14 5-.5-.1-1-.4-1.2-.7-.2-.2-.1-.5.4-.7 4.6-1.5 8.9-4.1 13.8-4.7.2.1.4.2.5.4l.1.1c.2.2.3.4.4.6z"/>
        <path d="M1270 936c-1.1 5.6-3.4 10.6-7 15.1.2-.9.5-1.8.7-2.7 0-.1.1-.2.1-.3.2-.6.3-1.2.5-1.8 2-2 2.6-4.9 3.8-7.3.4-1.3 1-2.2 1.9-3z" fill="#c0dcf5"/>
        <path class="st50" d="M892 1288.2c-1.4 1.4-3.1 2.1-5.1 1.8l-.5-.5-.1-.1-.4-.4c.7-.3 1.3-.7 2-1 .5-.3.9-.6 1.4-.8.7-.4 1.5-.6 2.4-.3.1 0 .2.1.2.1v.2c.1.3.1.7.1 1z"/>
        <path class="st51" d="M141.4 632c-.5 4.2-.9 8.4-1.9 12.4.4-4.2 1-8.3 1.9-12.4zM210.9 1148c-.5.4-1 .5-1.4.4-.9-.2-1.7-1-2.6-1.3-2-1.6-3.7-3.6-5.7-5.1-1.4-.1-1.7-1.2-2.1-2.3-1.2-1.3-2.5-2.6-3.8-3.8-7.1-4.8-12.1-11.7-17.8-17.8-13-14-25.5-28.4-37.1-43.6-.6-.8-1-1.7-1.5-2.5.3-.2.6-.3.9-.4.5.6 1 1.3 1.4 1.9 8.7 11.6 18.2 22.6 27.9 33.4 8.5 9.5 17.1 19.1 26.1 28.1l1.2 1.2c1.1.5 1.9 1.3 2.3 2.4l.6.6 2.3 2.3c.3.3.5.6.8.8 1.4.7 2.5 1.8 3.4 3.1.3.3.7.5 1.1.7.4.2.8.5 1.1.8.2.2.3.3.5.4 1.8.3 2.5-.2 1.8-3.6-1.9-8.5-5.9-16.5-6.9-25.2-.9-7.9-3.7-15.3-6-22.9-.4-1.2-.5-2.6-.4-3.9.3-8.2 1.9-16.3 3.6-24.3 1.2-5.4 1.4-11.1 2-16.6 1.3-12 3.5-24.3.4-36.4-1.7-6.5-2.9-13.2-5.2-19.5-2.6-7.2-4.5-14.5-5.6-22-.5-3.8-1.2-7.9-2.7-10.9-4.4-9.1-3.3-18.5-3.5-27.9-.1-6.3-1.3-13 .3-18.9 2.6-9.6 1-19.2 1.6-28.7.2-3.8-.2-7.4-1.6-11.2-2.9-7.6-.5-15.4.9-23 1-5.5 1.4-11.1 2.5-16.6.8-4 .4-8.2 1.8-12.2 1.4-4.3-1-7.9-5.2-8.4-2.6-.3-3.4-1.6-3.4-4 0-4.2-.1-8.3 0-12.5.1-2.9-.7-5.4-1.7-8.2-2.1-5.9.2-12 .1-18.1 0-1.3.6-2.6.5-3.9-.6-8.9 2.2-17.2 4.6-25.6.5-1.6 0-2.9-.2-4.4-1.2-7.8-2.3-15.7-3.4-23.5-1.6-3-1.6-6 0-9-.7-3-1.3-6-2-9-2-2.7-.8-5.8-.9-8.6-.2-6.5-.1-12.9-.1-19.4h-1c-3.7-3.4-8-6.1-10-11-1.7-2-3.3-4-5-6-6.1-6.2-11.5-13-16.9-19.8-1.2-1.5-2.3-3.1-4-4.1 2-1.3 3.1 1.2 4.1 2.4 5.2 6.5 10.6 12.9 16 19.2.1.1.2.2.2.3.3.4.6.7.9 1.1 1.9 2.1 3.9 4 5.2 6.6.5.8 1.1 1.6 1.7 2.4 1.8 2.2 3.9 4.1 6 6 .8.8 1.7 1.5 2.6 2.3 0 .1.1.1.2.1l.3.3.6 1.2c0 .1.1.2.1.2.6 6.8.1 13.6.3 20.3 0 1.8-.2 3.7.6 5.4 1.5 3.1 1.6 6.5 1.9 9.8-.6 3.2-.8 6.5.3 9.7 2.3 7.7 2 15.8 3.7 23.6 1.1 5-1.3 9.9-2.6 14.6-2.2 8-1.5 16.2-2.7 24.2-1.6 10.7 3.5 20.9 2.1 31.6-.3 2 1 3.2 3 4.1 4.7 2.1 6.1 5.2 5.3 10.4-2.2 14.1-4.2 28.2-6.3 42.3-.3 2.4.4 4.6.9 6.9 3.2 13.5 2.8 27 .5 40.6-.3 1.8-.5 3.6-.5 5.5 0 3.7.1 7.3 0 11-.6 12.2 1.1 24 4.3 35.9 4 14.9 8 29.9 12.1 44.8 2.6 9.6 2.3 19.5 1.3 29.3-1.6 15.2-3.4 30.3-6.4 45.3-1.2 5.9.8 11.5 2.4 17.2 3.7 12.9 5.7 26.3 10.2 39.1.2.6.3 1.3.4 2 .3 1.5.7 3.2-.7 4.3z"/>
        <path class="st36" d="M342.7 1240.7c-6.6-17.6-3.2-35.8-3.4-53.8-.1-9.5-3.1-18.1-5-27.1-1.7-8.2-4.2-16.2-6.3-24.3-3.5-13.2-6.5-26.5-10.6-39.5-2.8-8.9-1.2-17.6.5-26.1 1.2-5.9 1.9-12 2.8-17.9 1-6.4 1.4-13.1 1.5-19.8.1-4.5 2.5-8.9 2-13.6-.2-1.9 1.3-2.3 3.8-2.5.1-.4.1-.8 0-1.2-5.3-5.1-10-9.5-14.6-14.1-2.9-2.9-5.7-6-7.5-9.8-14-16.7-27.9-33.4-40.1-51.5-17.7-26-32.7-53.4-44.9-82.1 1.8 4.4 3.7 8.9 5.7 13.3 7.9 18.1 18.2 34.7 27.7 51.9.7 1.2 1.4 2.3 1.1 3.7l-.3.6c.8.4 1.6.9 1.4 2 0 .2-.5.4-.7.4-1.1-.4-.8-1.4-.8-2.3v-.2c-5.5-10-10.9-20.1-16.6-29.9-7.2-12.5-13-25.6-18.6-38.8-5-11.9-9.8-23.9-13.7-36.1-3.8-11.8-7.7-23.5-10.3-35.7-1.8-8.2-5.1-16.1-4.7-24.7-1.2-8.2-2.2-16.4-3.5-24.6-3.2-20.4-4.6-40.9-4.8-61.5 0-1.6-.3-3.3-.5-4.9-.4-.2-.8-.5-1.2-.8l-.1.1c0 .1.1.2.1.2.6 6.8.1 13.6.3 20.3 0 1.8-.2 3.7.6 5.4 1.5 3.1 1.6 6.5 1.9 9.8-.6 3.2-.8 6.5.3 9.7 2.3 7.7 2 15.8 3.7 23.6 1.1 5-1.3 9.9-2.6 14.6-2.2 8-1.5 16.2-2.7 24.2-1.6 10.7 3.5 20.9 2.1 31.6-.3 2 1 3.2 3 4.1 4.7 2.1 6.1 5.2 5.3 10.4-2.2 14.1-4.2 28.2-6.3 42.3-.3 2.4.4 4.6.9 6.9 3.2 13.5 2.8 27 .5 40.6-.3 1.8-.5 3.6-.5 5.5 0 3.7.1 7.3 0 11-.6 12.2 1.1 24 4.3 35.9 4 14.9 8 29.9 12.1 44.8 2.6 9.6 2.3 19.5 1.3 29.3-1.6 15.2-3.4 30.3-6.4 45.3-1.2 5.9.8 11.5 2.4 17.2 3.7 12.9 5.7 26.3 10.2 39.1.2.6.3 1.3.4 2 .2 1.5.6 3.1-.7 4.2-.5.4-1 .5-1.4.4 12 11.8 24.8 22.6 38 33.1.7.6 1.4 1.2 2.2 1.7 7.5 6.1 15.1 11.9 22.9 17.6 15.9 11.7 32.4 22.5 49.3 32.8 6 3.6 12 7.1 18.2 10.5l.9.6c1.3-.6 2-2.2 1.4-3.9zm-81.3-304.2c1 1.4 2.3 2.1 2.2 4.2-1.6-1.1-2.8-1.9-2.2-4.2zm6.7 10.8c2 1.2 3.2 2.1 3.8 5-2.2-1.6-3.1-2.8-3.8-5zm6.1 8.3c1.6.3 2.1 1.3 3.2 3.1-2.2-.7-2.9-1.5-3.2-3.1z"/>
        <path class="st52" d="M182.3 670.8c-.4-.2-.8-.5-1.2-.8.4-.3.8-.3 1.1-.2 0 0 .1 0 .2.1.4.2.8.8 1.2 1.1 1 1.8 1 3.8.9 5.8-.2 25.6 2.7 50.9 7 76.1.5 2.6 1 5.2.9 7.9-.1.5-.1.9-.2 1.4-.1 1-.1 2-.1 2.9.2 5.7 2.2 11.2 3.5 16.7 4 16.3 8.7 32.4 14.4 48.2 1.5 4.1 3 8.2 4.6 12.3.5 1.3 1 2.5 1.5 3.8.6 1.5 1.2 2.9 1.8 4.4.5 1.3 1.1 2.7 1.7 4.1.4 1 .8 1.9 1.2 2.9 1.8 4.4 3.7 8.9 5.7 13.3 7.9 18.1 18.2 34.7 27.7 51.9.7 1.2 1.4 2.3 1.1 3.7l-.3.6c0 .1-.1.1-.1.2v-.2c-5.5-10-10.9-20.1-16.6-29.9-7.2-12.5-13-25.6-18.6-38.8-5-11.9-9.8-23.9-13.7-36.1-3.8-11.8-7.7-23.5-10.3-35.7-1.8-8.2-5.1-16.1-4.7-24.7-1.2-8.2-2.2-16.4-3.5-24.6-3.2-20.4-4.6-40.9-4.8-61.5.1-1.6-.2-3.3-.4-4.9z"/>
        <path class="st52" d="M272.5 1200.9c-.6 0-1.3-.3-2.3-1.1-7.1-5.5-14.2-10.9-21.3-16.4-.7-.5-1.3-1-2.1-1.3-7.4-4.5-13.5-10.7-20-16.3-6.9-5.9-14.1-11.5-19.9-18.7.6.2 1.1.3 1.6.4 1.8.3 2.5-.2 1.8-3.6-1.9-8.5-5.9-16.5-6.9-25.2-.9-7.9-3.7-15.3-6-22.9-.4-1.2-.5-2.6-.4-3.9.3-8.2 1.9-16.3 3.6-24.3 1.2-5.4 1.4-11.1 2-16.6 1.3-12 3.5-24.3.4-36.4-1.7-6.5-2.9-13.2-5.2-19.5-2.6-7.2-4.5-14.5-5.6-22-.5-3.8-1.2-7.9-2.7-10.9-4.4-9.1-3.3-18.5-3.5-27.9-.1-6.3-1.3-13 .3-18.9 2.6-9.6 1-19.2 1.6-28.7.2-3.8-.2-7.4-1.6-11.2-2.9-7.6-.5-15.4.9-23 1-5.5 1.4-11.1 2.5-16.6.8-4 .4-8.2 1.8-12.2 1.4-4.3-1-7.9-5.2-8.4-2.6-.3-3.4-1.6-3.4-4 0-4.2-.1-8.3 0-12.5.1-2.9-.7-5.4-1.7-8.2-2.1-5.9.2-12 .1-18.1 0-1.3.6-2.6.5-3.9-.6-8.9 2.2-17.2 4.6-25.6.5-1.6 0-2.9-.2-4.4-1.2-7.8-2.3-15.7-3.4-23.5-.8-3-.8-6 0-9-.7-3-1.3-6-2-9-1.1-8.8-.3-17.6-.4-26.5.1-.2.3-.3.4-.4 0 .1.1.2.1.2.6 6.8.1 13.6.3 20.3 0 1.8-.2 3.7.6 5.4 1.5 3.1 1.6 6.5 1.9 9.8-.6 3.2-.8 6.5.3 9.7 2.3 7.7 2 15.8 3.7 23.6 1.1 5-1.3 9.9-2.6 14.6-2.2 8-1.5 16.2-2.7 24.2-1.6 10.7 3.5 20.9 2.1 31.6-.3 2 1 3.2 3 4.1 4.7 2.1 6.1 5.2 5.3 10.4-2.2 14.1-4.2 28.2-6.3 42.3-.3 2.4.4 4.6.9 6.9 3.2 13.5 2.8 27 .5 40.6-.3 1.8-.5 3.6-.5 5.5 0 3.7.1 7.3 0 11-.6 12.2 1.1 24 4.3 35.9 4 14.9 8 29.9 12.1 44.8 2.6 9.6 2.3 19.5 1.3 29.3-1.6 15.2-3.4 30.3-6.4 45.3-1.2 5.9.8 11.5 2.4 17.2 3.7 12.9 5.7 26.3 10.2 39.1.2.6.3 1.3.4 2 .2 1.5.6 3.1-.7 4.2-.5.4-1 .5-1.4.4 12 11.8 24.8 22.6 38 33.1.7.6 1.4 1.2 2.2 1.7 7.3 5.9 15 11.8 22.7 17.5z"/>
        <path class="st53" d="M67.4 950.5c-.1.4-.8.9-1.3 1.1-.1.1-.6-.4-.8-.8v-.1c-.2-.7 0-1.3.9-1.4.6.1 1.3.6 1.2 1.2z"/>
        <path class="st53" d="M141.2 1073.6c-.7-.6-1.5-1.1-2.3-1.5-8.4-9.3-15.2-19.7-22.3-30-17.5-25.2-33.2-51.4-46.6-79-.9-1.2-1.1-2.8-2-4.1-10.1-19.7-18.6-40-26.4-60.7-10-26.6-18.1-53.7-24.6-81.4-.1-.6-.1-1.3-.1-2 .6.5 1.1 1 1.5 1.6 1.9 2.8 1.5 6.5 2.2 9.4 3 12.3 6.5 24.5 10.2 36.7.5 1.7 1 3.5 1.6 5.2 2.9 9.4 6.2 18.7 9.7 27.9.6 1.6 1.2 3.3 1.8 4.9 5.9 15.8 12.6 31.2 19.7 46.5.6 1.2 1.2 2.5 1.8 3.8 1.1 2.4 2.3 4.9 3.5 7.3.5 1.6.9 3.3 2 4.6 13.1 25.2 27 50 43.2 73.4 8.2 11.9 16.4 23.9 25.5 35.1.1.1.2.2.2.3.4.7.9 1.3 1.4 2zM141.4 632c-.5 4.2-.9 8.4-1.9 12.4.4-4.2 1-8.3 1.9-12.4zM143 628.2c-.3.2-.6.5-1 1l-.6 2.7c.2-1.6.4-3.3.6-4.9.6-.3.9 0 1 1v.2z"/>
        <path class="st54" d="M255 927c-5.5-10-10.9-20.1-16.6-29.9-7.2-12.5-13-25.6-18.6-38.8-5-11.9-9.8-23.9-13.7-36.1-3.8-11.8-7.7-23.5-10.3-35.7-1.8-8.2-5.1-16.1-4.7-24.7.5.1.9.3 1.2.6 1.2.9 1.2 2.5 1.5 3.8 5.8 29 14.5 57.1 25.6 84.4 9.4 23.2 20.8 45.3 33.7 66.8 15.2 25.3 33 48.8 52.4 71 .7.8 1.4 1.8 1.9 2.7 0 .1 0 .1.1.2.9 1.4 1.8 2.7 2.8 3.9v.1c3.7 4.7 8.1 8.7 12.3 12.9l1.2 1.2c.4.4.8.8 1.1 1.2 1.5 1.6 3 2.9 3.3 4.6-5.3-5.1-10-9.5-14.6-14.1-2.9-2.9-5.7-6-7.5-9.8-14-16.7-27.9-33.4-40.1-51.5-17.7-26-32.7-53.4-44.9-82.1 1.8 4.4 3.7 8.9 5.7 13.3 7.9 18.1 18.2 34.7 27.7 51.9.7 1.2 1.4 2.3 1.1 3.7l-.3.6c.8.4 1.6.9 1.4 2 0 .2-.5.4-.7.4-1.1-.4-.8-1.4-.8-2.3-.2-.1-.2-.2-.2-.3z"/>
        <path class="st54" d="M261.4 936.5c1 1.4 2.3 2.1 2.2 4.2-1.6-1.1-2.8-1.9-2.2-4.2zM268.1 947.3c2 1.2 3.2 2.1 3.8 5-2.2-1.6-3.1-2.8-3.8-5zM274.2 955.6c1.6.3 2.1 1.3 3.2 3.1-2.2-.7-2.9-1.5-3.2-3.1zM341.1 1244.9c-.4.1-.8.2-1.3.2-16-7.9-30.8-17.7-45.6-27.5-15.2-10.1-30-20.9-44.3-32.3-1.2-.9-2.1-2.1-3.1-3.1 1 .3 2 .7 2.9 1.2 7.5 6.1 15.1 11.9 22.9 17.6 15.9 11.7 32.4 22.5 49.3 32.8 6 3.6 12 7.1 18.2 10.5l.9.6c1.7-.7 2.4-2.3 1.8-4-6.6-17.6-3.2-35.8-3.4-53.8-.1-9.5-3.1-18.1-5-27.1-1.7-8.2-4.2-16.2-6.3-24.3-3.5-13.2-6.5-26.5-10.6-39.5-2.8-8.9-1.2-17.6.5-26.1 1.2-5.9 1.9-12 2.8-17.9 1-6.4 1.4-13.1 1.5-19.8.1-4.5 2.5-8.9 2-13.6-.2-1.9 1.3-2.3 3.8-2.5-.2.9-.7 1.9-1.6 3.2-2.3 3-2.2 8.3-2.6 12.5-.5 5.6-1.3 11.2-1.4 16.9 0 6.5-1.6 12.9-2.8 19.2-1.9 10.7-2.6 20.9.4 31.8 7 25 13.3 50.2 19.8 75.3.6 2.3.6 4.6.6 6.9 0 10.5.2 21 0 31.5-.2 8.6.5 16.9 2.9 25.2 1.1 4 .6 5.4-2.3 6.1z"/>
        <path d="M394.3 1266.7c-.1 2.6-.4 3.8-1.5 4-.8.1-1.9-.2-3.6-1-13-5.8-25.6-12.5-38.4-18.7-3.8-1.7-7.7-3.3-11-6 .4-.1.8-.2 1.1-.3 1.7-.7 2.4-2.3 1.8-4-6.6-17.6-3.2-35.8-3.4-53.8-.1-9.5-3.1-18.1-5-27.1-1.7-8.2-4.2-16.2-6.3-24.3-3.5-13.2-6.5-26.5-10.6-39.5-2.8-8.9-1.2-17.6.5-26.1 1.2-5.9 1.9-12 2.8-17.9 1-6.4 1.4-13.1 1.5-19.8.1-4.5 2.5-8.9 2-13.6-.2-1.9 1.3-2.3 3.8-2.5.4 0 .8 0 1.2-.1-.4-.4-.8-.8-1.2-1.1-5.3-5.1-10-9.5-14.6-14.1-2.9-2.9-5.7-6-7.5-9.8.5-.2.9-.2 1.3-.2 1.6.1 2.5 1.7 3.5 2.8 17.2 19.3 36.3 36.5 56.6 52.5 2.4 1.9 5 3.6 6.8 6.2.2.2.3.4.4.6.8.9 1.8 1.8 2.8 2.5l.1.1c2.4 1.9 5 3.5 7.3 5.5.7.6 1.5 1.4 1.1 2.6-.4 1.2-1.5 1-2.5 1-4.8-.3-5.8.4-4.7 5.1 2 8.4 3.3 17 5.8 25.3 3.2 11.2 7.5 22.1 8.5 33.8 1 11.5.2 22.9-1.9 34.2-.8 4.6-1.3 9.2-1.9 13.8-1.6 11.9-4.6 23.8-3.8 36 .7 9.8 4.1 18.8 6.6 28.1 2.5 8.6 2.7 17.2 2.4 25.8z" fill="#2bafbc"/>
        <path class="st56" d="M515.8 1242.5c-2.3 10.7-3.5 21.7-4.2 32.6-.7 10.2-2.9 20.1-4.5 30.1-.4 2.4-1.3 3.4-2.6 3.8-1.2.3-2.8 0-4.4-.4-13.8-3.6-27.5-7.5-41-11.8-2-.6-4.1-1.3-6.2-1.6-1.7-1.4-4.2-.4-5.8-2.1l-.3-1.2c-.3-1.8-.2-3.6.4-5.2 2.1-6.1 2.1-12.5 2.2-18.7.2-7.2 1.5-14.3 2.9-21.2 1.2-6.3.4-11.8-1.1-17.6-4.7-18.3-8.7-36.9-13.1-55.3-2.3-9.5-5.2-18.9-7.8-28.4-3.8-14.4-3.9-28.9-1.1-43.5.6-3.1-.1-6.3 1.1-9.4.2-.3.5-.6.7-.8l.1-.1c1.6-1.3 3.3-.2 4.9.7 19.6 10.3 39.7 19.5 60.4 27.5 3.4 1.3 6.9 2.5 10.4 3.4 1.9.5 4.1.7 4.5 3.3 0 .1-.1.2-.2.3-.2.3-.5.6-.9.8-1.8.7-3.6.3-5.4-.3-2.9-1-3.8.1-3 2.9 1.5 5.3 2.3 10.8 4.4 15.9 3.8 9.4 3 19.1 1.5 28.6-1.5 9.4-2.1 18.6.4 27.7 2.6 9.3 4.2 18.9 7.2 28.1 1.2 3.9 1.4 7.8.5 11.9z"/>
        <path d="M636.4 1218.4c-1.6 4.9-1.7 10.2-2.4 15.2-2.1 15.2-5.1 30.4-5.6 45.9-.1 4.2-1.8 8-2.1 12.2-.7 9 2.6 17.3 4.1 26 .4 2.3 1.2 4.4.9 6.7-.1.5-.2 1-.4 1.5H606s0-.1-.1-.1c-1.5-1.2-3.5.2-5-.9h-11.1c-5.7-.1-11.3-1.1-17-2.2-1.4-.2-2.4-.7-3.2-1.4-1.5-1.2-2.1-3.1-2.5-5.5-1.2-8-3.5-15.9-2.7-24.2.7-6.6 2.3-13.1 2.5-19.7.4-10.8 2.3-21.4 4.3-32 1.1-6-.9-11.8-2-17.7-4.1-21.2-12.1-41.5-15.8-62.9-1.3-7.5-1.7-15-.5-22.5v-.2c5.1-2.5 9.8.4 14.5 1.3 15.6 2.9 31.3 5.5 47.2 6.7 1.2.1 2.3.3 3.3.8.3.3.7.5 1.1.6.6.3 1.2.5 1.7.8.5.3 1 .7 1.3 1.2 0 0 0 .1.1.1v.2c-1.1 4.2.1 8.1 1.2 12 2.4 8.8 4.5 17.7 6.4 26.7 1.6 7.8 4.3 15.3 6.5 23 .9 3 1.1 5.6.2 8.4z" fill="#2da7c7"/>
        <path d="M451.3 1259c-1.1 6.5-1 13.2-1.2 19.8-.1 4.6-1.9 8.8-2.9 13.2-.1.3-.2.7-.2 1-21-6.3-41.2-15.1-61.1-24.2-10.3-4.7-20.3-9.9-30.5-14.9-1.6-.8-3.4-1.4-4.5-3 1.6.4 3.2 1 4.8 1.6 7.6 3 14.4 7.7 22 10.8 5 2 9.8 4.5 15 6.9 1-11.9.2-23.2-3.6-34.3-3.2-9.7-6.8-19.8-5.6-29.8.8-6.4.1-13.2 2.8-19.4 1.8-4.2 1.1-9.1 1.9-13.6 1.1-5.9 2.6-11.9 2.7-18 .1-5.6.8-11.2.9-16.9.3-12.4-2.9-24.2-6.7-35.8-2.7-8.3-5-16.7-6.2-25.4-.5-3.6-2.5-6.7-2.2-10.6.5-5.9.8-6.3 5.9-3.3.7.4 1.4.9 2.6.2-3.8-4.1-9.7-5.6-12.3-10.7.4-.2.8-.3 1.1-.3.9 0 1.7.6 2.5 1.1 13.9 9.7 27.8 19.5 42.5 28 .6.3 1 .9 1.4 1.4.5.7 1.1 1.3 1.8 1.8 1.1 1 2.4 1.8 3.8 2.5.3.2.6.3.9.5l.6.3c.5.3 1 .6 1.6.9 1 .6 1.9 1.3 1.8 2.8v.2c.1 10.9-2.5 21.6-2.2 32.6.2 11.1 3.4 21.4 5.9 31.9 1.7 7.2 4.7 14 5.5 21.5.4 4.2 2.2 8.3 3.1 12.4l7.8 33.6c.5 2.2 1.2 4.4 2 6.6 3.4 9.9-.1 19.2-1.7 28.6z" fill="#2cadbe"/>
        <path d="M573 1322.8c-12.5-.9-24.7-3.4-36.9-5.7-27.8-5.2-55.1-12.4-82-21.3-.5-.2-.9-.5-1.3-.7 2.6.2 5 .6 7.5 1.3 5 1.3 9.9 3.3 15 4.5 8.8 2.1 17.4 4.7 26.1 7.1 3.1.9 4.2-.7 4.6-3.3 2-14.5 4.6-29 5.4-43.7.3-6.1 1-12.5 3-18.5 2-5.9-.5-11.1-1.8-16.5-2.6-10.6-6.1-21.1-7.5-31.8-.8-5.9-.2-12.3 1-18.6 1.9-9.9 2.6-20-1.6-29.8-2.4-5.6-2.8-11.8-5.1-17.5-.9-2.3 2.3-4.4 4.6-2.8 2.3 1.6 4.6 1.5 7.1 1.6l.3.3c.7.5 1.5.6 2.3.7-1-.2-1.9-.4-2.6-1-2.7-3.6-7.2-2.8-10.8-4.2-22.8-8.6-45-18.5-66.4-30.2-.8-.4-1.9-.4-2.9-.6 0-.1 0-.1-.1-.1-.8-1.7-2.5-2-3.9-2.9-.3-.4-.3-.7-.1-1 0-.1.1-.1.2-.2l.1-.1c2.8-.8 4.8 1.1 6.9 2.2 26.3 14.2 53.6 26 82.1 35 10.5 3.3 21.1 6.2 31.7 8.9 2 .5 4.5.3 5.1 3.1 2.2 7.1 0 14.5 1.8 21.7 3.4 13.5 5.8 27.3 10.5 40.6 2.8 7.8 3.2 16.5 5.8 24.4 4 12.1.3 23.4-1.8 34.9-.9 4.6-.4 9.2-.8 13.9-.8 10.2-4 20.2-2.5 30.5.8 5.5 2.9 10.8 3.1 16.5 0 1.5 1.6 1.6 2.7 2.2.6.2 1 .5 1.2 1.1z" fill="#2da9c4"/>
        <path class="st52" d="M207 1147.1s-.1 0 0 0c-2.7-.9-4.2-3.1-5.8-5.2.5.1.9.3 1.3.5 1.4.7 2.5 1.8 3.4 3.1.4.5.7 1 1.1 1.6-.1 0 0 0 0 0zM199.1 1139.7c-1.7-.8-3-2-3.8-3.8.4.1.8.2 1.1.4 1.1.5 1.9 1.3 2.3 2.4.2.3.3.6.4 1z"/>
        <path d="M69.9 963.1c-1.5-.9-2.2-2.3-2-4.1 1.5 1 2.1 2.4 2 4.1z" fill="#77d3cb"/>
        <path d="M521 17c10.5-2.7 21.1-5 32-5.9 3.3 6 3.7 12.7 4.8 19.2.5 3-1.9 4.5-4.4 5.3-3.8 1.2-4.3 3.4-3.3 6.9 1.7 5.7 3 11.6 4.8 17.3 1.5 4.6.8 5.7-3.7 6.5-3 .5-3.7 2-3.9 4.7-.9 8.5 1.8 16.5 2.9 24.7.4 2.7 2.5 2.7 4.5 2.9 8.5.9 11.7 5.1 10.3 13.7-.6 3.8-1.7 7.5-1.7 11.3 0 1.3-.2 3-1.5 3.5-4.4 1.9-3.1 5.2-2.3 8.5 1.1 4.2 1.8 8.5 3.4 12.5 2.8 6.9 1.3 10.5-8.2 11.8-6.8.9-6.8.6-4.8 7.4 1.4 4.6 2.9 9.2 4.4 13.8 1.2 3.7.8 6.6-2.8 8.5-2.2 1.2-2.5 2.9-1.9 5 .5 2.1.5 4-1.8 5.7 4.8-1.8 9.6-1.7 14.2-3 1.4-.4 3.1-.5 3.5 1.6-3.7 4.5-9.2 3.2-14 4.4-8.8.2-16.8 3.5-25.1 5.6-7.2 1.8-14.2 4.4-21.3 6.9-1.1.4-2.3.6-3.4.7-3 .2-4.9 0-4.1-4.2 1.3-7.4 0-8.8-7.6-10.1-4.9-.9-6.2-3.3-4-7.7.1-.1.3-.3.3-.4-1-9.6 7.8-18.3 2-28.5-2.8-5-1.5-11.1-1-16.7.3-3 0-5.9-.7-8.8-1.8-8.1-3.2-16.3-5.5-24.3-.7-2.5-1.7-4.5-3.4-6.5-4.2-4.5-3.7-8.5 1.5-11.7 1.9-1.2 1.8-2.4 1.5-4.2-1-4.9-2.4-9.7-3.8-14.5-.6-1.9-1-3.9-1.4-5.8-.6-3.5.6-5.5 4.5-5.2 1.1.1 2.3.4 3.5-.7-.9-1.9-2.9-1.8-4.5-2.1-3.4-.5-4.9-2.5-5-5.8-.1-3.5-.2-7 0-10.5.2-4.1-1.3-6.9-5-8.9-2.7-1.4-6-2.7-5.2-6.9 1.9-2.4 4.9-1.9 7.3-2.8 12.4-3.8 24.9-7 37.4-10.1 4-.8 8.5-1.2 12.5-3.1z" fill="#2c93ca"/>
        <path d="M737.2 5.9c-11.7.4-23.4-.8-35.1-1.1-1 0-2.3-1.4-2.8.5-.3 1.3.7 2.1 1.6 2.9 1.1 1 2.5.7 3.8.8 7 .5 9.5 3.4 9.3 10.1-.1 4.8.6 9.8-6 11.3-1.7.4-1 2.5-.8 4 2.3 12.5 7.5 24.2 10.3 36.5 1.7 7.5 3 15.2 4.3 22.8.4 2.2 1.5 4.1 1.8 6.1 2.7 16.7 7.8 32.9 12 49.2.8 2.9 1.9 6.4-2.7 8.2-2.6 1-2 4.3-2 6.8 0 6.9 0 6.9-6.4 5.6 1.3 2.1 1.3 2.1 8.4 4.4.4.8.4 1.7-.1 2.4-4.1 5.6-8 11.3-13.7 15.1 3.1-.6 6.4.1 9.8.5 12.6 1.4 24.9 4.3 37.3 6.9 3.1.7 3.3 1 3.1 3.8-7.3.9-14.1-1.9-21.1-3.2-19.9-3.5-39.8-6-59.9-7.2-13.8-.9-27.6-.5-41.4-.9-5.5-.1-10.9 1.3-16.4 1-2.3-.1-4.7.2-6.9-.9-1.6-1.3-.3-2.2.7-2.4 3.2-.8 6.5-2.4 9.7-2.1 3.2.2 3.5-1.6 3.9-3.4 1.5-7.6 1.1-15.2-.9-22.6 1.5-5.1 3-10.1 3-15.6 0-3.8 3.1-4.6 6.4-4.8 6-.3 5.8-.3 4.5-6.2-1.3-6-2.6-12-4.5-17.9-.9-2.8-.2-5.4 3.1-6.3 2.7-.7 3.1-2.5 3.3-4.8.6-6.6.3-13-.8-19.7-.9-5.6 2.8-11.5 4.3-17.2.5-1.9 3.4-1.9 5.4-1.8 3.7 0 4.6-1.9 3.9-5.1-.7-2.9-1.7-5.8-2.7-8.6-1.2-3.2-1.2-6.5-1.1-9.9.1-2.5.8-4.6 3.6-5.3 2.6-.6 3.4-2.4 3.3-4.8-.2-6.1.8-12.3-1.4-18.3-.6-1.7-.8-3.7-.3-5.4 1.2-3.9-.7-4.2-3.9-4.5-14.5-1.3-28.9 1.1-43.4.7-2.6-.3-5.5.7-7.7-1.5 8.9-1.5 17.8-1.9 26.8-2 19.2-.1 38.3-.5 57.5.4 13.5.5 27.3 1.1 40.9 3.5z" fill="#2d8ed2"/>
        <path d="M638 161c3.3 7 1.9 14.4 1.8 21.6 0 2.5-1 5.4-5.1 5.6-4 .2-7.8 1.9-11.8 2.9-.5 2.6-2.6 2.2-4.3 2.3-15.9.9-31.6 3.4-47.2 6.5-2.2.4-4.6 1-6.5-1-4.5-1.1-8.5 1.6-12.8 1.7-1.9 0-3.9.4-6.8.3 4.2-2 3.5-4.7 2.3-7.5-1-2.4-1-3.9 2.2-4.6 3.4-.8 4.6-3 3.2-6.8-2.4-6.5-4-13.3-6.2-19.9-1.2-3.5.4-4.2 3.3-4.1 1.7.1 3.1 1.1 4.9.8 7.7-1.3 8.6-2.9 6.3-10.5-1.5-5.1-3-10.2-4-15.3-.5-2.5-2-6.4 3.2-6.5 1.8 0 1.5-1.6 1.4-2.6-.2-4 .7-7.9 1.8-11.7.9-3 0-5.9-1-8.8-.9-2.5-2.5-3.7-5.2-3.5-2.5.1-5 .3-7.4-.8-1.5-.6-2.4-1.3-1.7-2.9 1-2 .3-3.9-.4-5.8-2.6-6.7-1.8-13.7-2.1-20.7-.1-3.5.7-5.5 4.6-4.9 4.1.7 4.3-1.4 3.4-4.5-1.9-6.3-3.8-12.6-5.5-18.9-.9-3.3-1.6-6.4 3.8-7 3.7-.4 5.3-2.6 4-7.1-1.5-5.4-3.2-10.8-3.3-16.5C566 7.4 579.5 6.4 592.8 5c6.3-.7 12.5-2 18.9-1.3 2.7 0 5.4.1 8.2.1-.6 2.8-3 2.3-4.8 2.2-7-.2-13.9 1.5-20.9 1.1-1-.1-2 .1-3 .3-1.4.4-3.3.3-3.5 2.1-.2 1.7 1.5 2.4 2.8 3.2 2.2 1.3 4.7 1.4 7.2 1.7 4.3.5 6.5 3 7.1 7.1.6 3.8-.7 5.6-4.5 6.3-1.9.4-4.7-.5-5.3 1.7-1 3.6-3.7 6.7-2.6 10.9 1.2 4.6 3.7 9 2 14.1-.6 1.9 1.6 2.8 3.1 3.4 4.9 2 7.1 6 7.7 10.9 1.3 10.1 4.4 19.8 6.6 29.7 1.9 8.3 4.3 16.4 5.9 24.7.8 4.1 2 7.7 6.2 9.6 2.7 1.3 3.5 3.8 3.5 6.7.1 4 .1 8 0 12 0 3.7 1.5 6 5.3 6.6 2 .7 4 1.2 5.3 2.9z" fill="#2c91ce"/>
        <path class="st64" d="M521 17c-3.4 3.2-8 2.8-12 3.8-12.7 3.3-25.4 6.7-38 10.2-.3-.2-.5-.5-.4-.7.1-.2.2-.4.3-.4 16.4-5.5 33.2-9.7 50.1-12.9z"/>
        <path class="st35" d="M404.9 53.8c10.7-5.1 21.7-9.4 33-13 .1.2.2.5.3.7-.3 1.5-1.5 2.1-2.7 2.6-8.5 3.1-16.8 6.9-25.3 9.9-1.7.6-3.4 1.4-5.1 0l-.2-.2z"/>
        <path class="st35" d="M471 29.9V31c-2.3.7-4.7 1.4-7 2-.8 1.6-2.4 2.1-4 2.7-5.4 2-11 3.6-16.4 5.5-1.8.7-3.8 1.4-5.6-.2l-.2-.2c10.9-4.4 21.9-8 33.2-10.9z"/>
        <path d="M622 1148.1c-1.3-.2-3 .4-4-1.1 2.2-2.1 5-1.7 7.6-1.4 18 1.6 36 1.2 54.1.9h2c11.8.8 23.4-1.1 35.1-2.3 6.6-.7 13.1-1.8 19.7-2.2 4.4.2 5.6 2.7 6.4 6.9 2.2 12.1 6.3 23.8 9.3 35.8 1.8 7.3 2.7 14.4 1 22.1-2.4 11-3.6 22.1.4 33.4 2.8 8 0 16.5-1 24.7-.9 7.1-2.5 14-3.1 21.2-.1 1.2.2 2.4-.2 3.5-3 9 .7 16.9 4 24.9.9 2.1 2.6 4 1.7 6.6-3.2 1.2-6.6 1.1-10 1-.7.6-1.6.6-2.2.1-3.2-2.5-5.2-1.2-6.8 1.9-18.3 1.8-36.6 2.6-55 2-1.6-1.8-1.7-4-1.5-6.2 1.2-11.8-2.5-22.7-5.4-33.8-2-7.9-4.5-15.8-3.5-24.1.6-4.8 1.5-9.5 2-14.3 1.6-18 .2-36 .9-53.9.5-12.8.6-25.6 2.8-38.2.9-5.3 1.4-5.7 6.9-5.1.8.1 1.7.1 2.5.1 1.7 0 3.3.2 5-.3-21 .9-42.1.5-63.1.2-2.1-.1-4.4-.1-5.6-2.4z" fill="#2ea3cc"/>
        <path class="st66" d="M755 1321c-4.2-7.1-6.6-14.8-8.7-22.6-.2-.6-.5-1.5-.2-1.9 3.4-6.2.7-13.4 3.4-19.9 1.8-4.3 1.3-9.4 2.1-14.1 1.7-10 2.6-20.4-1.3-30.4-2-4.9-1.3-10-.2-15.2 2.8-12.8 3.3-25.4-.9-38.4-3.5-10.8-7.7-21.6-8.1-33.3-.1-2.6-3.2-.3-4.1-2.1 1.2-1.9 3.2-2.2 5.2-2.5 16.5-2.7 32.8-6.8 49-10.9 2.6-.1 5.2.3 7.6-1.4.5-.2 1-.4 1.6-.5 2.7 0 4.9.4 2.9 3.9-.9 1.6-.7 3.2-.4 4.8 2.5 12.4 5.4 24.7 9.5 36.6 3.5 10.2 3.2 20.5 2.6 31-.7 12.8-3 25.4-5 37.9-2.5 15.6-3.3 31.3-6.1 46.8-.8 4.4-.8 8.9-2.1 13.2-.6 1.9-.3 4 .8 5.8.8 1.4 1.8 2.9.9 4.7-3.6 1.5-7.4 2.4-11.3 2.7-6 1.6-12.2 2-18.1 3.7-3.8 1.3-7.8 2.1-11.9 1.9-2.4.3-4.8.2-7.2.2z"/>
        <path d="M622 1148.1c1.7.8 3.5.9 5.3.9 10.6.3 21.2-.6 31.9.8 6 .8 12.2-1.6 18.3-.9 6.3.8 12.5 1.5 18.9.6-4.4 1.9-8.9 1.4-13.4 1.3-3.4 0-4.7.6-5.2 4.5-.7 5.5-1.9 11.3-2 16.6-.2 6.4-.7 12.8-.7 19.2 0 13-.2 26 .1 39 .2 8.2-1.2 16.2-1.3 24.3 0 3.8-2 7.5-1.9 11.6.2 6.5 1.6 12.9 3.5 18.9 4.3 13.4 6.5 26.9 5.6 40.9h-50c-2.2-11.6-7.8-22.9-5.8-34.9 1.9-11.2 1.6-22.6 4.2-33.8 1.4-5.8 1.3-12 2.4-18.1 1.3-7.6 1.7-15.3 3.9-22.8.9-2.9-.9-5.1-1.5-7.6-1.6-6.4-3.2-12.7-5.5-19-1.9-5.2-1.7-11-3.5-16.4-2.2-6.7-3.3-13.7-5.2-20.5-.7-2.2-.5-3.7 1.9-4.6z" fill="#2da5ca"/>
        <path class="st66" d="M736 1324c.1-1.8-.4-3.8 1.8-4.7 2.1-.8 3.8-.1 5.1 1.8.4.6 1.4.6 2.2.9-2.9 1.5-6.1 1.3-9.1 2z"/>
        <path class="st25" d="M1325.1 620.9c0 3.3 0 6.7-.1 10.1.9 2.4.8 4.8.1 7.1-.5 1.7-.3 2.8.9 3.9v7c-3.4 1.1-7 .7-10.3-.1-14.6-3.1-29.5-4.7-44.1-7.8-16.6-3.5-33.5-5.1-50.1-8-16.6-2.9-33.2-6.6-50.2-7.9-8.2-.6-16.2-3.3-24.6-4-3.9-.3-5.5.8-5.3 4.8.1 3.5.4 7 0 10.5-.2.6-.7.9-1.3 1.1-.6.1-1.2 0-1.8-.2-1.7-1.3-1.7-3.2-1.7-5 .2-5.3-.3-10.6-1.2-15.8-1.4-5.4-.5-11-1.8-16.3-.9-9.5-2.7-18.9-4.8-28.2-.8-3.4-1.1-6.8-1.7-10.2 1.6-5.3-.9-9.8-2.7-14.5-.3-.5-.5-1-.6-1.6-.4-2.3-.4-4.6-.8-6.9-.7-4.3 1.6-6.4 5.8-5.5 12.2 2.6 24.5 4.6 36.7 6.8 8.3 1.4 16.7 2.8 25.1 3.5 9.8.8 19.3 3.4 28.9 4.9 10.3 1.6 20.6 3.6 30.9 5.4 13.1 2.2 26.4 3 39.3 6.1 8 1.9 16.3 2.9 24.5 4.6 1.6.3 3.3.6 4.7 1.5 2.6 12.3 3.5 24.8 4.8 37.2.8 5.7 1 11.6 1.4 17.5z"/>
        <path class="st26" d="M1319.1 566c-7.3.3-14.3-2-21.3-3.5-4-.9-8.1-1.1-12.1-2.1-7.6-1.9-15.6-2.2-23.4-3.4-7.3-1.1-14.6-2.2-21.8-3.4-5.2-.8-10.3-2-15.5-2.8-5.8-.9-11.6-2.2-17.4-3.2-8.4-1.5-16.8-3-25.4-3.8-6.8-.7-13.7-1.3-20.3-3.3-3.9-1.2-8.1-1.2-12.1-2.1-7.3-1.6-14.9-2.2-22.2-4.2-2.8-.8-4.2 1.3-3.3 3.9.9 3 .6 5.9.7 8.9-2.3.2-2.7-1.7-3-3.2-3.3-13.3-7.8-26.2-12.3-39.1-1.8-5.9-4.1-11.5-6.6-17.2-.8-1.9-1.8-3.6-.1-5.5.2-5.3 1.3-5.8 6.3-4.4 5.7 1.5 11.6 2.3 17.3 3.4 5.6 1.1 11.4 1.8 16.8 3.4 4.1 1.2 8.2.5 12.3.9 10 1 19.8 3.1 29.6 5 9 1.7 18.1 3 27 5.2 8.6 2 17.6 2.5 26.4 3.5 6.5.8 13 1.8 19.3 3.5 3.8 1.1 7.8 1.3 11.6 1.8 5.7.8 11.2 2.7 17 2.8 5.3.1 10.6 2.1 16.1 2.3 1.5.1 2.9.9 4.1-.5 2.9 8.8 3.6 18 5.9 26.9 1.4 5.4 2.3 10.9 3.6 16.3 1.1 4.2-.9 9.1 2.5 12.9.4.3.4.6.3 1z"/>
        <path class="st68" d="M1141 637c-2-5.2-.7-10.5-.9-15.8-.1-2.1 1.4-2.2 3.1-2 11.8 1.1 23.2 4.7 35 5.4 10.1.6 19.8 3 29.6 4.7 9.6 1.7 19.6 2 28.9 5.3 3.1 1.1 6.6 1 9.8 1 10.2.1 19.8 3.3 29.7 4.6 11.8 1.6 23.6 3.6 35.3 6.1 4.8 1 9.9.5 14.5 2.6v42c-.3 3 .7 6.2-1 9-1.8 1.8-.9 4.1-1 6.1-.1 7 .4 14.1-2 20.9-3.2 1.9-6.6.5-9.7-.1-21.4-4.1-43.1-6.2-64.4-10.4-10.4-2.1-20.9-4-31.4-5.4-21.7-2.9-43.4-6.5-64.9-10.6-4.2-.8-7.6.4-11.2 1.7-2.5-2.3-1.3-5.5-1.8-8.2.1-.9.6-1.7 1.2-2.4 1.3-2 .9-4.2.9-6.3v-42.4c-.1-1.8-.2-3.8.3-5.8zM1326 642c-2.1-.3-3.9-1.4-2.3-3.5 2-2.5.9-5 1.3-7.5 1.9 2.8.4 6 1 9v2z"/>
        <path class="st3" d="M600.9 1325c1.7.2 3.6-.7 5 1-1.6-.2-3.5.6-5-1z"/>
        <path d="M1140 680c-.1.6-.1 1.2-.2 1.9-.4 3.8-.9 7.6-1.2 11.4 0 .4-.1.9-.1 1.3-.1 1.7-.2 3.4-.1 5.1v3.1c0 3.1-.2 6.3-.4 9.4-.2 2.4-.4 4.7-.6 7.1v.1c0 .2 0 .4-.1.6v.2c-.4 3.9-.9 7.8-1.5 11.7v.2c-.3 2.5-.7 5-1.1 7.5 0 .1 0 .3-.1.4-.1.5-.1.9-.2 1.4-.1.9-.2 1.7-.4 2.6-.1.6-.2 1.3-.3 1.9-.5 3.3-1 6.6-1.6 9.9-.7 3.7-1.4 7.4-2.2 11-.6 2.8-1.2 5.5-1.8 8.3-.1.2-.1.4-.2.7-.3 1.3-.6 2.7-.9 4-.2 1.1-.5 2.1-.8 3.2-.4 1.8-.9 3.5-1.3 5.3-.6 2.4-1.2 4.7-1.8 7.1-.3 1.3-.7 2.6-1 3.9-.2.6-.3 1.2-.5 1.7-.2.7-.4 1.5-.7 2.2-.1.2-.2.5-.2.7l-3.9 12.6c-.1.2-.1.3-.2.5-1.7 5.2-3.4 10.4-5.3 15.6-.1.2-.1.4-.2.6-.2.7-.5 1.3-.7 2-1.6 4.5-3.3 8.9-5.1 13.3-.7 1.8-1.4 3.6-2.2 5.4-.8 1.9-1.6 3.9-2.5 5.8-3 6.9-6.1 13.8-9.4 20.6-.7 1.4-1.2 3-2.4 4-.3.3-.7.5-1.1.7v.1c-8.4 15.4-16.8 30.7-26.3 45.4-.9 1.3-1.8 2.7-2.7 4l-3.3 4.8c-6.5 9.2-13.2 18.3-19.8 27.5l-.3.3c0 .5-.2.7-.7.8-.1.1-.2.3-.3.4-14.5 17.8-30.2 34.5-46.4 50.7l-.1.1c-15.4 13.9-31.6 26.9-47.9 39.7-.1.1-.2.1-.2.2v.1c-.1.2-.1.3-.2.5-1.1 1.4-2.7 2.2-4.1 3.2-.2.1-.3.2-.4.3h-.1s-.1 0-.1.1l-.1.1-.3.3c-1 .6-2 1.3-2.8 2.1-.4.4-.8.7-1.2 1.1-1.8 1.7-3.8 3-6 4.2-.6.3-1.1.5-1.7.8-1.5.8-3 1.7-4.4 2.6-.5.3-.9.6-1.4.9-.4.3-.7.5-1.1.8-.1 0-.2.1-.2.1-.3.2-.6.3-.9.5-5.5 3.1-10.4 7.4-16.6 9.2-.2.1-.5.3-.8.4-9.6 4.9-19.1 9.9-28.8 14.7-8.4 4.2-17 8-25.5 12-.6.4-1.1.7-1.7 1-8.9 5.2-19 7.6-28.6 11.2-2.6 1-5.2 2.2-8.1 2.3-1 .2-1.9.4-2.9.6-.5.1-1 .2-1.6.3-.3.1-.6.1-.9.2-.3.1-.7.1-1 .2-1.5.3-2.9.7-4.4 1-5.6 1.3-11.1 2.8-16.6 4.2-12.9 3.3-26 6-39.2 8.1h-.3c-2.8.5-5.7.9-8.5 1.3-14.9 2.1-29.8 3.8-44.8 4.1h-1.2c-.4.1-.8.2-1.2.5-19.5.6-39 .7-58.5-.9-.9-.1-1.7-.1-2.6-.1h-2.8l-26.4-3.6c-11.5-1.5-22.8-3.5-34.1-6.2-1.4-.3-2.9-.2-4.4-.3-10-2.9-20.1-5.8-30.1-8.7-31.9-9.3-62.2-22.4-91.4-38.2-.7-.4-1.5-.7-2.2-1.1-.8-.3-1.5-.6-2.2-1h-.1c-2.6-.8-4.5-2.8-6.9-3.9-2.8-3-6.6-4.4-9.9-6.4-11.2-6.8-21.8-14.6-32.7-22l-.1-.1c-1.4-1-2.8-1.9-4.3-2.8-7.3-6-14.6-12-21.9-18.1-9.6-8.1-18.8-16.6-27.6-25.4l-1.2-1.2c-4.2-4.2-8.3-8.5-12.3-12.9v-.1l-.9-.9c-1-1.1-2.2-2-3.3-3-14-16.7-27.9-33.4-40.1-51.5-17.7-26-32.7-53.4-44.9-82.1-.4-.9-.8-1.9-1.2-2.9-.6-1.3-1.1-2.7-1.7-4.1-.6-1.5-1.2-2.9-1.8-4.4-.5-1.3-1-2.5-1.5-3.8-2.4-6.4-4.8-12.8-6.9-19.3-6.2-18.6-11.5-37.4-15.3-56.7l-.3-1.2c-.3-1.2-.8-2.3-1.1-3.5-1.2-8.2-2.2-16.4-3.5-24.6-3.2-20.4-4.6-40.9-4.8-61.5 0-1.6-.3-3.3-.5-4.9 0-.3-.1-.6-.1-.9-1.2-9.4-.7-18.9-.2-28.3.2-3.9.2-7.9.9-11.9.5-1.8.8-3.5 1.1-5.3 1-6 1.2-12.2 1.9-18.3.1-1.3.3-2.6.5-3.9v-.3c2-12.8 4.3-25.6 6.8-38.2.1-.5.2-.9.2-1.4.1-.8.2-1.7.3-2.5 4.4-18.7 9.9-37 16.4-54.9 10.7-29.4 24.1-57.7 40.3-84.8.2-.3.4-.7.6-1 3.2-4.7 6.4-9.5 9.6-14.2 4.3-6.4 8.8-12.7 13.6-18.8 7.3-9 14.5-18.1 22-27.1 19-22.8 40.2-43.4 63.2-62.1.9-.7 1.6-1.6 2.4-2.4l.4-.4c.3-.3.6-.5.9-.8l3.3-2.4c9.5-6.9 19-13.8 28.8-20.4 31.7-21.4 65.5-38.7 101.4-51.6 1.2-.4 2.2-1.1 3.3-1.7.1 0 .2-.1.2-.1.4-.2.8-.3 1.3-.5 12.6-5 25.7-8.6 38.8-12 3.7-1 7.3-2 11-2.4 4.6-.8 9.4-1 13.8-3.2h.2c8.4-.3 16.5-2.9 24.8-3.8 11-1.2 22-2.7 33-4 15.1-.4 30.2-1.4 45.3-1.1 27.6.6 55 3.1 82.1 8.5 6.3 1.3 12.6 2.3 18.9 3.5.2 0 .4.1.6.1 2.9-.8 5.7.2 8.3.9 10.3 2.8 20.5 5.7 30.6 8.9 1.3.6 2.6 1.1 3.9 1.5 6 2.2 12.2 3.6 17.9 6.5.8.4 1.5.8 2.3 1.2.2.1.3.2.5.2 1.4.6 2.8 1.2 4.2 1.7.5.2 1 .4 1.6.6.8.3 1.6.6 2.4 1 .2.1.3.1.5.2h.1c.4.2.8.3 1.2.5l1.5.6 1.8.6c.6.2 1.3.4 1.9.6 34.2 14.3 66 32.9 95.8 54.9.3.2.6.5.9.7.2.2.4.3.7.5 13.6 10.2 26.8 20.9 39.1 32.6 1.7 1.6 3.7 2.9 4.4 5.3l.1.1c11.6 12.3 23.3 24.5 34.9 36.8 6 6.1 10.9 13.2 16.4 19.7.1.1.1.2.2.2 8 10.7 15.2 22 23 32.9l.6.9c.2.3.4.5.6.8.4.5.7 1 1.1 1.5 1.5 2.1 2.7 4.4 3.9 6.7 1.4 2.8 2.8 5.6 4.8 8.1l.2.2c0 .1.1.1.1.2 7.2 13.5 14.5 26.9 20.8 40.8 1.8 3.9 3.5 7.9 5.2 11.9.2.5.5 1.1.7 1.6 2.8 6.7 5.5 13.5 8.1 20.3.1.1.1.2.2.4 0 .1.1.1.1.2 4.1 13.3 8.3 26.5 12.4 39.7.2.8.5 1.6.7 2.4 1.4 4.8 2.6 9.7 3.7 14.7 2.8 12.8 4.7 25.8 7.1 38.6 0 .1.1.2.1.4.9 5.1.5 10.3 1.8 15.3 0 .1 0 .2.1.3 0 .1.1.3.1.4.4 7 1.1 13.9 1.8 20.8.3 3.1.6 6.3.9 9.4.1 1.3.3 2.7.4 4 .1 1.1.2 2.1.3 3.2 0 .2.1.4.1.7.1.8.1 1.7.2 2.5 0 .3.1.6.1.9.1 7.7.2 15-.5 22.4z" fill="#fdfdfd"/>
        <path class="st27" d="M989.7 321.1c-14.2-12.8-28.8-25.1-43.8-36.9-2.6-2.1-1-3.6.7-5.2 5.1-4.7 10.7-8.9 16.3-13 11.9-8.7 23.5-17.7 35.8-25.9 1.4-.4 2.8-1.2 4.3 0-.9 3.5 2.2 2.1 2.9 1.9 5.8-1.9 11 1.2 16.4 1.8 6.6.7 13.3 1.9 19.7 3.7 6.1 1.7 12.5.8 18.4 3.3 3.3 1.4 7.2.9 10.8 1.1 9.8.5 19.2 3.1 28.6 4.7 9 1.6 18.2 2.5 27 5.3 4.1 1.3 8.6.8 12.8 1 9.8.6 19.1 3.2 28.7 4.7 9.2 1.5 18.4 3.2 27.6 4.6 4.9 4.3 7.9 10.1 11.6 15.4 12.2 17.7 23.5 36 34.1 54.7.6 1 1.7 1.9.8 3.1-1.1 1.4-2.8.9-4.2.8-11.3-1.2-22.5-3.4-33.8-5.2-18.4-3-36.6-7-55.2-9-13.1-1.3-26-4.6-39.1-6.7-11.1-1.8-22.2-3.3-33.3-5-12.4-2-24.8-3.8-37.1-6.3-10.4-2.2-21-2.7-31.4-4.6-8.6-1.6-17.3-2.8-25.9-4.4-2-.4-3.5-.6-5.3 1.1 5.9 5.5 11.7 11 17.4 16.5 1.4 1.3 3.3 2.5 3.3 4.8-3-1.8-4-6.2-8.1-6.3z"/>
        <path class="st26" d="M1074.8 429.1c-7.5-11.6-15-23.2-22.6-34.7-3.7-5.5-7.6-10.9-11.4-16.3.4-.4.8-.5 1.2-.1 8.2 10.6 15.6 21.8 23 33l1 1c1.9 2.5 4.2 4.8 5 8 1.7 3 3.3 6 5 9-.4.6-.8.6-1.2.1z"/>
        <path class="st21" d="M1042 378c-.4 0-.8 0-1.2.1-5.7-6.4-11.1-13-16.1-20 6.3 3.8 9.1 10.6 14 15.6 1.3 1.2 2.2 2.8 3.3 4.3z"/>
        <path class="st27" d="M997.5 326.6c3.2 1.2 4.6 2.9 5.7 5-2.4-.8-3.8-2.7-5.7-5z"/>
        <path class="st25" d="M1074.8 429.1c.4 0 .8 0 1.2-.1 9 16.8 18.4 33.4 25.3 51.3.3.7 1.1 1.1 1.7 1.7-.2 4 2.5 7 3.7 10.5 1.3 3.9 2.8 7.7 4.3 11.5-.4.5-.8.6-1.2.1-5.7-12.3-10-25.2-15.9-37.4-5.6-11.6-11.4-23.2-17.7-34.4-.6-1.1-1-2.2-1.4-3.2z"/>
        <path class="st20" d="M1071 420c-2-2.5-4.2-4.8-5-8 3.3 1.6 5.5 4 5 8z"/>
        <path d="M809 213c-13-3.6-26-7.2-39-10.9-2.1-3.1-5.5-1.6-8.2-2.4-12.5-3.6-25.3-5.8-38.2-6.8-1.8-.1-3.6-.7-5.6-1.1 5.6-5.6 11.1-11.1 15.1-17.8 18.3-19.3 33.6-40.8 48.5-62.8.3-.5 1-.8 1.5-1.2 1.3 5.2 4.3 6.2 7.8 1.8 3.6-4.6 7.1-5.4 12.5-3.6 4.5 1.5 6.6-.3 7.4-5.1.8-4.5 2.2-5.8 6.6-5.1 4.6.7 9.1 1.9 10.5 7.5.6 2.6 3.2 4.2 4 6.8.2 3.7 2.1 5.5 5.8 6 2.6.4 5.2 1.1 7.7 1.9 4.2 1.3 5.8 4 4.9 8.4-.4 2.1-.9 4.2-1 6.4-.3 9.6 1.9 12.3 11.6 13.6 2 .3 4 .2 5.9.7 7.8 2.2 10.4 9.7 5 15.8-3.2 3.7-2.2 7.8-2.9 11.8-.4 1.9 1.5 1.8 2.8 2 3.5.5 6.2 2.2 8 5.3.6 1.6.7 3.2.6 4.9-.4 4.6-2.1 6-6.8 5.8-5.6-.2-5.9.1-6.1 5.6-.3 8.1-.8 8.7-8.5 8.5-2.7-.1-4.6.8-4.3 3.5 1.1 9.2-5.1 11.1-12 12.5-3.3-.1-6.1-2-9.1-3-7.7-4.2-16.2-6.5-24.5-9z" fill="#2a85c6"/>
        <path d="M831 112c-2.1-2.9-5.1-4.9-5.4-9.1-.1-2.3-10.4-4.9-12.5-3.6-1.4.9-1 2.3-1.1 3.6-.4 6.4-4.1 9-10 6.5-4.2-1.8-7.2-2.1-9.2 2.8-.4.9-1.8 1.4-2.6 2.3-2.3 2.4-5.6 2.4-7.9 1.2-2.6-1.3 1.2-3.5.7-5.6 7.4-12.7 15.6-25 22.2-38.2 7.1-14.2 14.3-28.3 19.8-43.2 1.2-3.4 2.2-6.9 7.1-4.5 10.9 3.3 21.8 6.3 32.6 9.9 13.6 4.6 27.4 8.5 40.3 15-1.1 2.1-1 4.4-1 6.8 0 3.6-1.1 6.7-5.2 7.5-2.7.5-3.4 2.3-3.4 4.7 0 3.3.2 6.7-.1 10-.5 5-3.3 7-8.2 5.9-2.4-.6-4.8-1-7.3-1.5-4.3-.7-8.3-1.7-10.5 3.8-.9 2.2-3.9 2.3-6.3 2.2-3.1 0-4.3 1.2-4.6 4.4-.6 8.4-2 9.4-10.1 8.8-1.2-.1-2.3 0-3.5-.2-4.2-.6-6.4.3-6.7 5.2-.3 4.9-2.6 6.3-7.1 5.3z" fill="#2881c3"/>
        <path class="st72" d="M1003 240c-1.3.3-2.7.7-4 1 3.8-5.6 2.4-11.9 2.5-18 .1-2.7-1.1-4.3-3.9-4.9-2.9-.6-5.7-1.6-8.8-1.8-6.6-.6-8.2-2.4-8.3-9.2-.1-2.8.1-5.7 0-8.5-.2-5.1-1.4-6.8-6.3-7.1-4-.3-7.8-1.8-11.7-2.3-3.9-.5-5.7-3-5.9-6.8-.2-3.8-.1-7.6-.1-11.5 0-3.3-1.3-5.4-4.9-5.6-2.9-.2-5.5-1.1-7.7-3-1.1-3.7 1.5-4.5 4.1-4.5 3.9-.1 5.3-2 6.3-5.5 1.8-6.8 5.5-8.5 12.5-7 1.8.4 3.7 1.6 6 .4-2-1.7-4.2-1.2-6.2-1.5-7.3-1-9.3-3.3-8.9-10.5.3-4.5 1-8.9.9-13.4-.1-3.4 1.9-4.8 5.2-4.1 1.2.2 2.2.7 3.4 1 7.1 1.5 9 .2 9.4-7.1.2-3.4 1.2-5.8 4.9-6.5 4.4-.8 5.2-3.9 5.1-7.8 0-2.3-1.6-5 1.4-6.8 14.1 8.3 28.5 16.2 42.1 25.4 20.6 14 40.5 28.8 59.6 44.8 1.5 1.2 3.3 2.4 3.3 4.8-4.8 5-9.5 10.1-14.5 15-14 13.8-29.2 26.4-44.9 38.3-.6.5-1.1 1.2-1.7 1.8-1.9 1.1-3.2 2.9-5 4-1.9 1.5-4 2.7-6 4l-1 1c-2.3 1.8-4.8 3.2-7 5-3.2 2.2-6.6 4.6-9.9 6.9z"/>
        <path class="st27" d="M1013 233c1.6-2.6 4.1-4.1 7-5-1.6 2.7-4.1 4.1-7 5zM1021 227c1.5-2.1 3.5-3.3 6-4-1.3 2.4-3.4 3.6-6 4zM1027 223c1.2-1.9 2.5-3.8 5-4-1.2 1.9-2.5 3.8-5 4z"/>
        <path d="M988 89c-1.5 2.9.2 5.8.1 8.7 0 4.4-2 6.8-6 7.1-3.8.3-4.2 2.2-4.2 5.2-.1 8.8-3.8 11.3-12.3 8.2-5.7-2.1-6.2-1.8-5.6 4.4.3 4-1.1 7.9-1.1 11.9 0 6.2 1.8 8.1 8 8.5 2.1.1 4.3-.4 6.4.7 1.2.6 2.6 1.2 2.4 2.8-.3 1.9-2 1.3-3.2 1.5-2.1.3-3.9-.6-5.8-1.2-6.9-2.1-11 .1-11.6 7.2-.3 4.5-2.2 5.3-5.9 5.1-2.3-.1-4.9-.5-5.3 3 1.4 3.3.4 6.5-.2 9.7-.4 2.5-2.5 3.4-5 2.9-1.9-.4-3.8-1-5.9-1.2-6.3-.5-6.3-.5-7.8 5.6-.7 2.7-2.1 4.1-5 3.4-4.5-1.1-9.4-1.3-9.9-7.7-.3-3.1-3.3-3.4-5.9-3.2-2.8.1-2.8 2.3-3 4.4-.1 1.2 0 2.3-.2 3.5-.4 3.7-2.6 5.2-6.2 4.7-1.7-.2-3.3-.7-4.8-1.3-4-1.6-7.8-1.5-11.2 1.3-1.8-1.2-3.5-2.5-5.3-3.6-2.4-1.5-9.5 2.2-5.8-5.9 1.5-3.2-1.2-7.7 3.4-10.6 3.5-2.1 2.2-6.7 1.4-9.7-.9-3.3-5.1-4.2-7.9-4-5.2.4-9.2-2.5-13.9-3.5-1.7-.4-2.9-1.8-2.8-3.7.1-5-.9-10 1-14.8 1.5-3.7-.4-6-3.6-6.8-2.9-.7-5.9-2.1-8.6-2-6.1.2-6.4-3-5.9-7.4 4.5 0 6.2-2.6 6-6.7-.2-4 0-7 5.6-5.4 2.9.9 6.2 0 9.4.8 2.7.7 4.3-1.4 4.9-3.8.2-.9.3-2 .1-3-.9-5.3.9-7.8 6.6-6.9 3.4.5 5.8-1.1 6.4-4.8.3-2.2 1.5-4 3.6-2.7 4.5 2.7 9.8.7 14.5 3.2 3 1.6 5.9-.4 6-4.4.1-4.3.1-8.7 0-13 0-1.9.4-3 2.7-3.3 5.8-.8 6.7-2.4 5.6-8.6-.4-2.3-.7-4.5 2.8-4.3 13.9 4.8 27.3 10.8 40.4 17.3C957 72 968.8 77.4 980 84c-.4.5-.3.9.2 1.2.3.2.6.1.8-.2 2.5 1.1 5.3 1.6 7 4z" fill="#2981c7"/>
        <path class="st72" d="M981 85c-.1.6 0 1.5-.9 1.2-.5-.1-1.2-.8-1.3-1.3-.3-1 .7-.8 1.2-.9l1 1z"/>
        <path class="st74" d="M141.4 632c-.5 4.2-.9 8.4-1.9 12.4.4-4.2 1-8.3 1.9-12.4zM142 627c-14-18.1-25.8-37.6-36.9-57.6-7.7-13.9-14.4-28.2-21.6-42.3-1.2-2.3-1.2-5.1-2.6-7.3-.4-.7-1-1.3-1.8-1.8.6-.1 1.1 0 1.5.1 1.3.5 1.6 2 2.1 3.2 15.7 34.9 33.7 68.6 56.4 99.5 1.2 1.9 3 3.6 2.9 6.2z"/>
        <path class="st37" d="M274.3 386.1c-7.3 11-14.7 22-22 33-6.4 8.9-11.2 18.7-16.3 28.3-9.1 17.4-17.2 35.3-24 53.8-.5 1.5-.6 3.4-2.5 4-.5-.2-.9-.5-1.2-1-.7-3.5-2.9-5.5-6.3-6.3-5-1.2-7-4.5-8.1-9.5-2.9-13.1-6.2-26.2-10.6-38.9-2.8-8-2.3-16-1.3-24.1.3-3 2.5-3.5 5.1-3.3 6.2.3 7.2-.8 6.5-7-.3-3.1-1.6-5.7-3.5-8.1-2.2-4.4-2.3-9.3-3.5-13.9-.4-1.4 0-2.6 1-3 4.3-1.5 3.4-5 3.5-8.2 0-1.2-.4-2.6.2-3.4 3.8-5.6.6-11.3-1-16.1-2-6.2-2.2-12.3-2.2-18.5 0-3.3-.5-5.8-3.8-7.4-1.8-.9-2.9-2.8-2.2-4.6 2.6-7.2-.9-14.4-.1-21.6.2-2 .1-4 0-6-.1-3-.3-5.8 4.1-5.4 1.8.2 1.8-1.5 1.9-2.9 2.9-.2 3.7 1.8 4.2 4 .5 2.4 1.4 4.8 2 7.2 1.1 4.3 4.6 4.9 8.1 5.3 2.1.3 2.9-1.3 3.2-3.1.7-5.1 1.5-10.2-.3-15.3-2.3-6.3.8-12.4 1.3-18.6.2-2 2.2-3.4 4.5-3.2 2.5.2 3.8 2 4.2 4.3.7 3.8.2 7.6.3 11.5 0 3.2.4 6.1 4.1 7.1 3.5 1 5.6-.7 8.1-3.2 4.3-4.4 4.4-8.9 2.2-14.1-1.7-4.2-2.5-8.6-2.8-13.1-.1-2.2.3-4.8 2.9-5.1 2.9-.3 3.1 2.4 3.4 4.5.6 3.7-1.4 8.1 1.8 11 2.7 2.5 7 1.5 10.4 3 1.5.7 3.3.3 4.6 1.7 1 2.9 1.2 6 1 9 1.1 1.9.3 3.9.2 5.8-.1 3.8.9 6.8 3.8 9.2 3.2 2.1 2.4 4.9 1.1 7.5-1.5 2.9-3.7 1.1-5.6.3-1.4-.7-2.9-.7-4.4-.8-3.7-.2-4.9 1-3.3 4.7 5.1 12.1 7.4 25 11.7 37.4 1.7 5 1.6 11.3.7 17.1-.5 3.1 1 5.8 1.7 8.7 1 4.2 3.4 8 3.2 12.5 0 .2 0 .4.1.5 6.8 4.3.5 7.5-1 11.1-.1.3 0 .6 0 2.5 2.8-3.8 4.7-6.8 6.9-9.6 2.4-3.3 3.7-7.8 8-9.7z"/>
        <path class="st75" d="M250 280c-5.1.7-9.5-2.4-14.6-2.5-2.6-.1-3.4-2.8-3.4-5.4v-9c0-1.2-.3-2.5-1.8-2.6-1.5-.1-1.9 1.5-2 2.5-.2 3.7.6 7.2 1.6 10.7.8 2.7 1.8 5.4 2.6 8.1 1 3.5 1.7 6.9-2.5 9-.7.3-1.4 1.2-1.5 1.9-1.3 5.4-5.5 4.7-9.2 4.1-4.1-.7-5.5-3.7-5.2-7.8.3-3.6 0-7.3.1-11 0-2.4-.8-4.6-3.4-4.7-2.6-.1-3.6 2-3.6 4.4-.1 7.3-2.3 14.4.6 21.9 1.3 3.4-.4 8.1-1.1 12.2-.4 2.5-2 3.2-4.8 2.4-7.8-2.4-9.7-4.2-10.6-12.9-.2-2.4-.9-4.2-3.1-5.2.2-6.4-2.5-12.3-4.4-18.1-2.1-6.2-.6-12.5-2.5-18.5-2.1-6.7-3.1-13.7-5.8-20.3-1.1-2.7-2.4-5.4-2.5-8.5-.1-2.3-.8-4.9-2.8-6.7 2.7-5.2 7-9.2 11-13.3 13.1-13.6 26.5-27 40.5-39.7 5.5-5 11.9-9 16.5-14.9 5.9-3.6 11.4-7.8 16-13 2.4-.1 4.1-3.7 6.1-2.4 1.9 1.4-.7 4.2-.2 6.5.3 1.4.1 3 .1 4.5-.1 5.4-.3 5.5-5.5 3.8-2.4-.8-5.1-1.1-7.2.3-2.6 1.8-.7 4.3-.2 6.4 1.6 6.6 3.5 13.1 5.3 19.6 1 3.6-.1 5.1-3.9 4.4-4.4-.9-5.8.9-5.6 5.4.4 6.7 3.2 12.8 4.6 19.3.6 2.7.4 4.4-2.2 5.7-2 1.1-4.9 11.4-4.1 13.6.8 2.3 2.8 1.9 4.6 2 6.4.3 8.2 2.1 8.2 8.5 0 3.3 0 6.6-.8 9.9-1.1 4.2 2.5 7.3 3.7 11 1.3 4.2.8 8.2 1 12.3.1 1.4-.7 2.4-2.1 2.2-3.3-.7-4.7 1.5-5.9 3.9zM255 304c-4.7-.6-5.3-3.9-5-7.7.2-2.5.6-4.9 1-7.3 2.2 4.8 2.7 10 4 15z"/>
        <path class="st76" d="M250.5 420.1c-.8.8-1.4 1.8-1.9 2.8-4.1 7.5-8.5 14.9-12.4 22.5-7.5 14.4-14.5 29.1-20.6 44.2-2.1 5.2-3.1 10.8-6.6 15.4.9-4.7-1.3-7.3-5.8-8-5.5-.8-7.3-4.3-8.3-9.4-1.8-8.9-3.9-17.7-6.5-26.3-3.3-10.8-7.6-21.3-5.7-33.2.6-3.9.7-5.9 5.4-4.4 2.2.7 5.5 1.6 6.6-2.2 1.4-4.7.2-9.3-3.1-12.9-.5-.6-1.1-1.1-1.8-1.7.4 2.1 1 4.1 1.1 6.3.3 6.2.5 6.2-5.5 5.7-3.7-.3-7.3-.3-6.7 5.1.1.8-.2 1.7-1.1 2.1-2.7 1.1-8.8-3.2-8.8-6.3-.1-4.3-.2-8.7 0-13 .2-3.5-1.5-4.8-4.7-5-3.1-.1-5.2 1.1-5.4 4.5-.4 8.1.4 16 3 23.9 2.9 9 4.6 18.5 6.8 27.7.2.9.5 2.2-.9 2.4-1.1.2-1.9-.7-2.3-1.6-1-2.3-1.8-4.6-2.5-7-1.8-6.9-11.2-10.7-17.2-6.9v10.9c0 2-.7 2.9-2.8 3.1-5.8.7-5.8.8-4.2 7 0 .4-.1.8-.1 1.1 0 4.1 2 7.9 2.2 12 .2.5.4.9.5 1.4.2.7.4 1.5.6 2.2.3 1.3.4 2.7.4 4v2.5c-.1 3 .6 6 1.3 8.8 2.2 8.2 3.9 16.5 6.2 24.6 1.8 6.3 1.6 6.4-4.9 5.9-8.6-.7-9.7.7-7.2 9 .1.5.3.9.5 1.4 3.1 11.2 6.8 22.3 6.2 34.2-.2 4.2 1.2 8.2 2.7 12.1 4.3 11 8.1 22.2 7.2 34.3-.1 1.3-.4 2.8.2 4 3.8 8.5 5.8 17.5 8.5 26.3.2.8.5 1.5.7 2.2 1.7 2 3.3 4 5 6 2.9 4.1 7.2 6.9 10 11h1c0-.1.1-.2.2-.4.4-1.2.5-2.3.5-3.5.1 1.6.2 3.3.4 4.9l.1.1c.4.2.8.5 1.2.8v-.9c.6-13.6 1.2-27.3 1.7-40.9 1.2-9.6 1.8-19.3 3.3-28.9 2-13.8 4.5-27.5 7.8-41.1.5-1.7 1.2-3.5 1.6-5.2 7.7-32.8 19.5-64.1 33.9-94.4 6.5-13.8 14.5-26.8 21.5-40.2-.3.2-.9.5-1.3 1zm-42.7 88.1c.2-1.1.2-2.3 1.2-3.2-.9.9-1 2.1-1.2 3.2zm-.8 1.8c.1-.1.2-.3.3-.4-.1.2-.1.3-.3.4.1 0 0 0 0 0 0 .1-.1.1-.1.2 0 0 0-.1.1-.2 0 .1 0 .1 0 0zm-4.1 14.4c.1 0 .1 0 0 0 .5-.1.3.1 0 0zm-.2-.2s-.1-.1-.1-.2c-.1-.2-.1-.4-.1-.8v-.2c0 .3.1.5.1.8 0 .1.1.3.1.4zm.7-4.8c.5-1.3 1-2.6 1.6-4-.2.5-.3 1-.5 1.4-.3.9-.7 1.7-1.1 2.6zm-22.9 142.2v-1.1c0 1.1 0 2.2.1 3.4-.1-.7-.2-1.5-.1-2.3zm0-6.8v-12c.2 3.8.1 7.8 0 12z"/>
        <path d="M164 652c-6.1-6.2-11.5-13-16.9-19.8-1.2-1.5-2.3-3.1-4-4.1 0 0-.1-.1-.2-.1l-1-1c-13.9-18.1-25.8-37.6-36.9-57.6-7.7-13.9-14.4-28.2-21.6-42.3-1.2-2.3-1.2-5.1-2.6-7.3-.4-.7-1-1.3-1.8-1.8-.1-3.3-2.1-6-3-9-1-3.5-2.1-6.9-4-10-1.4-2.8-2.9-5.7-3-8.9v-.1c-.7-3.2 2.2-5.4 2.4-8.4.1-.9 1.1-1.1 2-.8 1.5.6 2.2 1.6 2.6 3.3 1.2 5 2.5 9.9 4.1 14.7 1.9 5.7 4.5 6.2 8.7 1.9 2.4-2.5 5.4-2 7.9-1.5 4.4 1 4.2-.9 3.8-4.2-.8-6.4-2.5-12.6-3.6-18.9-.3-1.7-1.3-3.9 1.8-4 2.8-.1 3.4 1.9 3.1 4-.6 4.7 1.1 7.7 5.6 9.2 3.1 1 7.5-.9 7.1-3.8-.8-6.5 4-6.9 7.8-8 3.5-1 5.4-2.2 5.6-6.2.2-3.5 2.9-2.2 4.9-1.6 2 .6 3.8 2.6 5.9.4.1.2.2.5.3.7 1.5 4 3.4 7.8 2.7 12.3.2 1.2.2 2.4.2 3.7 0 1.4 0 2.7.4 4 .3.8.7 1.6 1.4 2.3.9 9.4 3.9 18.4 6 27.5 1 4.2 2 8.4 3.1 12.5.6 2.3-.2 3-2.2 1.8-3.4-1.9-7.2-.4-10.8-1.5-2.6-.8-2.4 1.8-2 3.3.8 3.4 1.7 6.8 2.9 10 4.4 11.8 4.6 24.2 6 36.5.7 5.8 4 10.8 5.6 16.4 2.4 7.9 3.9 15.7 3.4 23.9-.3 5 1 9.5 4.2 13.4 2.2 2.8 2.3 6.2 2.5 9.4.2 2.6.3 5.2.9 7.8.4.6.5 1.3.7 1.9z" fill="#2ba9bb"/>
        <path class="st64" d="M551.3 202.1c-17 5-34.1 10-51.1 15-8.3.5-15.3 5-22.8 7.8-17 6.5-33.1 15.1-49.4 23.1 2.7-3.3 2.1-7.2 2-10.9-.1-2.9.7-4.1 3.9-4.2 5.3-.2 6.8-2.3 5.5-7.4-1.5-5.8-3.1-11.5-4.7-17.2-.8-2.7-.8-4.9.9-7.5 2.3-3.7-.7-7.4-1.5-11-1.3-5.9-3.5-11.5-5-17.3-.5-2.1-1.1-3.4-3.4-3.5-4.4-.1-6.5-2.8-7.5-6.7-.3-1.3-.8-2.5-1.1-3.8-2.2-8.7-1.8-9.2 7.2-7.8 2.4.4 3.5-.4 3.7-2.7.3-4.3-.2-8.4 2.6-12.6 2.6-4.1-2.7-9.9-8.4-10.3-7.8-.6-6.8-1.4-9.5-8.5-3.1-8.2-2.8-16.8-4.9-25-2.2-8.4-3.9-17-5.8-25.5-.1-.3 0-.7-.1-1-3.2-4.9-2-8.5 3.2-11 9.3-2.2 17.8-6.5 26.5-10 2.2-.9 5.1-.3 6.5-3 6.9-.6 12.8-4.2 19.4-5.9 2.2-.5 4.4-1.5 6.6-2.2-.4 4 3.1 5 5.6 6.1 4.4 1.9 5.8 4.9 5.5 9.4-.3 3.6 0 7.3-.1 11-.1 3.2 1.1 4.7 4.4 4.5.8-.1 1.7-.1 2.5.1 1.8.7 4.4 1 3.9 3.7-.5 2.7-3 2.5-4.9 1.9-4.5-1.5-5.5-.3-4.1 4.1 2.1 6.9 3.7 14 5.7 20.9.8 2.6.1 3.6-2.5 4.2-4.1.9-6.1 6.3-2.8 8.3 5.7 3.4 4.5 9.3 6.5 13.9 3 7 2.5 14.9 4.9 22.1 1.1 3.2-.3 7.2-.7 10.8-.5 5.6.6 10.8 3 15.9 1.7 3.8 2.1 7.6-1.4 11-2.5 2.4-1.8 5.6-1.1 8.5.5 2.3.9 4.1-1.5 5.6-1.1.7-2 2-1.5 3.4.7 1.6 2.2 2.3 4 2.5 9.6 1 12 5.2 8.4 14.9 6.3-.4 11.8-3.3 17.5-5.1 8-2.5 16.1-4.8 24.2-6.8 3.9-.9 7.5-2.6 11.7-1.8zM427.8 248.6c-2.6 1.4-5.1 2.8-7.7 4.2 1.7-3.2 4.5-4.4 7.7-4.2z"/>
        <path class="st32" d="M398 266c1.6-2.6 3.7-4.5 8.2-5.1-3.2 2.5-5.3 4.4-8.2 5.1zM395 268c-.5.8-1.1 2.1-2.1 1.5-1.1-.7-.2-1.2.6-1.4.5-.1 1-.1 1.5-.1zM395 268c.1-2 1.5-2 3-2-.6 1.3-1.6 2-3 2z"/>
        <path class="st34" d="M76 509c-1.9-3.1-3.2-6.5-4-10 .8.8 1.4 1.6 1.9 2.5.9 1.4 1.5 2.9 1.8 4.5.2.9.3 2 .3 3z"/>
        <path class="st30" d="M34.3 455.8c-.1 0-.2.1-.3.1 0-.2.1-.5.2-.7.4-1.7.7-3.3 1.1-5h.1c.2-.1.4-.2.6-.2h.1c-.3 2 .7 4.5-1.8 5.8z"/>
        <path class="st48" d="M898 1085.8c5.7-4.1 11.7-7.8 18-10.9-3 6.7-.7 14.1-2.9 20.9-1.1 3.5.7 6.8 3 9.6 6.8 8.4 13.9 16.5 21 24.6 6.7 7.6 14.6 14.8 17.4 25.1 2.2 8.3 3.5 16.9 5.6 25.3.4 1.6.2 3.3-.2 4.9-2.3 11.2-3.2 22.6-4.6 33.9-1.1 8.7-1.6 17.5-3.5 26.1-.8 3.9-.4 8-1.3 11.9-.4 1.6-.3 3.3-1.5 4.6-8.4 5-17.4 8.7-26.3 12.6-10.2 4.4-20.5 8.3-30.7 12.5-1.2.7-2.6 1.2-4 1 1.6-2.1 0-4.2-.1-6.2-.2-9.6 2.2-18.9 3.5-28.3.8-6 2.7-12 2.5-18-.2-6.4 2.3-12.3 2.7-18.6.2-3.6 1.3-7.4 1.5-11.2.4-9.8-2.9-18.8-5.1-28.1-2.1-8.7-5.8-17-5.1-26.6.9-11.4-.2-23 .3-34.4.2-5.8-1.8-11-2.4-16.6-.2-2.1-1.8-3.1-4.2-3.2 4.8-4.9 12.2-5.5 16.4-10.9z"/>
        <path class="st50" d="M949 1262c.7-6.9.9-13.8 2.5-20.6 1.3-5.9 1.8-12.1 2.2-18.1.7-11 1.8-22.2 3.8-32.8 2.7-14.2-3.7-26.3-5.6-39.4-.2-1.1-1-2.1-1.8-2.9-4.8-5-8-11.5-12.9-16.2-8.4-8.1-15.4-17.3-22.8-26.2-2.8-3.4-4.3-7.5-2.1-11.9 1.3-2.7 1.2-5.6.7-8.3-.7-4.2.2-7.5 3.1-10.4 2.7-1.6 5.7-2.8 8.1-5 1.9-1.4 3.7-2.7 5.6-4.1 2-.6 3.3-2.2 5.1-3.1 1.6-1.5 3.9-2 5.2-4h-.1c1.8.7 2.7-1.9 4.5-1.3-4.5 6.2-4 7.3 3 11.2 11.2 6.2 21.1 14.4 33 19.5 4.4 1.9 2.9 7.1 4.2 10.6 2.9 7.8 4.9 16.1 6.6 24.3 3.1 14.8 8 29.2 11.4 43.9 2.9 12.7 6.1 25.3 10.5 37.6 2.5 7-.8 14.1-.4 21.2.1 1.1-2 2.8-3.5 3.3-6.9 2.3-12 7.5-18.2 11-12.1 7-24.4 13.7-36.9 20.1-1.7.6-3.5 1-5.2 1.6z"/>
        <path d="M1034.9 967.7c.2-.3.5-.5.7-.8 5.6-2.4 6.9-8.7 11.8-12.6.1 2.2.7 3.4 3.1 3.8 11.3 2.2 22.6 4.5 34.1 6 10.3 1.3 20.4 3.9 30.7 5.3 7.7 1.1 15.3 2.4 23 3.4 4.9.6 9.8 1.8 14.6 2.6 8.6 1.5 17.4 2 25.9 3.8 11.5 2.4 23.1 3.2 34.6 5.8 9.2 2 18.5 3.4 27.7 5.1-5.1 8.6-10.4 17.2-15.4 25.9-1.2 2.1-2.6 3.7-5.1 2.9-11.3-3.5-23.1-3.2-34.6-5.2-9-1.6-18-3.5-27-5.2-12.9-2.4-25.8-4.9-39-5.6-5.5-.3-11-1.7-16.4-3.2-4.1-1.2-8.5-1.6-12.6-2.2-13-2-25.8-5.4-39-5.7-5.2-.1-10.5-1.2-15.4-2.8-9-2.9-13.7-1.9-20.2 5-1.3 1.4-2.4 3.1-5.6 4 7.2-8.4 13.6-15.9 20-23.4 1.8-1.9 3.9-3.9 4.1-6.9z" fill="#318fe5"/>
        <path class="st46" d="M1297 859c-2.2 9.1-6 17.6-8.8 26.5-1.5 4.8-4.2 9.3-4.2 14.5-3 3.8-4.4 8.4-6 12.8-1.9 5.3-3.6 6.5-8.8 4.2-4.2-1.8-8.8-1.7-13.1-2.4-9.1-1.4-18.2-2.9-27.1-4.9-9.9-2.2-20-1.4-29.8-4.1-5-1.3-10.6-2-16-2.9-5.3-.9-10.7-1.5-16-2.9-4.7-1.3-9.7-2.3-14.5-2.6-11.1-.8-21.8-2.7-32.7-4.7-5.4-1-10.8-3.2-16.6-2.5-1.7.2-3.2-.6-4.8-1.1-3.8-1.2-7.8-2.4-10.7 2-.1.1-.2.2-.3.2l-.6-1.2c.4-1.3.7-2.7 1.1-4 6.2-12.8 11.9-25.7 17.3-38.8 1.7-4.2 2.3-8.8 5.3-12.4.3.2.6.4.6.7.1.3.1.9.1.9.6.1.2.1.1-.3-.2-1.1-.7-2.2-.2-3.4.2-.5.6-.9 1-1.2 2.8-1.8 6-2.3 9.1-1.6 8.6 1.8 17.4 2.5 26 4.3 9.1 1.9 18.3 3.1 27.5 4.4 11 1.5 21.9 3.8 32.8 5.5 11.8 1.9 23.5 4.6 35.4 5.5 9.6.7 18.9 3.4 28.4 4.8 7 1 14 2.6 21.1 3.4 1.7 0 3.2.2 4.4 1.3z"/>
        <path class="st79" d="M805.1 1126.1c11.5-3.3 22.6-7.6 33.7-11.9 1.4-.5 2.8-.8 4.2-1.3.2 1.4-.9 2.4-.3 4.3 2.3 7.4 4.8 15 5.1 22.6.3 8.1-1.6 16.3-3.1 24.3-1 5.5-1.5 11-2.5 16.6-2 10.8-.5 22-2.3 32.8-1.7 10.5.6 19.9 3.5 29.8 4.7 16.2 9.9 32.6 8.6 50-.2 2.2 2.1 4.6.3 6.1-2.1 1.7-5.2 1.9-7.9 2.7-8.7 2.7-17.9 4.1-26.2 8v-.1c-2.1.6-4.2.9-6.3 1.4-.9.6-1.3-2-2.3-.3 0 .4-.1.7-.4.9v-.1c-2 .4-4 1.2-6.1.9-.8-3.9-4.8-7-2.9-11.4 1.8-4.1.7-8.8 2.2-12.5 2.5-6.2 1.8-12.5 2.2-18.6.4-7 1.6-13.9 2.9-20.5 1.4-6.9.6-14.1 3.1-21 1.6-4.3 1.4-9.4 2.1-14.1.8-5.5.7-11.2 1.3-16.8 1.3-12.8-2.9-24.5-6.7-36.3-1.9-6-3.5-12-4.1-18.3-.3-2.8-1.8-4.9-2.1-7.6-.3-2.5-1.2-5.1 2.7-6-1.8-1.4-3.3-.7-4.8-1 1.3-2.2 4.2-1.3 6.1-2.6z"/>
        <path class="st42" d="M1111 835c-4.3 10.2-8.5 20.5-12.8 30.7-2.9 7-5.7 14-10.1 20.2-.1-.4-.1-.8-.2-1.2 8.8-19.1 17.5-38.2 24.2-58.2 3-8.9 5.9-17.9 8.8-26.8 1 .8 1.2 1.8 1.2 3-2.4 10.1-5.1 20-10.1 29.2v1c-.7.6-.3 1.6-1 2.1z"/>
        <path class="st47" d="M1112 832c3-9.7 6-19.3 9-29 1.1-8.6 4.1-16.7 5.8-25.1.2-1 .8-1.8 1.4-2.6 2-1.8 1.8-4.6 2.7-6.9 1.5-4.2 4.2-5.2 8.2-4.5 14.2 2.5 28.6 4 42.7 6.8 13.5 2.7 27.1 4.5 40.6 7.2 8.1 1.6 16.5 1.7 24.6 3.4 10.5 2.2 21.3 3.3 31.8 5.5 8.4 1.7 17 3.3 25.6 3.6 3.2.1 6.3.6 8.5 3.4-1.3 6.7-2.7 13.3-4 20-3 15.3-8.1 30-12 45-8.8.2-17.2-2.4-25.8-3.6-12.5-1.7-24.8-5.1-37.6-5.6-5.8-.2-11.6-2-17.4-3.2-4.3-.9-8.8-1.9-13.1-2.2-13.2-1-25.9-4.6-39-5.8-9.2-.8-18.4-3.1-27.6-4.9-6-1.2-12.2-2.4-18.5-2.8-2.1 0-3.7 2.2-5.9 1.3z"/>
        <path class="st79" d="M774 1319.2c5.6-2.9 12-2.6 18-4.2.3.2.4.4.3.6s-.2.3-.3.3c-5.8 2-11.9 2.8-18 3.3z"/>
        <path class="st43" d="M792 1315.9v-.8c3.7-.7 7.3-1.4 11-2.1 1.9-1.1 4-1 6.1-.9-5.5 2.4-11.2 3.3-17.1 3.8zM809.1 1312.1c0-.4 0-.7-.1-1.1.7-.5 1.3-.6 2 0 2.3-.6 4.6-1.3 7.1-.9-2.7 1.9-5.9 2-9 2z"/>
        <path class="st80" d="M1313 794c-6.2-2.7-13-2-19.5-3-5.7-.9-11.4-1.8-16.9-3.2-4.3-1.1-8.9-1.9-13.1-2.2-13.3-1.2-26.2-5.1-39.6-5.8-5.2-.3-10.7-1.2-15.9-3-4.2-1.4-8.8-2.1-13-2.3-9.9-.6-19.6-2.8-29.2-4.8-9.1-1.9-18.5-.9-27.3-4.3-4.2-1.6-6.8 1.4-7.6 7.5-.3 2.1-.3 2.1-2 3.2-1.5-1.6-.9-3.4-.5-5.1 2-8.4 3.2-17 4.8-25.6 1.1-2.1.4-4.5.8-6.7 1.7-6.1.6-12.5 2.5-18.5 1.6-1.8 2-4 2-6.3.1-3.7-.7-7.5.7-11.2l.6-.6c3.1-5.8 8.2-3.5 12.6-2.8 16.1 2.7 32.1 6.5 48.3 8.4 17.7 2.1 35.2 5.8 52.8 8.5 8.5 1.3 16.9 3.4 25.4 4.3 12.5 1.4 24.8 3.7 37.2 5.6 1.9.3 3.9.7 5.8 1 .8 9.1-1.6 18-2 27-1 6.9-1.8 13.9-3.1 20.8-1 6.4-2.5 12.7-3.8 19.1z"/>
        <path d="M181 642.2V697c-2-2.7-.8-5.8-.9-8.6-.2-6.5-.1-12.9-.1-19.4v-26.8h1z" fill="#1fa9b6"/>
        <path class="st52" d="M179 669c-3.7-3.4-8-6.1-10-11l2.4 2.1c2.2 1.8 4.4 3.7 6 6 .7.9 1.2 1.9 1.6 2.9z"/>
        <path class="st53" d="M183 715c-1.6-3-1.6-6 0-9v9z"/>
        <path class="st30" d="M67.4 950.5c-.1.4-.8.9-1.3 1.1-.1.1-.6-.4-.8-.8v-.1c-.2-.7 0-1.3.9-1.4.6.1 1.3.6 1.2 1.2z"/>
        <path class="st52" d="M271.9 952.2c-2.3-1.5-3.2-2.7-3.8-5 2 1.3 3.2 2.2 3.8 5zM263.6 940.7c-1.6-1.1-2.9-1.9-2.2-4.2 1 1.4 2.3 2.1 2.2 4.2zM277.3 958.7c-2.1-.7-2.8-1.5-3.2-3.1 1.6.3 2.2 1.3 3.2 3.1zM256.6 929.1c0 .2-.5.4-.7.4-1.1-.4-.8-1.4-.8-2.3v-.2s.1.1.2.1c.6.4 1.5.9 1.3 2z"/>
        <path class="st56" d="M420 1084c2.8.5 4.9 2.2 7 3.9v1c-2.6-1.2-5.2-2.5-7-4.9zM511 1127c3.9-.9 6.7 2.5 10.2 3.1-3.8.7-7.2-.3-10.2-3.1z"/>
        <path d="M638 161c-12-3.2-12-3.2-12-15.9v-6.5c0-1.9-.7-3.7-2.3-4-5.9-1.3-6.5-6.2-7.5-10.6-2.3-10.5-5.1-20.8-7.5-31.2-1.8-7.7-4.5-15.2-4.8-23.3-.2-4-1.7-8.1-6.6-9.6-1.7-.5-3.1-1.8-4.6-2.9-.6-.5-1.7-1.5-1-2 5.8-4.8-.3-9.2-.7-13.8-.2-2.5.3-4.4.8-6.8 1.2-6.1 3.8-8.6 10-7.7 1.7.3 2.6-1.6 2.2-3.2-.7-3.1-.8-6.8-5.2-7.5-2.3-.3-4.7.5-6.9-.8-1.6-.9-3.2-1.7-4.7-2.8-1.2-.9-2.4-2-1.8-3.8.5-1.5 1.9-1.6 3.2-1.9 8.5-1.2 17.1-1.5 25.7-1.9 1.9-.1 4 .7 5.7-.9 12 .4 23.9-1.6 35.9-1.2 3.8.1 7.5 1.1 11.3.2 1.9-.5 3.6.5 2.2 2.8-2.2 3.7-1.1 7.1-.1 10.9 1.8 6.5.6 13.2.5 19.9 0 .6-.8 1.4-1.4 1.9-1.6 1.2-5-.9-5.2 2.4-.2 3.6-.7 7.2.7 10.9 1.5 4 2.9 8 3.5 12.3.5 3.4-.8 3.8-3.4 3.8-1 0-2 .1-3 0-3.6-.4-5.2 1.1-5.1 4.8.2 3.4 1 7-3.1 9.2-1.2.6-.8 2.1-.2 3.2 4.2 7.6 1.2 15.7 1.3 23.6 0 2.3-1.6 3.2-3.7 2.8-3.7-.6-3.8 2.3-3 4 3.5 7.1 3.2 15.1 6.1 22.3 1.2 3.1.8 5-3.7 4.4-8-1.2-9-.4-8.5 7.4.3 4.5-2.3 7.7-3.1 11.5z" fill="#2d8ecf"/>
        <path d="M805.1 1126.1c-1.5 2.1-4.3 1.4-6.1 2.9-2 1.9-4.8 1.1-7 2.1-18.2 4.7-36.5 8.7-54.9 12.2-12.9 1.5-25.7 3.3-38.6 4.3-5.5.4-10.9.8-16.4.5 4-1.9 8.4-1.6 12.5-1.8 24.8-1.1 49-5.2 73.1-10.7 11.6-2.6 23-6.1 34.5-9.1.9-.3 1.9-.3 2.9-.4z" fill="#aedbed"/>
        <path class="st79" d="M792 1131c2.2-1.2 4.6-1.8 7-2.1-1.6 3.3-4.6 1.7-7 2.1z"/>
        <path class="st46" d="M1137.1 720c-.7 6.3-1.4 12.7-2.1 19-1.3 1.8.2 4.1-.9 6-1.3 10.4-4.5 20.5-5 31-2.8 3.4-2.4 8-3.9 11.9-1.9 4.8-1.9 10.3-4 15.1 0-1.1-.1-2.1-.1-3.1 2.5-11 5.2-22 7.5-33 4.7-22.2 7.7-44.6 8.9-67.2.6-12.4 1.9-24.9 1.3-37.4-.6-13.1-1.7-26.2-2.5-39.3-.2-2.3-.2-4.7-.2-7 .3-.4.7-.5 1.1 0 1.8 6.9-.1 14.1 2 21 1.8 2.1 1.3 4.6 1.4 7 .1 3.9-.3 7.8.5 11.7.1 10.9 0 21.7.1 32.6 0 1.6.2 3.3-1 4.7-.3.3-.6.7-.9 1 .8 2.6.3 5.3.3 7.9-.8 4.3-.2 8.6-.4 12.8-.3 2 .1 4.1-2.1 5.3z"/>
        <path class="st68" d="M1109.8 504.1c.4 0 .8 0 1.2-.1 3.6 11.3 7.1 22.6 10.9 33.8 1 3.1.2 6.8 3.1 9.2 1.2 4.6 3.5 9 3 14 2.5 13 5.8 25.8 7 39-.3.5-.7.6-1.1 0-2.7-12.7-4.5-25.5-7.4-38.1-4.3-18.7-9.7-36.9-16.1-55-.3-.9-.4-1.9-.6-2.8z"/>
        <path d="M1140 693v-38c-1-3.6-.2-7.2-.5-10.8.2-2.4-.5-4.8.5-7.2h1c1.5 1.3 1 3.1 1 4.7 0 15.5.1 31 0 46.5-.1 1.7 1.1 4.2-2 4.8z" fill="#247ccf"/>
        <path class="st26" d="M1128 561c-1.2-4.6-3.4-9-3-14 3.4 3.1 4.7 9.4 3 14z"/>
        <path class="st47" d="M1133.9 600.1h1.1c1.3 5.2.3 10.8 2 16h-1.1c-1.1-5.3-1.9-10.6-2-16z"/>
        <path class="st68" d="M1140 637v7c-.3.5-.6.4-.9 0 0-2.3-.1-4.7-.1-7h1z"/>
        <path class="st80" d="M1139 702c0-2.7.1-5.3.1-8 1.9 2.5.5 5.3.9 8-.3.4-.7.3-1 0z"/>
        <path d="M957 770c-33.8 20.2-52.1 51.8-64.9 87.6-5.8 16.3-13.1 32-22 46.9-6.6 11.1-18.4 18.2-33.1 10.4-6.1-3.2-12.6-6-19.3-8-11.9-3.4-23-.7-33.9 4.3-7.1 3.2-14.1 6.9-21.8 8.6-13.1 2.9-25-1.1-36.6-6.6-5.5-2.6-11.1-5.1-17.2-6.6-10.2-2.6-19.8-.6-29.2 3.2-8.3 3.4-16.2 7.9-25 9.9-13.1 2.9-24.9-1.1-36.6-6.6-5.5-2.6-11.1-5.2-17.2-6.6-9.8-2.3-19.2-.9-28.3 3-6.4 2.7-12.7 5.8-19.2 8.3-15 5.7-29.1 2.4-42.8-4.5-5.2-2.6-10.5-4.9-16.2-6.5-13.7-3.9-25.9.5-38 6.3-1.7.8-3.3 1.6-5 2.3-8.6 3.7-16.7 1.5-21.7-6.5-13.8-21.7-24.5-44.9-31-69.9-4.1-15.8-7.2-31.7-8.4-48-.2-2.4-.9-4.9.6-7.2 1.7-6.6.5-13.2.7-19.8.2-6.4.1-6.4 6.3-6.4h128.4c6.8 0 6.8 0 6.8 7 0 6.1 0 12.1.1 18.2.2.7 1-.3.5.1-.2.1-.3 0-.3-.3-.4-6.5-.3-12.9-.1-19.4.1-4-1-5.6-5.3-5.6-43.8.1-87.6.1-131.4.1-1.7 0-3.8-.7-4.6 1.8-.6 7.8.2 15.6-.4 23.4-.2.6-.6 1.1-1.2 1.5-.4-.3-1-.4-1-1 0-8.4-.8-16.8.4-25.1 1-2.7 3.3-2.9 5.8-2.9h133.5c4.5 0 6.1 1.6 6.1 6.2 0 8.6-1.2 17.4 1.2 25.9 5 17.7 16.2 29 34.2 33.3.5.1.9.4 1.4.6 1.4.7 2.9.4 4.4.4h72.1c2 0 4 0 5.9-.7 10.2-.3 20.3-.3 30.5 0 .9.2 1.8.6 2.7 1 28.8 0 57.6-.1 86.5-.1 21.6 0 38.8-12.9 44.7-33.8 1-3.7 2.8-4.7 6.3-4.8 44.8-.5 87.3-10.6 127.4-30.7 1.6-.8 3.3-1.6 5-2.2 4.2-1.3 8.8.5 10.7 4.2 2.1 3.9.8 8.9-2.9 11.5-1.1.8-2.3 1.3-3.5 1.9-1.4.6-3 .8-4.1 1.9z" fill="#14859e"/>
        <path class="st86" d="M644.1 747.9c-6.7.7-13.4 1.4-20.1 2.2-2.5 1-5.2 0-7.8 1.3-1.2.6-2.6-.1-3.4-1.4-.7-1.3-.6-2.5.3-3.7.9-1.2 2.2-2.1 3.3-3 16.3-12.2 32-25.2 46.1-39.7 29.1-29.9 52.6-63.5 64.9-104.1 4.2-13.9 7.6-28 9.7-42.3 2.8-19 3.4-38 .9-57.2-1.2-9.1-2.4-18.1-4.7-27-.3-1.4-1.4-3.1.1-4.2 1.7-1.2 3.1.3 4.4 1.2 21.1 18.2 38.6 39.3 52.2 63.7 4 8.6 9.2 16.5 12.7 25.3 5.2 13 10 26.1 13.4 39.8 5.7 22.8 6.1 45.8 5.4 69.1-.4 13.7-2 27.1-4.3 40.4-3.7 21-10.3 41.1-24.9 57.5-5.8 6.5-13.3 10.9-20.7 15.4-2.3 1.4-4.1-.1-5.8-1.5-3.4-2.9-6.2-6.5-10.2-8.7-12-8.2-24.7-14.9-38.9-18.4-9.5-2.4-19.3-3.3-28.9-4.8-2-1.2-3.1 1.4-4.8 1.3-.5.1-1.1.2-1.7.2-10.4-1.8-21.1.2-31.5-1.8-1.7-.3-3.8-.4-5.7.4z"/>
        <path d="M737.8 470.1c-1.2-.3-2.5-.7-4.2-1.2 5.9 21.3 7.7 42.6 7.1 64.2-.3 11.7-1.8 23.4-4 35-4.5 23-11.3 45.4-21.8 66.4-9.5 19.1-21.8 36.4-35.6 52.7-18.7 22.2-40.7 40.8-63.7 58.4-1.3 1-3.3 1.7-2.5 3.8 1 2.4 3 1.2 4.7.9 2-.3 4-.1 6-.1-2.5 1.5-5.4 1.4-8.2 1.8-3.5.5-6.7-3.7-5.2-7 6.3-14.1 9.4-29.1 11.8-44.2 1.8-11.4 2.7-23.1 3.6-34.7 1.2-14.9 1.2-29.9.8-44.9-.7-30.3-4.6-60.2-12.4-89.6-7.1-27-17.3-52.7-31.8-76.6-1-1.6-1.8-3.1-.6-5.1 1.3-2.2 3.2-2.2 5.2-2l47.4 6.3c5.3.7 10.5 1.4 15.8 2.2 3 .5 2.8-1.6 2.8-3.4 0-7-.1-14-.1-21 .5-.4 1-.4 1.5 0 2.9 3.7 1.8 8 1.9 12 .4 12-2.2 11.3 12.3 13.2 3.1.4 6.3.8 9.4 1.2 4.8.7 5.3.3 5.4-4.4.1-5.3 0-10.7.1-16 0-2.5 0-5 1.9-7.1.5-.4 1-.5 1.5-.1 0 8.7.1 17.3 0 26-.1 3.4 1.1 4.6 4.5 5 13.9 1.5 27.7 3.3 41.5 5 2.1.6 4 1.1 4.9 3.3z" fill="#6bd8fb"/>
        <path class="st86" d="M451.9 725.1c-2.9-2.4-.9-5 0-7.2 6.2-16.3 12.6-32.6 18.9-48.8 15-38.6 30-77.2 45-115.7 2.3-5.9 3.6-6.5 9.2-3.8 19.4 9.1 38.8 18.3 58.2 27.3 3.5 1.6 4.8 3.7 4.8 7.6-.1 45.1-.1 90.3-.1 135.4 0 6.2-.3 6.5-6.5 6.5H457c-1.8-.1-3.8.6-5.1-1.3 1.8-1.7 4.1-1.1 6.2-1.1h121c6.9 0 6.9 0 6.9-6.8V585.8v134c.1 2.9-1.4 4.3-4.3 4.2H459.2c-5.8 0-5.8-.1-5.4-5.4-.3 1.1-.4 2.3-.4 3.4.1 1.3-.7 2.2-1.5 3.1z"/>
        <path class="st88" d="M879 184c1-5 4.8-4.3 8.3-3.7 2.4.4 4.7 1.6 7.1 2.3 3.7 1.1 5.9.1 5.7-4.2-.1-.8-.1-1.7 0-2.5.2-2.6-.9-6.1 3.5-6.1 6.8-.1 8.1.7 8.4 6.1.2 3 1.2 4.3 4.2 4.2.7 0 1.4-.1 2 .2 5.4 3.1 6.2.3 5.9-4.4-.2-3.1.8-4.9 4.7-4 3.5.8 7.2 0 10.7 1.7 2.6 1.3 3.6-.9 3.5-3.2-.1-2.9.2-5.6 1-8.3 3.6.4 6.7 2.4 10.5 2.2 2.7-.1 3.6 2.5 3.5 5.1-.1 4.5 0 9 0 13.5 0 3.5 1.6 5.1 5.1 5.3 4.7.3 9.2 2.2 14.1 2.4 3.1.1 5.1 2.6 4.9 6.4-.2 4.1.1 8.3-.1 12.5-.2 3.9 1.9 6 5.2 5.6 4.7-.5 8.6 2.3 13.1 2.3 1.8 0 2.6 1.3 2.7 3 .3 5.3-.3 10.6.4 15.9.3 2.8-3.6 2.7-4.3 5-17.3 13.1-35.4 25-51.8 39.1-1.5 1.3-2.2 2.3-1.2 4.1-9.1-6.2-18-12.4-27.2-18.4-22.4-14.7-46.1-27.1-70.8-37.7-1.3-1.6-3.3-1.3-5-2-.6-.5-1.5-.8-1.1-1.9 2.2-.9 4.2-2.2 6.8-2.3 2.6-.1 4.6-1.8 4.3-5-.1-1.7-.1-3.3 0-5 .1-3.8 1.6-5.4 5.7-4.5 6.5 1.5 7.3.8 7.3-5.7 0-1.2.1-2.3 0-3.5-.5-4.4 1.8-5.5 5.7-5.2 7.4.7 7.4.6 7.4-7-.2-1-.2-1.6-.2-2.3z"/>
        <path d="M654.1 432.3c-.4 0-.7 0-1.1-.1-8.1-5.8-14.1-13.1-15.6-23.3-2.3-16.3 6.6-31.8 21.2-36.6 15.2-5 31 .8 38.6 14.5 8 14.4 5.2 32.8-10.3 44.3-.3 0-.7.1-1 .1-6.8 7.9-24.9 8.5-31.8 1.1z" fill="#14869e"/>
        <path class="st90" d="M644.1 747.9c1.5-1.5 3.5-.9 5.2-.9 11.2.1 22.5-.5 33.7 1 1.6 2.2 1.4 4.7 1.4 7.2 0 19.9.1 39.9 0 59.8 0 6.3-.3 6.4-6.4 6.5-8 .1-15.9-.4-23.9.3-24.4.1-48.8.2-73.2.2-3.2 0-6.6 1.1-9.6-.9 25.5.1 50.9 0 76.4.2 4.5 0 5.2-1.8 5.2-5.6-.1-20.3-.1-40.6-.1-60.9 0-6.9 0-6.9-6.8-6.8-.6 0-1.3-.1-1.9-.1z"/>
        <path d="M755.8 771.1c4.2.8 7 3.8 9.5 6.8 3 3.6 5.5 3.1 9.3.9 17.5-9.9 28.2-25.2 34.9-43.5 2.6-7.1 4-14.8 5.8-22.3 6.7-27.9 6-56.2 5.4-84.5-.1-6.3-1.7-13-3.3-19.4-1.9-7.4-3-15-5.3-22.4-4.3-14.1-9.8-27.8-16.6-40.9-2-3.9-5.3-7.3-5.5-12 8.2 11.9 13.6 25.1 18.8 38.4 11.4 29.2 15.3 59.5 13.9 90.6-1 22.6-3 45.2-10 66.9-4.2 12.9-9.9 25-18.9 35.4-6.2 7.2-14.1 12.1-22 17-2.3 1.4-4.2.6-5.8-1-3.3-3.3-6.8-6.7-10.2-10z" fill="#22b7d1"/>
        <path class="st90" d="M684 748c1.3-.5 2.6-1.8 3.9-.1-2.1.4-2.4 1.8-2.4 3.7.1 21.8.1 43.7.1 65.5 0 1.7.1 3.3 1.2 4.7h-1.9c-1.5-.8-1.4-2.1-1.4-3.5v-68.9c0-.5.3-.9.5-1.4z"/>
        <path d="M389.9 784.1c.7 17.3 3.4 34.3 7.7 51.1.3 1.3.7 2.6.4 3.9-3.5-6.9-4.2-14.5-5.6-21.9-3.6-18.4-4.7-37.1-4.1-55.8 0-1.1-.2-2.3.9-3.2 0 7.1.1 14.2.2 21.2-.1 1.5-.6 3.2.5 4.7z" fill="#70b5c4"/>
        <path d="M184.1 629.1c-.7-9 1.2-17.8 2.2-26.7 1.5-12.8 4.2-25.4 6.7-38 .4-1.9.5-3.9 2.1-5.4-.4 7.3-2.7 14.3-4 21.5-2.7 15-4.7 30.1-6.1 45.3-.1 1.2 0 2.4-.9 3.3z" fill="#6ec2d3"/>
        <path class="st88" d="M809 213c7.2.3 13.6 3.8 20.2 6 1.5.5 3.7.4 4.8 2.2-1 .6-2 .5-3-.1-7.4-2.7-14.7-5.4-22-8.1z"/>
        <path class="st94" d="M830.9 221.1c1 0 2 0 3 .1 2.6 1.2 4.9 2.9 7.9 2.9.4.7.8 1.3 1.1 1.9-4.1-1.1-8.3-2.4-12-4.9z"/>
        <path class="st48" d="M924 1069.9c-1.8 3.2-4.8 4.2-8.1 5 2.3-2.3 5-3.9 8.1-5z"/>
        <path class="st40" d="M939.9 1058.8c-.2 3.1-3.3 2.8-4.9 4.2-.3.3-.7.3-1-.1 1.5-2 3.6-3.2 5.9-4.1z"/>
        <path class="st48" d="M934 1063c.3 0 .7 0 1 .1-1.6 1.3-3 3-5.4 2.8 1.2-1.3 2.4-2.7 4.4-2.9z"/>
        <path class="st94" d="M843 226c2-.1 4-.3 5 2-1.9-.2-3.6-.7-5-2z"/>
        <path d="M957 770c.8-1.7 2.3-2.1 4-2-1 1.3-2.3 2-4 2z" fill="#8dc4d0"/>
        <path class="st37" d="M207 510c.6 5.5-4 9.6-4.5 14.8-.4-5.5 1.1-10.4 4.5-14.8z"/>
        <path class="st34" d="M144 489c-5.6-2.3-2.6-6.4-2-10 2.5 3 2 6.5 2 10z"/>
        <path class="st37" d="M207 510c.4-1.8-1.2-4.3 2-5 0 1.9.3 4-2 5zM200.8 528.2v4.2c-1.2-1.7-.9-3 0-4.2z"/>
        <path class="st76" d="M156.9 637.3c-.9.5-1.4 1-2 1.1-1 .2-1.5-.5-1.5-1.4.1-.8.8-1 1.5-.8.5.1 1 .6 2 1.1z"/>
        <path class="st47" d="M1111 835c0-.8.2-1.6 1-2v4.2c-1.3-.6-.8-1.5-1-2.2z"/>
        <path class="st66" d="M811 1311h-2c-.8-.1-1.8-.3-1.6-1.4.1-.5.8-1.2 1.3-1.2 1.8-.1 2.2 1.2 2.3 2.6zM810.4 1126.8c-1.5 2.7-3 2.2-4.9 1.7 1.3-2 3.1-1.2 4.9-1.7z"/>
        <path class="st66" d="M808.9 1127.2c2.6-1.3 3.6-2.8 5.5-1-1.3 1.3-3 .6-5.5 1z"/>
        <path class="st68" d="M1139 702h1c0 4.9-.1 9.8 0 14.7 0 2.1-.5 3.5-3 3.3 1.8-4 .6-8.2 1-12.3.2-1.9-.7-4 1-5.7z"/>
        <path class="st47" d="M1134 745c.2-2-.8-4.2.9-6-.2 2 .9 4.2-.9 6zM1139.1 644h.9v11c-2.1-3.5-.5-7.3-.9-11z"/>
        <path d="M390 784.1c0-.4.1-.8.1-1.1.8-8 .7-15.9 0-23.9.8-2.2 2.8-2.1 4.6-2.1 44.7 0 89.3 0 134-.1 3.2 0 4.5.8 4.4 4.2-.2 8.3-.1 16.6-1.1 24.8 0-7.6-.2-15.2.1-22.9.1-4-1.5-5.2-5.3-5.2-43.3.1-86.7.1-130 0-3.7 0-5 1-4.8 4.8.3 5.7.1 11.3 0 17 0 1.8.7 4-2 4.5-.1 0 0 0 0 0z" fill="#09809a"/>
        <path class="st97" d="M685.9 823.2h97.5c-3.1 2.2-92.4 2.7-97.5 0zM652.3 824.3h-81.4v-1h81.4v1z"/>
        <path d="M684 748v67.4c0 2.1-.3 4.3.9 6.3h-30.8c7.3-1.7 14.8-.5 22.2-.7 6.7-.2 6.7-.1 6.7-6.8V748h1z" fill="#13d3cb"/>
        <path class="st99" d="M821.2 785.1h23.4v.6h-23.7c.2-.2.2-.4.3-.6z"/>
        <path d="M390.1 759.1c1.5 8 1.5 15.9 0 23.9v-23.9z" fill="#027d97"/>
        <path class="st99" d="M820.7 789.2c-1.3-.9-1.7-2.1-.5-2.7 1.7-.8.4.9.7 1.4.2.3-.1.8-.2 1.3z"/>
        <path class="st90" d="M654.1 432.3c10.8 5.4 21.4 5.3 31.8-1-1.8 7.9-.6 15.9-.8 23.9-.2 6.2 0 6-6 5.1-6-.9-12.2-1.6-18.2-2.3-4.1-.5-6.3-1.8-6.1-6.8.3-6.3.9-12.7-.7-18.9z"/>
        <path d="M451.9 725.1c1.3-3.7.9-7.9 3.5-11.4 1 1.9.5 3.3-.4 4.8-2.4 3.8-.4 4.6 3.1 4.6 40.8 0 81.6-.1 122.4.1 3.5 0 4.6-1.1 4.5-4.6-.2-45.9-.2-91.9-.3-137.8 0-.1.2-.3.4-.5 2.6.6 1.7 2.8 1.7 4.3.1 12.2 0 24.3 0 36.5 0 32.6-.1 65.3.1 97.9 0 4.9-1.5 6.2-6.3 6.2-42.7-.3-85.7-.2-128.7-.1z" fill="#1ab4cf"/>
    </g>
</svg>
