<svg xmlns="http://www.w3.org/2000/svg" viewBox="0 0 97.75 97.75">
    <path d="M48.88 0C21.88 0 0 21.88 0 48.88c0 26.99 21.88 48.87 48.88 48.87 26.99 0 48.87-21.88 48.87-48.87C97.75 21.88 75.87 0 48.88 0zm36.86 28.2a30.18 30.18 0 01-7.31 7.64c.02.58.04 1.16.04 1.74 0 20.88-15.89 42.47-42.48 42.47a42.3 42.3 0 01-22.88-6.71.37.37 0 01-.15-.42.37.37 0 01.39-.24c1.15.14 2.32.2 3.48.2 6.33 0 12.31-1.95 17.38-5.66a15.146 15.146 0 01-13.16-10.48.348.348 0 01.07-.35c.08-.1.21-.14.34-.12 1.68.32 3.39.34 5.04.08-6.26-1.95-10.66-7.81-10.66-14.49v-.19c0-.13.07-.24.18-.31.11-.06.25-.06.36 0 1.63.91 3.44 1.49 5.29 1.71-3.6-2.87-5.71-7.21-5.71-11.86 0-2.68.71-5.32 2.05-7.62.06-.11.17-.17.29-.18.12-.01.23.04.31.13 7.36 9.03 18.19 14.59 29.77 15.31-.19-.98-.29-1.98-.29-2.99 0-8.36 6.8-15.16 15.16-15.16 4.11 0 8.08 1.69 10.93 4.64 3.21-.65 6.26-1.83 9.09-3.51.13-.07.29-.06.41.03.11.09.16.25.12.39-.96 3-2.83 5.61-5.33 7.49 2.36-.41 4.65-1.1 6.83-2.07.14-.07.32-.02.42.1.11.12.11.3.02.43z" fill="#00aff0"/>
    <path d="M85.74 28.2a30.18 30.18 0 01-7.31 7.64c.02.58.04 1.16.04 1.74 0 20.88-15.89 42.47-42.48 42.47a42.3 42.3 0 01-22.88-6.71.37.37 0 01-.15-.42.37.37 0 01.39-.24c1.15.14 2.32.2 3.48.2 6.33 0 12.31-1.95 17.38-5.66a15.146 15.146 0 01-13.16-10.48.348.348 0 01.07-.35c.08-.1.21-.14.34-.12 1.68.32 3.39.34 5.04.08-6.26-1.95-10.66-7.81-10.66-14.49v-.19c0-.13.07-.24.18-.31.11-.06.25-.06.36 0 1.63.91 3.44 1.49 5.29 1.71-3.6-2.87-5.71-7.21-5.71-11.86 0-2.68.71-5.32 2.05-7.62.06-.11.17-.17.29-.18.12-.01.23.04.31.13 7.36 9.03 18.19 14.59 29.77 15.31-.19-.98-.29-1.98-.29-2.99 0-8.36 6.8-15.16 15.16-15.16 4.11 0 8.08 1.69 10.93 4.64 3.21-.65 6.26-1.83 9.09-3.51.13-.07.29-.06.41.03.11.09.16.25.12.39-.96 3-2.83 5.61-5.33 7.49 2.36-.41 4.65-1.1 6.83-2.07.14-.07.32-.02.42.1.11.12.11.3.02.43z" fill="#f9f9f9"/>
</svg>
