<svg xmlns="http://www.w3.org/2000/svg" width="422.4" height="422.4">
    <circle cx="211.2" cy="211.2" r="211.2" fill="#7488cd"/>
    <path fill="#126782" d="M255.8 88.5l-.7.3.2-.3z"/>
    <path d="M329.2 115.8C294 90 261.1 88.9 255 88.9l-4 3.9c44.2 12.6 65.9 32.2 66.6 32.8-65.1-32.1-135.5-33.9-200-8.6-9.8 4.2-15.6 7-15.9 7.2.7-.7 22.4-21.6 69.5-32.8l-2.9-2.9s-36.2-1.4-75.3 27.1c0 0-39.1 67.1-39.1 149.8 0 0 21.7 37.1 81.1 38.5 0 0 8.7-11.4 17.4-21.4-32.9-9.8-46-29.3-46.4-29.9l11.1 5.7c32.6 13.2 67.2 30 128.7 20 13-2.9 26-5.7 39-11.4 8.5-4.3 18.9-8.5 30.3-15.7-.4.6-13.5 20.1-47.8 29.9 7.2 9.9 17.2 21.3 17.2 21.3 59.5-1.3 82.6-38.4 83.9-36.8.1-82.7-39.2-149.8-39.2-149.8zM161.1 239.7c-15.2 0-27.5-12.8-27.5-28.5 0-15.8 12.4-28.5 27.5-28.5l.1-.1c15.2 0 27.4 12.8 27.4 28.5 0 15.8-12.3 28.6-27.5 28.6zm98.5 0c-15.2 0-27.5-12.8-27.5-28.5 0-15.8 12.4-28.5 27.5-28.5v-.1c15.2 0 27.5 12.8 27.5 28.5 0 15.8-12.3 28.6-27.5 28.6z" fill="#fff"/>
</svg>
