<svg xmlns="http://www.w3.org/2000/svg" width="138.4" height="40.3">
    <path d="M138.4 9.7v24.7c0 3.3-2.7 5.9-5.9 5.9H5.9c-2.1 0-3.9-1.1-5-2.7-.6-.9-1-2-1-3.2V9.7c0-3.3 2.6-5.9 5.9-5.9h126.5c3.4 0 6.1 2.6 6.1 5.9z" fill="#ff9f00"/>
    <path d="M138.4 5.9v24.7c0 3.3-2.7 5.9-5.9 5.9H5.9c-2.1 0-3.9-1.1-5-2.7-.6-.9-1-2-1-3.2V5.9C0 2.6 2.6 0 5.9 0h126.5c3.3 0 6 2.6 6 5.9z" fill="#ffc612"/>
    <linearGradient id="a" gradientUnits="userSpaceOnUse" x1="35.46" y1="-16.87" x2="50.74" y2="24.69">
        <stop offset="0" stop-color="#efefef" stop-opacity=".25"/>
        <stop offset="1" stop-color="#fff"/>
    </linearGradient>
    <path d="M0 32.1V7c0-3.9 3.1-7 7-7h88.1C55 8.4 19.6 17.8 0 32.1z" opacity=".5" fill="url(#a)"/>
</svg>
