<svg version="1.1" id="Layer_1" xmlns="http://www.w3.org/2000/svg" xmlns:xlink="http://www.w3.org/1999/xlink" x="0" y="0" width="229.2" height="765.5" xml:space="preserve">
    <style>
        .st4{fill:none}.st7{fill:#fff}
    </style>
    <defs>
        <path id="SVGID_1_" d="M256.1-26.3v826h-291v-826"/>
    </defs>
    <clipPath id="SVGID_2_">
        <use xlink:href="#SVGID_1_" overflow="visible"/>
    </clipPath>
    <g opacity=".2" clip-path="url(#SVGID_2_)">
        <defs>
            <path id="SVGID_3_" d="M-34.9-26.3v826h291v-826"/>
        </defs>
        <clipPath id="SVGID_4_">
            <use xlink:href="#SVGID_3_" overflow="visible"/>
        </clipPath>
    </g>
    <defs>
        <path id="SVGID_5_" d="M211.4 124.5c-7.8-12.3-17.2-22.1-26.3-31.5-5.7-5.9-11.1-11.6-15.6-17.3-5-6.4-10.3-16.2-10.3-24.3 0-2.1.4-3.9 1.1-5.4.9-1.9 3-4.6 4.9-7.3 4.4-6 9.9-13.4 13.1-23.4.5-1.7 1-3.6 1.3-5.5l1.6-9.7H128l-2.5 3.5c-.8 1.1-1.6 2.2-2.6 3.6-3.1 4.2-7 9.4-10.1 15.8-4.2 8.8-6.4 18.4-6.4 28.5 0 19 7.4 38.6 21.4 56.6 6.2 8 12.8 14.9 19.3 21.6 7.6 7.9 14.8 15.3 19.7 23.1 6.1 9.7 9.5 21.6 9.5 33.6 0 7.2-1.2 14.1-3.5 20.6-6.3 17.6-21.3 32.2-39 38.1-5.9 1.9-12.7 3.2-19.9 4.6-8.6 1.6-17.5 3.3-26.7 6.3-27.6 9.1-46.4 28.7-50.5 52.3-.6 3.3-.8 6.6-.8 9.9 0 16.6 6.8 30.5 12.8 42.8 3.5 7.2 7.1 14.6 7.1 18.6 0 .5-.1.7-.1.9-.9 2.7-8.5 7.6-14.1 11.2-8.4 5.3-18.8 12-26.9 22.1C5.1 425.5 0 440.4 0 456.8c0 18.3 6.4 37.4 17.5 52.4 16.8 22.7 40.7 36 61.8 47.8l.6.3c18.7 10.4 34.9 20.2 44 33.6 4.9 7.3 7.6 16.7 7.6 26.4 0 12.2-4.2 23.9-11.5 32.2-6.2 7-15.2 13.1-24.7 19.4-2.8 1.9-5.8 3.9-8.7 5.9-14.7 10.2-32.7 24.8-41.6 47-3.2 8-4.8 16.4-4.8 25 0 4 .4 7.9 1.1 11.8l1.3 6.8h61.8l-10-13.3c-.6-.9-1.3-2.9-1.3-5.4 0-1.9.3-3.7 1-5.3 3.7-9.2 14.1-17.3 22.7-23.3 2.6-1.8 5.2-3.5 8-5.4 11.9-8 24.2-16.2 34.9-28.3 15.9-18 24.7-41.8 24.7-67.2 0-20.4-5.7-39.7-16.5-55.7-16.8-25-43-39.6-62.1-50.3l-.6-.3c-18-10.1-35.1-19.6-45.1-33.1-4.4-6-7.2-14-7.2-20.8 0-2.9.5-7.1 3-10.1 2.8-3.4 8.4-7 14.4-10.8 12.3-7.9 29.2-18.6 35.9-39.3 1.8-5.5 2.7-11.3 2.7-17.1 0-16.3-7-30.5-12.5-41.9-3.6-7.4-7.4-15.1-7.4-19.7 0-.3 0-.6.1-.9.5-3.1 6.4-8.2 15-11.1 5.9-1.9 12.7-3.2 19.9-4.6 8.6-1.6 17.5-3.3 26.7-6.3 33.4-11 60.3-37.4 72.1-70.4 4.4-12.3 6.6-25.3 6.6-38.5-.2-22.1-6.4-43.4-18-61.8"/>
    </defs>
    <clipPath id="SVGID_6_">
        <use xlink:href="#SVGID_5_" overflow="visible"/>
    </clipPath>
    <radialGradient id="SVGID_7_" cx="-339.36" cy="416.62" r="1" gradientTransform="rotate(90 17545.055 173246.133) scale(457.6746)" gradientUnits="userSpaceOnUse">
        <stop offset="0" stop-color="#fff"/>
        <stop offset="1" stop-color="#cfd6d8"/>
    </radialGradient>
    <path clip-path="url(#SVGID_6_)" fill="url(#SVGID_7_)" d="M0 0h229.2v765.5H0z"/>
    <defs>
        <path id="SVGID_8_" d="M204.8 129c-7.4-11.6-16.5-21.1-25.3-30.2-5.9-6.1-11.4-11.9-16.2-18-8.2-10.5-15.7-26.9-10.1-38.5 1.3-2.6 3.4-5.5 5.7-8.6 4.3-5.7 9.1-12.2 11.8-20.9.4-1.4.8-2.9 1-4.4h-39.1c-.9 1.2-1.8 2.5-2.8 3.8-3.1 4.1-6.5 8.8-9.3 14.4-10.9 22.5-5.6 51 14.1 76.4 5.9 7.6 12.4 14.4 18.7 20.9 7.9 8.2 15.4 15.9 20.8 24.5 11.4 17.9 14 41.5 6.8 61.5-7.1 20-24.1 36.6-44.3 43.2-6.4 2.1-13.5 3.4-20.9 4.8-8.3 1.6-16.9 3.2-25.7 6-24.3 8.1-41 25.2-44.5 45.7-3.1 18.3 4.5 33.9 11.2 47.6 5.1 10.4 9.5 19.4 7.5 25.7-1.8 5.5-9.1 10.2-17.6 15.6-8.3 5.3-17.6 11.3-24.9 20.3-9.1 11.2-12.9 24.5-12.9 38 0 17.2 6.3 34.5 15.9 47.5 15.7 21.2 38.8 34.1 59.2 45.5l.6.3c19.7 11 36.8 21.3 46.8 36.2 13.6 20.3 11.6 50.4-4.6 68.7-6.9 7.8-16.4 14.1-26.3 20.8-2.8 1.9-5.7 3.8-8.6 5.8-13.7 9.6-30.6 23.1-38.6 43.3-4.3 10.6-5.2 21.9-3.3 32.2h38.2c-3.2-4.3-4-12.3-1.4-18.8 4.5-11.3 16.1-20.4 25.7-27.1 2.6-1.8 5.3-3.6 8.1-5.5 11.4-7.7 23.3-15.6 33.3-26.9 27-30.5 30.2-79 7.5-112.7-15.7-23.4-40.8-37.4-59.2-47.6l-.6-.3c-18.9-10.5-36.7-20.5-47.8-35.4-8.8-11.8-12.7-30.5-4-41.2 3.6-4.5 9.8-8.4 16.3-12.6 11.9-7.6 26.6-17 32.4-34.8C105 374 96.1 356 89 341.5c-4.7-9.7-9.2-18.9-8.1-25.7 1.3-7.9 11.3-14.5 20.6-17.6 6.4-2.1 13.5-3.4 20.9-4.8 8.3-1.6 16.9-3.2 25.6-6 30.9-10.2 56-34.7 66.9-65.3 4.1-11.5 6.1-23.6 6.1-35.7.3-20.2-5.3-40.2-16.2-57.4"/>
    </defs>
    <clipPath id="SVGID_9_">
        <use xlink:href="#SVGID_8_" overflow="visible"/>
    </clipPath>
    <linearGradient id="SVGID_10_" gradientUnits="userSpaceOnUse" x1="-339.4" y1="416.46" x2="-338.4" y2="416.46" gradientTransform="rotate(90 28908.445 283058.836) scale(748.8078)">
        <stop offset="0" stop-color="#494d74"/>
        <stop offset="1" stop-color="#090e3a"/>
    </linearGradient>
    <path clip-path="url(#SVGID_9_)" fill="url(#SVGID_10_)" d="M8.8 8.3h212.5v748.8H8.8z"/>
    <path d="M70.3 762.4c-4.3-9.3-4.3-21.1-.4-30.8 6-15 18.9-26 32.2-35.2 13.2-9.2 27.5-17.4 38.2-29.5 21.6-24.4 24.2-63.7 6-90.7-12.7-18.9-33.1-30.8-53-41.9-19.9-11.1-40.5-22.5-54.1-40.8-13.5-18.3-17.8-45.6-3.5-63.3 13.2-16.3 39.2-21.7 45.6-41.7 8.2-25.3-22.6-49.6-18.1-75.8C65.9 297 80.8 286 96 281c15.2-5 31.4-5.9 46.6-10.9 25.5-8.4 46.6-29 55.6-54.3 9-25.2 5.8-54.6-8.6-77.2-11.1-17.4-27.8-30.5-40.5-46.8C136.5 75.6 128 53 137 34.4c4.6-9.6 13.4-17 16.6-27.1" fill="none" stroke="#fff" stroke-width="2" stroke-miterlimit="10" stroke-dasharray="10.98,10.98"/>
    <image width="80" height="94" xlink:href="78D38ADF.png" transform="rotate(90 71.177 131.878)" overflow="visible"/>
    <image width="81" height="95" xlink:href="78D38ADD.png" transform="rotate(90 21.558 215.485) scale(.9877)" overflow="visible"/>
    <image width="80" height="95" xlink:href="78D38AE3.png" transform="rotate(90 -110.323 238.378)" overflow="visible"/>
    <image width="81" height="96" xlink:href="78D38AE5.png" transform="rotate(90 -178.924 314.052) scale(.9877)" overflow="visible"/>
    <image width="81" height="96" xlink:href="78D38AE7.png" transform="rotate(90 -224.759 406.566) scale(.9877)" overflow="visible"/>
    <path class="st4" d="M256.1-26.3v826h-291v-826"/>
    <defs>
        <path id="SVGID_11_" d="M191.1 176.6c-11.9 0-21.5 9.6-21.5 21.5s21.5 35.9 21.5 35.9 21.5-24 21.5-35.9c-.1-11.8-9.7-21.5-21.5-21.5"/>
    </defs>
    <clipPath id="SVGID_12_">
        <use xlink:href="#SVGID_11_" overflow="visible"/>
    </clipPath>
    <linearGradient id="SVGID_13_" gradientUnits="userSpaceOnUse" x1="-338.75" y1="419.66" x2="-337.75" y2="419.66" gradientTransform="rotate(90 2158.214 20360.954) scale(53.2052)">
        <stop offset="0" stop-color="#eec32d"/>
        <stop offset=".35" stop-color="#f0ac2c"/>
        <stop offset="1" stop-color="#f6782a"/>
    </linearGradient>
    <path clip-path="url(#SVGID_12_)" fill="url(#SVGID_13_)" d="M169.6 176.6h42.9V234h-42.9z"/>
    <defs>
        <path id="SVGID_14_" d="M191.1 182c-8.7 0-15.8 7.1-15.8 15.8s7.1 15.8 15.8 15.8c8.7 0 15.8-7.1 15.8-15.8s-7.1-15.8-15.8-15.8"/>
    </defs>
    <clipPath id="SVGID_15_">
        <use xlink:href="#SVGID_14_" overflow="visible"/>
    </clipPath>
    <linearGradient id="SVGID_16_" gradientUnits="userSpaceOnUse" x1="-340.72" y1="409.94" x2="-339.72" y2="409.94" gradientTransform="rotate(-90 -10727.772 1018.712) scale(29.1205)">
        <stop offset="0" stop-color="#eec32d"/>
        <stop offset=".35" stop-color="#f0ac2c"/>
        <stop offset="1" stop-color="#f6782a"/>
    </linearGradient>
    <path clip-path="url(#SVGID_15_)" fill="url(#SVGID_16_)" d="M175.3 182h31.6v31.6h-31.6z"/>
    <path class="st7" d="M184.7 205.9c.9 0 1.6-.7 1.6-1.6 0-.8-.5-1.4-1.2-1.6v-.7c0-.3.3-.6.6-.6h5.4v1.4c-.7.2-1.2.8-1.2 1.6 0 .9.7 1.6 1.6 1.6.9 0 1.6-.7 1.6-1.6 0-.8-.5-1.4-1.2-1.6v-1.4h5.4c.3 0 .6.3.6.6v.8c-.7.2-1.2.8-1.2 1.6 0 .9.7 1.6 1.6 1.6.9 0 1.6-.7 1.6-1.6 0-.8-.5-1.4-1.2-1.6v-.8c0-.7-.6-1.3-1.3-1.3H192v-.3c0-.2-.2-.4-.4-.4s-.4.2-.4.4v.3h-5.4c-.7 0-1.3.6-1.3 1.3v.8c-.7.2-1.2.8-1.2 1.6-.2.8.5 1.5 1.4 1.5m13.4-2.5c.5 0 .9.4.9.9s-.4.9-.9.9-.9-.4-.9-.9.4-.9.9-.9m-6.7 0c.5 0 .9.4.9.9s-.4.9-.9.9-.9-.4-.9-.9.4-.9.9-.9m-6.7 0c.5 0 .9.4.9.9s-.4.9-.9.9-.9-.4-.9-.9.4-.9.9-.9M187.9 197.7s.1 0 0 0l.9.6c.8.4 1.6.6 2.6.6 1.1 0 2.2-.3 3.1-.9.1-.1.2-.2.4-.3 1.3-1 2.1-2.6 2.1-4.3 0-3-2.5-5.5-5.5-5.5s-5.5 2.5-5.5 5.5c-.1 1.7.7 3.3 1.9 4.3m3.5.5c-1.1 0-2-.3-2.8-.9.4-1.2 1.5-2 2.8-2 1.3 0 2.4.8 2.8 2-.8.6-1.7.9-2.8.9m-1.3-4.8c0-.7.5-1.2 1.2-1.2s1.2.5 1.2 1.2-.5 1.2-1.2 1.2c-.6 0-1.2-.5-1.2-1.2m1.3-4.8c2.7 0 4.8 2.2 4.8 4.8 0 1.3-.5 2.6-1.4 3.4-.2-.6-.6-1.1-1.1-1.4-.3-.3-.7-.5-1.1-.6.4-.3.6-.8.6-1.4 0-1-.8-1.9-1.9-1.9-1 0-1.9.8-1.9 1.9 0 .6.3 1.1.7 1.4-.3.1-.7.3-1 .6-.5.4-.9.9-1.1 1.4-.9-.9-1.4-2.1-1.4-3.4 0-2.6 2.1-4.8 4.8-4.8M191.1 199.5c0 .2.2.4.4.4s.4-.2.4-.4-.2-.4-.4-.4c-.3 0-.4.2-.4.4"/>
    <path class="st4" d="M256.1-26.3v826h-291v-826"/>
    <defs>
        <path id="SVGID_17_" d="M81.7 331.3c-11.9 0-21.5 9.6-21.5 21.5s21.5 35.9 21.5 35.9 21.5-24 21.5-35.9c0-11.9-9.6-21.5-21.5-21.5"/>
    </defs>
    <clipPath id="SVGID_18_">
        <use xlink:href="#SVGID_17_" overflow="visible"/>
    </clipPath>
    <linearGradient id="SVGID_19_" gradientUnits="userSpaceOnUse" x1="-338.75" y1="419.66" x2="-337.75" y2="419.66" gradientTransform="rotate(90 2026.21 20383.605) scale(53.2052)">
        <stop offset="0" stop-color="#6e843e"/>
        <stop offset="1" stop-color="#98bf55"/>
    </linearGradient>
    <path clip-path="url(#SVGID_18_)" fill="url(#SVGID_19_)" d="M60.2 331.3h42.9v57.4H60.2z"/>
    <defs>
        <path id="SVGID_20_" d="M81.7 336.6c-8.7 0-15.8 7.1-15.8 15.8 0 8.7 7.1 15.8 15.8 15.8 8.7 0 15.8-7.1 15.8-15.8 0-8.7-7.1-15.8-15.8-15.8"/>
    </defs>
    <clipPath id="SVGID_21_">
        <use xlink:href="#SVGID_20_" overflow="visible"/>
    </clipPath>
    <linearGradient id="SVGID_22_" gradientUnits="userSpaceOnUse" x1="-340.72" y1="409.94" x2="-339.72" y2="409.94" gradientTransform="rotate(-90 -10705.123 1150.715) scale(29.1205)">
        <stop offset="0" stop-color="#6e843e"/>
        <stop offset="1" stop-color="#98bf55"/>
    </linearGradient>
    <path clip-path="url(#SVGID_21_)" fill="url(#SVGID_22_)" d="M65.9 336.6h31.6v31.6H65.9z"/>
    <path class="st7" d="M88.7 349.6c.2 0 .4-.2.4-.4s-.2-.4-.4-.4-.4.2-.4.4c0 .3.2.4.4.4M79.4 351c-.2 0-.4.2-.4.4s.2.4.4.4.4-.2.4-.4c-.1-.3-.3-.4-.4-.4"/>
    <path class="st7" d="M74 355.4v3.4h-.9c-.2 0-.4.2-.4.4s.2.4.4.4H89.9c.2 0 .4-.2.4-.4s-.2-.4-.4-.4h-2.6l-1-3h3.3c.6 0 1.1-.5 1.1-1v-8.4c0-.6-.5-1-1.1-1h-2.7c-.2-1-1-1.7-2-1.7s-1.9.7-2 1.7H80c-.6 0-1 .5-1 1v1.8h-2c.2-.3.3-.6.3-1 0-.9-.7-1.7-1.7-1.7s-1.7.8-1.7 1.7c0 .5.2.9.5 1.2-1.1.5-1.9 1.6-1.9 2.9v2.6c.1.7.7 1.4 1.5 1.5m12.5 3.4h-3.2l1-3h1.2l1 3zm-1.7-14.5c.6 0 1.1.4 1.3 1h-2.6c.2-.6.7-1 1.3-1m-5.1 2c0-.2.2-.3.3-.3h9.5c.2 0 .3.2.3.3v8.4c0 .2-.2.3-.3.3H80c-.2 0-.3-.2-.3-.3v-2.1c0-.2-.2-.4-.4-.4s-.4.2-.4.4v2.1c0 .6.5 1 1 1h3.5l-1 3h-5v-8.5H81c1 0 1.8-.8 1.8-1.8 0-.2-.2-.4-.4-.4h-2.9l.2-1.7zm-4-.1c.5 0 1 .4 1 1 0 .5-.4 1-1 1-.5 0-1-.4-1-1s.4-1 1-1m-2.4 5c0-1.3 1.1-2.4 2.5-2.4h6.5c-.1.4-.6.8-1.1.8h-3.9c-.2 0-.4.2-.4.4v8.9h-.7v-4c0-.2-.2-.4-.4-.4s-.4.2-.4.4v4h-.7v-7.5c0-.2-.2-.4-.4-.4s-.4.2-.4.4v3.4c-.4-.1-.7-.4-.7-.8l.1-2.8z"/>
    <path class="st7" d="M82.3 352.5c-.1-.1-.2-.1-.2-.1s-.2 0-.2.1l-1 1c-.1.1-.1.4 0 .5.1.1.2.1.2.1s.2 0 .2-.1l.8-.8.5.5c.1.1.4.1.5 0l1.9-1.9.6.6c.1.1.4.1.5 0l1.8-1.8c.1-.1.1-.4 0-.5-.1-.1-.4-.1-.5 0l-1.5 1.5-.6-.5c-.1-.1-.4-.1-.5 0l-1.9 1.9-.6-.5z"/>
    <path class="st4" d="M256.1-26.3v826h-291v-826"/>
    <g>
        <defs>
            <path id="SVGID_23_" d="M86.9 475.6c-11.9 0-21.5 9.6-21.5 21.5S86.9 533 86.9 533s21.5-24 21.5-35.9-9.6-21.5-21.5-21.5"/>
        </defs>
        <clipPath id="SVGID_24_">
            <use xlink:href="#SVGID_23_" overflow="visible"/>
        </clipPath>
        <linearGradient id="SVGID_25_" gradientUnits="userSpaceOnUse" x1="-338.75" y1="419.66" x2="-337.75" y2="419.66" gradientTransform="rotate(90 1956.69 20458.36) scale(53.2052)">
            <stop offset="0" stop-color="#267dff"/>
            <stop offset=".36" stop-color="#1a6ce7"/>
            <stop offset="1" stop-color="#0048b5"/>
        </linearGradient>
        <path clip-path="url(#SVGID_24_)" fill="url(#SVGID_25_)" d="M65.5 475.6h42.9V533H65.5z"/>
    </g>
    <g>
        <defs>
            <path id="SVGID_26_" d="M86.9 480.9c-8.7 0-15.8 7.1-15.8 15.8 0 8.7 7.1 15.8 15.8 15.8s15.8-7.1 15.8-15.8c0-8.7-7-15.8-15.8-15.8"/>
        </defs>
        <clipPath id="SVGID_27_">
            <use xlink:href="#SVGID_26_" overflow="visible"/>
        </clipPath>
        <linearGradient id="SVGID_28_" gradientUnits="userSpaceOnUse" x1="-340.72" y1="409.94" x2="-339.72" y2="409.94" gradientTransform="rotate(-90 -10630.366 1220.235) scale(29.1205)">
            <stop offset="0" stop-color="#267dff"/>
            <stop offset=".36" stop-color="#1a6ce7"/>
            <stop offset="1" stop-color="#0048b5"/>
        </linearGradient>
        <path clip-path="url(#SVGID_27_)" fill="url(#SVGID_28_)" d="M71.2 480.9h31.6v31.6H71.2z"/>
    </g>
    <path class="st7" d="M93.2 489.1h-4.6c-.2-.8-.9-1.4-1.7-1.4s-1.6.6-1.7 1.4h-4.6c-.5 0-.9.4-.9.9v10c0 .5.4.9.9.9H85l-1.4 4.3c-.1.2 0 .4.2.4h.1c.1 0 .3-.1.3-.2l1.5-4.5h2.4l1.5 4.5c0 .1.2.2.3.2h.1c.2-.1.3-.3.2-.4l-1.4-4.3h4.4c.5 0 .9-.4.9-.9v-10c.1-.5-.4-.9-.9-.9m-6.3-.7c.5 0 .8.3 1 .7h-2c.1-.4.5-.7 1-.7m6.6 11.7c0 .1-.1.2-.2.2h-.9v-5c0-.2-.2-.4-.4-.4s-.4.2-.4.4v5h-1.1v-3.9c0-.2-.2-.4-.4-.4s-.4.2-.4.4v3.9h-1v-2.8c0-.2-.2-.4-.4-.4s-.4.2-.4.4v2.8H87v-3.7c0-.2-.2-.4-.4-.4s-.4.2-.4.4v3.7h-1v-1.9c0-.2-.2-.4-.4-.4s-.4.2-.4.4v1.9H84v-1.8c0-.2-.2-.4-.4-.4s-.4.2-.4.4v1.8h-.9v-1.4c0-.2-.2-.4-.4-.4s-.4.2-.4.4v1.4h-1.1c-.1 0-.2-.1-.2-.2v-10c0-.1.1-.2.2-.2h12.7c.1 0 .2.1.2.2l.2 10z"/>
    <path class="st7" d="M92.3 491.5s0-.1 0 0c0-.1 0-.1 0 0 0-.1 0-.1 0 0 0-.1 0-.1 0 0v-.1h-1.5c-.2 0-.4.2-.4.4s.2.4.4.4h.7l-2.9 2.9-.8-.8c-.1-.1-.2-.1-.2-.1-.1 0-.2 0-.2.1l-2.5 2.5-.8-.8c-.1-.1-.4-.1-.5 0l-1.3 1.3c-.1.1-.1.4 0 .5.1.1.2.1.2.1s.2 0 .2-.1l1-1 .8.8c.1.1.4.1.5 0l2.5-2.5.8.8c.1.1.2.1.2.1.1 0 .2 0 .2-.1l3.2-3.2v.7c0 .2.2.4.4.4s.4-.2.4-.4l-.4-1.9M82.1 491.9c.2 0 .4-.2.4-.4s-.2-.4-.4-.4-.4.2-.4.4.2.4.4.4M82.1 493.3c.2 0 .4-.2.4-.4s-.2-.4-.4-.4-.4.2-.4.4.2.4.4.4M82.1 494.7c.2 0 .4-.2.4-.4s-.2-.4-.4-.4-.4.2-.4.4.2.4.4.4"/>
    <path class="st4" d="M256.1-26.3v826h-291v-826"/>
    <g>
        <defs>
            <path id="SVGID_29_" d="M134.8 613.9c-11.9 0-21.5 9.6-21.5 21.5s21.5 35.9 21.5 35.9 21.5-24 21.5-35.9c0-11.9-9.6-21.5-21.5-21.5"/>
        </defs>
        <clipPath id="SVGID_30_">
            <use xlink:href="#SVGID_29_" overflow="visible"/>
        </clipPath>
        <linearGradient id="SVGID_31_" gradientUnits="userSpaceOnUse" x1="-338.75" y1="419.66" x2="-337.75" y2="419.66" gradientTransform="rotate(90 1911.457 20551.477) scale(53.2052)">
            <stop offset="0" stop-color="#6745d8"/>
            <stop offset=".36" stop-color="#5333be"/>
            <stop offset="1" stop-color="#270b87"/>
        </linearGradient>
        <path clip-path="url(#SVGID_30_)" fill="url(#SVGID_31_)" d="M113.4 613.9h42.9v57.4h-42.9z"/>
    </g>
    <g>
        <defs>
            <path id="SVGID_32_" d="M134.8 619.2c-8.7 0-15.8 7.1-15.8 15.8s7.1 15.8 15.8 15.8c8.7 0 15.8-7.1 15.8-15.8 0-8.7-7-15.8-15.8-15.8"/>
        </defs>
        <clipPath id="SVGID_33_">
            <use xlink:href="#SVGID_32_" overflow="visible"/>
        </clipPath>
        <linearGradient id="SVGID_34_" gradientUnits="userSpaceOnUse" x1="-340.72" y1="409.94" x2="-339.72" y2="409.94" gradientTransform="rotate(-90 -10537.251 1265.468) scale(29.1205)">
            <stop offset="0" stop-color="#6745d8"/>
            <stop offset=".36" stop-color="#5333be"/>
            <stop offset="1" stop-color="#270b87"/>
        </linearGradient>
        <path clip-path="url(#SVGID_33_)" fill="url(#SVGID_34_)" d="M119 619.2h31.6v31.6H119z"/>
    </g>
    <g>
        <defs>
            <path id="SVGID_35_" d="M256.1-26.3v826h-291v-826"/>
        </defs>
        <clipPath id="SVGID_36_">
            <use xlink:href="#SVGID_35_" overflow="visible"/>
        </clipPath>
        <path d="M126.9 636.9c.2.2.4.2.6.2.1 0 .2 0 .3-.1l1.2 1.2c-.1.2-.1.4-.1.6 0 .7.5 1.2 1.2 1.2 0 .7.5 1.2 1.2 1.2 0 .7.5 1.2 1.2 1.2.2 0 .4-.1.6-.1l.4.4c.2.2.5.3.8.3.3 0 .6-.1.8-.3.2-.2.3-.4.3-.7.3 0 .5-.1.7-.3.2-.2.3-.5.3-.8.3 0 .6-.2.8-.4.2-.2.3-.5.3-.8.3 0 .6-.1.8-.3.2-.2.3-.5.3-.8 0-.2 0-.4-.1-.5l1.2-1.1c.1.1.3.2.5.2s.4-.1.6-.2l2.1-2.1c.1-.1.1-.4 0-.5l-3.3-3.3c-.1-.1-.4-.1-.5 0-.1.1-.1.4 0 .5l3.1 3.1-1.8 1.8c-.1.1-.1.1-.2 0l-3.6-3.6c-.1-.1-.1-.1 0-.2l1.2-1.2c.1-.1.1-.4 0-.5-.1-.1-.4-.1-.5 0l-1.2 1.2c-.3.3-.3.6-.2.9l-.4.4h-2.9l-.5-.5v-.2c0-.2-.1-.4-.2-.6l-1.2-1.2c-.1-.1-.4-.1-.5 0s-.1.4 0 .5l1.2 1.2v.2l-.1.1-3.5 3.5h-.1-.1l-1.8-1.8 3.1-3.1c.1-.1.1-.4 0-.5-.1-.1-.4-.1-.5 0l-3.4 3.4c-.1.1-.1.4 0 .5l1.9 1.9zm3.2 2.4c-.3 0-.5-.2-.5-.5s.2-.5.5-.5.5.2.5.5c0 .2-.3.5-.5.5m1.5 1c-.1.1-.2.2-.4.2-.3 0-.5-.2-.5-.5s.2-.5.5-.5.5.2.5.5c.1.1 0 .2-.1.3m1.2 1.2c-.1.1-.2.2-.4.2-.3 0-.5-.2-.5-.5 0-.1 0-.2.1-.3.1-.1.2-.1.3-.1.3 0 .5.2.5.5.2 0 .1.1 0 .2m2.7-7.4c.1 0 .2 0 .2-.1l.5-.5 2.9 2.9-1.1 1-2.1-2.1c-.1-.1-.2-.1-.3-.1h-1.5c-.1 0-.2 0-.3.1l-1.3 1.3c-.1.1-.2.1-.3.1-.1 0-.2 0-.3-.1-.1-.1-.1-.2-.1-.3s0-.2.1-.3l1.9-1.9h1.7zm-4-.6l.5.5c.1.1.2.1.2.1h.5l-1.4 1.4c-.2.2-.3.5-.3.8s.1.6.3.8c.2.2.5.3.8.3.3 0 .6-.1.8-.3l1.2-1.2h1.3l2.3 2.3c.1.1.1.2.1.3 0 .1 0 .2-.1.3-.1.1-.2.1-.3.1-.1 0-.2 0-.3-.1l-.7-.7c-.1-.1-.4-.1-.5 0-.1.1-.1.4 0 .5l.7.7c.2.2.2.5 0 .7-.1.1-.2.1-.3.2s-.3 0-.3-.1l-.7-.7c-.1-.1-.4-.1-.5 0-.1.1-.1.4 0 .5l.8.7c.1.1.1.2.1.3 0 .1 0 .2-.1.3-.2.2-.4.2-.5 0l-.4-.4c-.1-.1-.4-.1-.5 0-.1.1-.1.2-.1.2s0 .2.1.2l.4.4c.1.1.1.2.1.3 0 .1 0 .2-.1.3-.1.1-.2.1-.3.1-.1 0-.2 0-.3-.1l-.4-.4c.1-.2.1-.4.1-.6 0-.7-.5-1.2-1.2-1.2 0-.7-.5-1.2-1.2-1.2 0-.7-.5-1.2-1.2-1.2-.2 0-.4.1-.6.1l-1.1-1.1 3.1-3.1z" clip-path="url(#SVGID_36_)" fill="#fff"/>
        <defs>
            <path id="SVGID_37_" d="M256.1-26.3v826h-291v-826"/>
        </defs>
        <clipPath id="SVGID_38_">
            <use xlink:href="#SVGID_37_" overflow="visible"/>
        </clipPath>
        <path d="M140.2 635.1c.2 0 .4-.2.4-.4s-.2-.4-.4-.4-.4.2-.4.4.2.4.4.4" clip-path="url(#SVGID_38_)" fill="#fff"/>
        <g>
            <defs>
                <path id="SVGID_39_" d="M256.1-26.3v826h-291v-826"/>
            </defs>
            <clipPath id="SVGID_40_">
                <use xlink:href="#SVGID_39_" overflow="visible"/>
            </clipPath>
            <path d="M127 634.7c0 .2.2.4.4.4s.4-.2.4-.4-.2-.4-.4-.4c-.2.1-.4.3-.4.4" clip-path="url(#SVGID_40_)" fill="#fff"/>
        </g>
        <g>
            <defs>
                <path id="SVGID_41_" d="M256.1-26.3v826h-291v-826"/>
            </defs>
            <clipPath id="SVGID_42_">
                <use xlink:href="#SVGID_41_" overflow="visible"/>
            </clipPath>
            <path d="M129.1 630.4c0 .2.2.4.4.4s.4-.2.4-.4-.2-.4-.4-.4c-.3 0-.4.2-.4.4" clip-path="url(#SVGID_42_)" fill="#fff"/>
        </g>
        <g>
            <defs>
                <path id="SVGID_43_" d="M256.1-26.3v826h-291v-826"/>
            </defs>
            <clipPath id="SVGID_44_">
                <use xlink:href="#SVGID_43_" overflow="visible"/>
            </clipPath>
            <path d="M137.8 630.3c0 .2.2.4.4.4s.4-.2.4-.4-.2-.4-.4-.4c-.2.1-.4.2-.4.4" clip-path="url(#SVGID_44_)" fill="#fff"/>
        </g>
    </g>
    <path class="st4" d="M-34.9-26.3v826h291v-826"/>
    <g>
        <defs>
            <path id="SVGID_45_" d="M156 44.7c-11.9 0-21.5 9.6-21.5 21.5s21.5 35.9 21.5 35.9 21.5-24 21.5-35.9c0-11.8-9.6-21.5-21.5-21.5"/>
        </defs>
        <clipPath id="SVGID_46_">
            <use xlink:href="#SVGID_45_" overflow="visible"/>
        </clipPath>
        <linearGradient id="SVGID_47_" gradientUnits="userSpaceOnUse" x1="-338.75" y1="419.66" x2="-337.75" y2="419.66" gradientTransform="rotate(90 2206.632 20277.43) scale(53.2051)">
            <stop offset="0" stop-color="#ff3179"/>
            <stop offset="1" stop-color="#750000"/>
        </linearGradient>
        <path clip-path="url(#SVGID_46_)" fill="url(#SVGID_47_)" d="M134.5 44.7h42.9v57.4h-42.9z"/>
    </g>
    <g>
        <defs>
            <path id="SVGID_48_" d="M156 50c-8.7 0-15.8 7.1-15.8 15.8 0 8.7 7.1 15.8 15.8 15.8 8.7 0 15.8-7.1 15.8-15.8 0-8.7-7.1-15.8-15.8-15.8"/>
        </defs>
        <clipPath id="SVGID_49_">
            <use xlink:href="#SVGID_48_" overflow="visible"/>
        </clipPath>
        <linearGradient id="SVGID_50_" gradientUnits="userSpaceOnUse" x1="-340.72" y1="409.94" x2="-339.72" y2="409.94" gradientTransform="rotate(-90 -10811.22 970.284) scale(29.1204)">
            <stop offset="0" stop-color="#ff3179"/>
            <stop offset="1" stop-color="#750000"/>
        </linearGradient>
        <path clip-path="url(#SVGID_49_)" fill="url(#SVGID_50_)" d="M140.2 50h31.6v31.6h-31.6z"/>
    </g>
    <path class="st7" d="M164.1 58.1H163V57c0-.2-.2-.3-.3-.3-.2 0-.3.2-.3.3v1.3l-1.4 1.5c-1.5-1.3-3.3-2.1-5.3-2.1-2.1 0-4.1.8-5.6 2.3-1.5 1.5-2.3 3.5-2.3 5.6 0 2.1.8 4.1 2.3 5.6.2.2.5.4.7.6l-1.9 1.9c-.1.1-.1.4 0 .5.1.1.2.1.2.1.1 0 .2 0 .2-.1l2-2c1.3.8 2.8 1.3 4.3 1.3 1.6 0 3-.4 4.3-1.3l2 2c.1.1.2.1.2.1.1 0 .2 0 .2-.1.1-.1.1-.4 0-.5l-1.9-1.9c.2-.2.5-.4.7-.6 1.5-1.5 2.3-3.5 2.3-5.6 0-1.2-.3-2.4-.8-3.4-.1-.2-.3-.2-.5-.2-.2.1-.2.3-.2.5.5 1 .7 2 .7 3.1 0 4-3.2 7.2-7.2 7.2s-7.2-3.2-7.2-7.2 3.2-7.2 7.2-7.2c1.8 0 3.5.7 4.8 1.9l-1.2 1.2c-1-.9-2.3-1.4-3.6-1.4-3 0-5.5 2.5-5.5 5.5s2.5 5.5 5.5 5.5 5.5-2.5 5.5-5.5c0-.5-.1-1-.2-1.4-.2-.8-.6-1.6-1.2-2.2l1.5-1.5 1.7-1.7h1.3c.2 0 .3-.2.3-.3.2-.3 0-.4-.2-.4m-3.9 6.2c.1.4.2.8.2 1.3 0 2.7-2.2 4.8-4.8 4.8s-4.8-2.2-4.8-4.8c0-2.7 2.2-4.8 4.8-4.8 1.2 0 2.3.4 3.1 1.2l-1.4 1.4c-.5-.4-1.1-.6-1.7-.6-1.5 0-2.8 1.3-2.8 2.8 0 1.5 1.3 2.8 2.8 2.8 1.5 0 2.8-1.3 2.8-2.8 0-.7-.2-1.3-.6-1.7l1.4-1.4c.5.5.8 1.1 1 1.8m-4.9 1.5c.1.1.2.1.2.1.1 0 .2 0 .2-.1l1.4-1.4c.3.3.4.8.4 1.2 0 1.2-.9 2.1-2.1 2.1-1.2 0-2.1-.9-2.1-2.1s.9-2.1 2.1-2.1c.4 0 .9.1 1.2.4l-1.4 1.4c0 .1 0 .3.1.5"/>
    <path class="st7" d="M161.4 61.2c0 .2.2.3.3.3s.3-.2.3-.3c0-.2-.2-.3-.3-.3s-.3.1-.3.3"/>
    <path class="st4" d="M256.1-26.3v826h-291v-826"/>
</svg>
